solid OpenSCAD_Model
  facet normal -1 0 0
    outer loop
      vertex 0 0 0
      vertex 0 0 1.1
      vertex 0 181.774 0
    endloop
  endfacet
  facet normal -1 0 0
    outer loop
      vertex 0 181.774 0
      vertex 0 0 1.1
      vertex 0 181.774 1.1
    endloop
  endfacet
  facet normal 0 -1 0
    outer loop
      vertex 0 0 1.1
      vertex 0 0 0
      vertex 182.424 0 0
    endloop
  endfacet
  facet normal 0 -1 0
    outer loop
      vertex 182.424 0 1.1
      vertex 0 0 1.1
      vertex 182.424 0 0
    endloop
  endfacet
  facet normal 0 0 -1
    outer loop
      vertex 134.424 135.97 0
      vertex 0 181.774 0
      vertex 182.424 181.774 0
    endloop
  endfacet
  facet normal 0 0 -1
    outer loop
      vertex 0 0 0
      vertex 0 181.774 0
      vertex 49.5 51 0
    endloop
  endfacet
  facet normal 0 0 -1
    outer loop
      vertex 0 0 0
      vertex 49.5 51 0
      vertex 49.701 50.25 0
    endloop
  endfacet
  facet normal 0 0 -1
    outer loop
      vertex 0 0 0
      vertex 49.701 50.25 0
      vertex 50.25 49.701 0
    endloop
  endfacet
  facet normal 0 0 -1
    outer loop
      vertex 0 0 0
      vertex 50.25 49.701 0
      vertex 182.424 0 0
    endloop
  endfacet
  facet normal 0 0 -1
    outer loop
      vertex 50.25 49.701 0
      vertex 51 49.5 0
      vertex 182.424 0 0
    endloop
  endfacet
  facet normal 0 0 -1
    outer loop
      vertex 65.5 50 0
      vertex 182.424 0 0
      vertex 52.049 50 0
    endloop
  endfacet
  facet normal 0 0 -1
    outer loop
      vertex 51.75 49.701 0
      vertex 52.049 50 0
      vertex 182.424 0 0
    endloop
  endfacet
  facet normal 0 0 -1
    outer loop
      vertex 65.5 100.15 0
      vertex 87 87 0
      vertex 52.049 100.15 0
    endloop
  endfacet
  facet normal 0 0 -1
    outer loop
      vertex 132.424 53.175 0
      vertex 182.424 0 0
      vertex 65.5 53.175 0
    endloop
  endfacet
  facet normal 0 0 -1
    outer loop
      vertex 50 52.049 0
      vertex 0 181.774 0
      vertex 50 81.6237 0
    endloop
  endfacet
  facet normal 0 0 -1
    outer loop
      vertex 65.5 50 0
      vertex 65.5 53.175 0
      vertex 182.424 0 0
    endloop
  endfacet
  facet normal 0 0 -1
    outer loop
      vertex 136.62 83.6238 0
      vertex 182.424 181.774 0
      vertex 137.424 80.6238 0
    endloop
  endfacet
  facet normal 0 0 -1
    outer loop
      vertex 182.424 0 0
      vertex 132.424 53.175 0
      vertex 182.424 181.774 0
    endloop
  endfacet
  facet normal 0 0 -1
    outer loop
      vertex 117 81.6237 0
      vertex 117 87 0
      vertex 125.692 81.6237 0
    endloop
  endfacet
  facet normal 0 0 -1
    outer loop
      vertex 132.424 53.175 0
      vertex 132.424 74.8917 0
      vertex 134.424 75.4276 0
    endloop
  endfacet
  facet normal 0 0 -1
    outer loop
      vertex 132.424 53.175 0
      vertex 134.424 75.4276 0
      vertex 136.62 77.6238 0
    endloop
  endfacet
  facet normal 0 0 -1
    outer loop
      vertex 132.424 53.175 0
      vertex 136.62 77.6238 0
      vertex 182.424 181.774 0
    endloop
  endfacet
  facet normal 0 0 -1
    outer loop
      vertex 136.62 77.6238 0
      vertex 137.424 80.6238 0
      vertex 182.424 181.774 0
    endloop
  endfacet
  facet normal 0 0 -1
    outer loop
      vertex 134.424 85.8199 0
      vertex 182.424 181.774 0
      vertex 136.62 83.6238 0
    endloop
  endfacet
  facet normal 0 0 -1
    outer loop
      vertex 50 81.6237 0
      vertex 49.701 100.4 0
      vertex 50.25 99.851 0
    endloop
  endfacet
  facet normal 0 0 -1
    outer loop
      vertex 50 81.6237 0
      vertex 50.25 99.851 0
      vertex 87 87 0
    endloop
  endfacet
  facet normal 0 0 -1
    outer loop
      vertex 132.424 103.325 0
      vertex 117 87 0
      vertex 87 87 0
    endloop
  endfacet
  facet normal 0 0 -1
    outer loop
      vertex 50 81.6237 0
      vertex 87 87 0
      vertex 87 81.6237 0
    endloop
  endfacet
  facet normal 0 0 -1
    outer loop
      vertex 49.701 51.75 0
      vertex 0 181.774 0
      vertex 50 52.049 0
    endloop
  endfacet
  facet normal 0 0 -1
    outer loop
      vertex 49.5 51 0
      vertex 0 181.774 0
      vertex 49.701 51.75 0
    endloop
  endfacet
  facet normal 0 0 -1
    outer loop
      vertex 49.701 100.4 0
      vertex 0 181.774 0
      vertex 49.5 101.15 0
    endloop
  endfacet
  facet normal 0 0 -1
    outer loop
      vertex 132.424 103.325 0
      vertex 131.424 86.6238 0
      vertex 128.424 85.8199 0
    endloop
  endfacet
  facet normal 0 0 -1
    outer loop
      vertex 132.424 103.325 0
      vertex 128.424 85.8199 0
      vertex 126.228 83.6238 0
    endloop
  endfacet
  facet normal 0 0 -1
    outer loop
      vertex 126.228 83.6238 0
      vertex 125.692 81.6237 0
      vertex 117 87 0
    endloop
  endfacet
  facet normal 0 0 -1
    outer loop
      vertex 132.424 103.325 0
      vertex 126.228 83.6238 0
      vertex 117 87 0
    endloop
  endfacet
  facet normal 0 0 -1
    outer loop
      vertex 50.25 99.851 0
      vertex 51 99.65 0
      vertex 87 87 0
    endloop
  endfacet
  facet normal 0 0 -1
    outer loop
      vertex 51 99.65 0
      vertex 51.75 99.851 0
      vertex 87 87 0
    endloop
  endfacet
  facet normal 0 0 -1
    outer loop
      vertex 51.75 99.851 0
      vertex 52.049 100.15 0
      vertex 87 87 0
    endloop
  endfacet
  facet normal 0 0 -1
    outer loop
      vertex 132.424 103.325 0
      vertex 134.424 85.8199 0
      vertex 131.424 86.6238 0
    endloop
  endfacet
  facet normal 0 0 -1
    outer loop
      vertex 65.5 100.15 0
      vertex 65.5 103.325 0
      vertex 87 87 0
    endloop
  endfacet
  facet normal 0 0 -1
    outer loop
      vertex 137.424 130.774 0
      vertex 182.424 181.774 0
      vertex 136.62 127.774 0
    endloop
  endfacet
  facet normal 0 0 -1
    outer loop
      vertex 134.424 85.8199 0
      vertex 132.424 103.325 0
      vertex 182.424 181.774 0
    endloop
  endfacet
  facet normal 0 0 -1
    outer loop
      vertex 50 131.774 0
      vertex 0 181.774 0
      vertex 87 131.774 0
    endloop
  endfacet
  facet normal 0 0 -1
    outer loop
      vertex 132.424 103.325 0
      vertex 132.424 125.042 0
      vertex 134.424 125.578 0
    endloop
  endfacet
  facet normal 0 0 -1
    outer loop
      vertex 132.424 103.325 0
      vertex 134.424 125.578 0
      vertex 136.62 127.774 0
    endloop
  endfacet
  facet normal 0 0 -1
    outer loop
      vertex 132.424 103.325 0
      vertex 136.62 127.774 0
      vertex 182.424 181.774 0
    endloop
  endfacet
  facet normal 0 0 -1
    outer loop
      vertex 117 137.15 0
      vertex 125.692 131.774 0
      vertex 117 131.774 0
    endloop
  endfacet
  facet normal 0 0 -1
    outer loop
      vertex 128.424 135.97 0
      vertex 0 181.774 0
      vertex 131.424 136.774 0
    endloop
  endfacet
  facet normal 0 0 -1
    outer loop
      vertex 126.228 133.774 0
      vertex 0 181.774 0
      vertex 128.424 135.97 0
    endloop
  endfacet
  facet normal 0 0 -1
    outer loop
      vertex 137.424 130.774 0
      vertex 136.62 133.774 0
      vertex 182.424 181.774 0
    endloop
  endfacet
  facet normal 0 0 -1
    outer loop
      vertex 131.424 136.774 0
      vertex 0 181.774 0
      vertex 134.424 135.97 0
    endloop
  endfacet
  facet normal 0 0 -1
    outer loop
      vertex 136.62 133.774 0
      vertex 134.424 135.97 0
      vertex 182.424 181.774 0
    endloop
  endfacet
  facet normal 0 0 -1
    outer loop
      vertex 117 137.15 0
      vertex 0 181.774 0
      vertex 126.228 133.774 0
    endloop
  endfacet
  facet normal 0 0 -1
    outer loop
      vertex 87 137.15 0
      vertex 0 181.774 0
      vertex 117 137.15 0
    endloop
  endfacet
  facet normal 0 0 -1
    outer loop
      vertex 125.692 131.774 0
      vertex 117 137.15 0
      vertex 126.228 133.774 0
    endloop
  endfacet
  facet normal 0 0 -1
    outer loop
      vertex 87 131.774 0
      vertex 0 181.774 0
      vertex 87 137.15 0
    endloop
  endfacet
  facet normal 0 0 -1
    outer loop
      vertex 49.701 101.9 0
      vertex 0 181.774 0
      vertex 50 102.199 0
    endloop
  endfacet
  facet normal 0 0 -1
    outer loop
      vertex 49.5 101.15 0
      vertex 0 181.774 0
      vertex 49.701 101.9 0
    endloop
  endfacet
  facet normal 0 0 -1
    outer loop
      vertex 51.75 49.701 0
      vertex 182.424 0 0
      vertex 51 49.5 0
    endloop
  endfacet
  facet normal 0 0 -1
    outer loop
      vertex 50 81.6237 0
      vertex 0 181.774 0
      vertex 49.701 100.4 0
    endloop
  endfacet
  facet normal 0 0 -1
    outer loop
      vertex 132.424 103.325 0
      vertex 87 87 0
      vertex 65.5 103.325 0
    endloop
  endfacet
  facet normal 0 0 -1
    outer loop
      vertex 50 102.199 0
      vertex 0 181.774 0
      vertex 50 131.774 0
    endloop
  endfacet
  facet normal 0 1 0
    outer loop
      vertex 0 181.774 0
      vertex 0 181.774 1.1
      vertex 182.424 181.774 0
    endloop
  endfacet
  facet normal 0 1 0
    outer loop
      vertex 182.424 181.774 0
      vertex 0 181.774 1.1
      vertex 182.424 181.774 1.1
    endloop
  endfacet
  facet normal 0 0 1
    outer loop
      vertex 51 49.5 1.1
      vertex 0 0 1.1
      vertex 182.424 0 1.1
    endloop
  endfacet
  facet normal 0 0 1
    outer loop
      vertex 137.424 80.6238 1.1
      vertex 136.62 77.6238 1.1
      vertex 182.424 0 1.1
    endloop
  endfacet
  facet normal 0 0 1
    outer loop
      vertex 0 181.774 1.1
      vertex 0 0 1.1
      vertex 49.701 50.25 1.1
    endloop
  endfacet
  facet normal 0 0 1
    outer loop
      vertex 51.75 49.701 1.1
      vertex 51 49.5 1.1
      vertex 182.424 0 1.1
    endloop
  endfacet
  facet normal 0 0 1
    outer loop
      vertex 0 181.774 1.1
      vertex 49.701 50.25 1.1
      vertex 49.5 51 1.1
    endloop
  endfacet
  facet normal 0 0 1
    outer loop
      vertex 0 181.774 1.1
      vertex 49.5 51 1.1
      vertex 49.701 51.75 1.1
    endloop
  endfacet
  facet normal 0 0 1
    outer loop
      vertex 50 102.199 1.1
      vertex 50 131.774 1.1
      vertex 0 181.774 1.1
    endloop
  endfacet
  facet normal 0 0 1
    outer loop
      vertex 0 181.774 1.1
      vertex 49.701 51.75 1.1
      vertex 50 52.049 1.1
    endloop
  endfacet
  facet normal 0 0 1
    outer loop
      vertex 0 181.774 1.1
      vertex 50 52.049 1.1
      vertex 50 81.6237 1.1
    endloop
  endfacet
  facet normal 0 0 1
    outer loop
      vertex 51 99.65 1.1
      vertex 50 81.6237 1.1
      vertex 87 81.6237 1.1
    endloop
  endfacet
  facet normal 0 0 1
    outer loop
      vertex 50 131.774 1.1
      vertex 87 131.774 1.1
      vertex 0 181.774 1.1
    endloop
  endfacet
  facet normal 0 0 1
    outer loop
      vertex 126.228 83.6238 1.1
      vertex 128.424 85.8199 1.1
      vertex 182.424 181.774 1.1
    endloop
  endfacet
  facet normal 0 0 1
    outer loop
      vertex 126.228 83.6238 1.1
      vertex 117 87 1.1
      vertex 125.692 81.6237 1.1
    endloop
  endfacet
  facet normal 0 0 1
    outer loop
      vertex 132.424 103.325 1.1
      vertex 117 87 1.1
      vertex 126.228 83.6238 1.1
    endloop
  endfacet
  facet normal 0 0 1
    outer loop
      vertex 136.62 77.6238 1.1
      vertex 134.424 75.4276 1.1
      vertex 182.424 0 1.1
    endloop
  endfacet
  facet normal 0 0 1
    outer loop
      vertex 182.424 181.774 1.1
      vertex 128.424 85.8199 1.1
      vertex 131.424 86.6238 1.1
    endloop
  endfacet
  facet normal 0 0 1
    outer loop
      vertex 132.424 74.8917 1.1
      vertex 132.424 53.175 1.1
      vertex 182.424 0 1.1
    endloop
  endfacet
  facet normal 0 0 1
    outer loop
      vertex 182.424 181.774 1.1
      vertex 131.424 86.6238 1.1
      vertex 134.424 85.8199 1.1
    endloop
  endfacet
  facet normal 0 0 1
    outer loop
      vertex 182.424 181.774 1.1
      vertex 136.62 83.6238 1.1
      vertex 182.424 0 1.1
    endloop
  endfacet
  facet normal 0 0 1
    outer loop
      vertex 182.424 181.774 1.1
      vertex 134.424 85.8199 1.1
      vertex 136.62 83.6238 1.1
    endloop
  endfacet
  facet normal 0 0 1
    outer loop
      vertex 136.62 83.6238 1.1
      vertex 137.424 80.6238 1.1
      vertex 182.424 0 1.1
    endloop
  endfacet
  facet normal 0 0 1
    outer loop
      vertex 134.424 75.4276 1.1
      vertex 132.424 74.8917 1.1
      vertex 182.424 0 1.1
    endloop
  endfacet
  facet normal 0 0 1
    outer loop
      vertex 117 81.6237 1.1
      vertex 125.692 81.6237 1.1
      vertex 117 87 1.1
    endloop
  endfacet
  facet normal 0 0 1
    outer loop
      vertex 65.5 53.175 1.1
      vertex 65.5 50 1.1
      vertex 182.424 0 1.1
    endloop
  endfacet
  facet normal 0 0 1
    outer loop
      vertex 52.049 50 1.1
      vertex 51.75 49.701 1.1
      vertex 182.424 0 1.1
    endloop
  endfacet
  facet normal 0 0 1
    outer loop
      vertex 50.25 49.701 1.1
      vertex 0 0 1.1
      vertex 51 49.5 1.1
    endloop
  endfacet
  facet normal 0 0 1
    outer loop
      vertex 49.701 50.25 1.1
      vertex 0 0 1.1
      vertex 50.25 49.701 1.1
    endloop
  endfacet
  facet normal 0 0 1
    outer loop
      vertex 0 181.774 1.1
      vertex 50 81.6237 1.1
      vertex 49.701 100.4 1.1
    endloop
  endfacet
  facet normal 0 0 1
    outer loop
      vertex 51.75 99.851 1.1
      vertex 51 99.65 1.1
      vertex 87 81.6237 1.1
    endloop
  endfacet
  facet normal 0 0 1
    outer loop
      vertex 0 181.774 1.1
      vertex 49.701 100.4 1.1
      vertex 49.5 101.15 1.1
    endloop
  endfacet
  facet normal 0 0 1
    outer loop
      vertex 52.049 100.15 1.1
      vertex 51.75 99.851 1.1
      vertex 87 81.6237 1.1
    endloop
  endfacet
  facet normal 0 0 1
    outer loop
      vertex 0 181.774 1.1
      vertex 49.5 101.15 1.1
      vertex 49.701 101.9 1.1
    endloop
  endfacet
  facet normal 0 0 1
    outer loop
      vertex 0 181.774 1.1
      vertex 49.701 101.9 1.1
      vertex 50 102.199 1.1
    endloop
  endfacet
  facet normal 0 0 1
    outer loop
      vertex 132.424 53.175 1.1
      vertex 65.5 53.175 1.1
      vertex 182.424 0 1.1
    endloop
  endfacet
  facet normal 0 0 1
    outer loop
      vertex 87 137.15 1.1
      vertex 0 181.774 1.1
      vertex 87 131.774 1.1
    endloop
  endfacet
  facet normal 0 0 1
    outer loop
      vertex 182.424 181.774 1.1
      vertex 0 181.774 1.1
      vertex 87 137.15 1.1
    endloop
  endfacet
  facet normal 0 0 1
    outer loop
      vertex 182.424 181.774 1.1
      vertex 117 137.15 1.1
      vertex 117 131.774 1.1
    endloop
  endfacet
  facet normal 0 0 1
    outer loop
      vertex 126.228 133.774 1.1
      vertex 117 131.774 1.1
      vertex 125.692 131.774 1.1
    endloop
  endfacet
  facet normal 0 0 1
    outer loop
      vertex 128.424 135.97 1.1
      vertex 117 131.774 1.1
      vertex 126.228 133.774 1.1
    endloop
  endfacet
  facet normal 0 0 1
    outer loop
      vertex 134.424 125.578 1.1
      vertex 132.424 103.325 1.1
      vertex 136.62 127.774 1.1
    endloop
  endfacet
  facet normal 0 0 1
    outer loop
      vertex 182.424 181.774 1.1
      vertex 117 131.774 1.1
      vertex 128.424 135.97 1.1
    endloop
  endfacet
  facet normal 0 0 1
    outer loop
      vertex 182.424 181.774 1.1
      vertex 131.424 136.774 1.1
      vertex 134.424 135.97 1.1
    endloop
  endfacet
  facet normal 0 0 1
    outer loop
      vertex 136.62 127.774 1.1
      vertex 132.424 103.325 1.1
      vertex 182.424 181.774 1.1
    endloop
  endfacet
  facet normal 0 0 1
    outer loop
      vertex 182.424 181.774 1.1
      vertex 134.424 135.97 1.1
      vertex 136.62 133.774 1.1
    endloop
  endfacet
  facet normal 0 0 1
    outer loop
      vertex 182.424 181.774 1.1
      vertex 136.62 133.774 1.1
      vertex 137.424 130.774 1.1
    endloop
  endfacet
  facet normal 0 0 1
    outer loop
      vertex 182.424 181.774 1.1
      vertex 137.424 130.774 1.1
      vertex 136.62 127.774 1.1
    endloop
  endfacet
  facet normal 0 0 1
    outer loop
      vertex 182.424 181.774 1.1
      vertex 132.424 103.325 1.1
      vertex 126.228 83.6238 1.1
    endloop
  endfacet
  facet normal 0 0 1
    outer loop
      vertex 128.424 135.97 1.1
      vertex 131.424 136.774 1.1
      vertex 182.424 181.774 1.1
    endloop
  endfacet
  facet normal 0 0 1
    outer loop
      vertex 132.424 125.042 1.1
      vertex 132.424 103.325 1.1
      vertex 134.424 125.578 1.1
    endloop
  endfacet
  facet normal 0 0 1
    outer loop
      vertex 65.5 103.325 1.1
      vertex 65.5 100.15 1.1
      vertex 87 81.6237 1.1
    endloop
  endfacet
  facet normal 0 0 1
    outer loop
      vertex 50.25 99.851 1.1
      vertex 50 81.6237 1.1
      vertex 51 99.65 1.1
    endloop
  endfacet
  facet normal 0 0 1
    outer loop
      vertex 49.701 100.4 1.1
      vertex 50 81.6237 1.1
      vertex 50.25 99.851 1.1
    endloop
  endfacet
  facet normal 0 0 1
    outer loop
      vertex 65.5 50 1.1
      vertex 52.049 50 1.1
      vertex 182.424 0 1.1
    endloop
  endfacet
  facet normal 0 0 1
    outer loop
      vertex 87 137.15 1.1
      vertex 117 137.15 1.1
      vertex 182.424 181.774 1.1
    endloop
  endfacet
  facet normal 0 0 1
    outer loop
      vertex 65.5 100.15 1.1
      vertex 52.049 100.15 1.1
      vertex 87 81.6237 1.1
    endloop
  endfacet
  facet normal 0 0 1
    outer loop
      vertex 132.424 103.325 1.1
      vertex 87 87 1.1
      vertex 117 87 1.1
    endloop
  endfacet
  facet normal 0 0 1
    outer loop
      vertex 87 87 1.1
      vertex 65.5 103.325 1.1
      vertex 87 81.6237 1.1
    endloop
  endfacet
  facet normal 0 0 1
    outer loop
      vertex 132.424 103.325 1.1
      vertex 65.5 103.325 1.1
      vertex 87 87 1.1
    endloop
  endfacet
  facet normal 1 0 0
    outer loop
      vertex 182.424 0 1.1
      vertex 182.424 0 0
      vertex 182.424 181.774 0
    endloop
  endfacet
  facet normal 1 0 0
    outer loop
      vertex 182.424 181.774 1.1
      vertex 182.424 0 1.1
      vertex 182.424 181.774 0
    endloop
  endfacet
  facet normal 0.965926 0.258819 0
    outer loop
      vertex 49.5 51 1.1
      vertex 49.701 50.25 1.1
      vertex 49.701 50.25 0
    endloop
  endfacet
  facet normal 0.965926 0.258819 0
    outer loop
      vertex 49.5 51 0
      vertex 49.5 51 1.1
      vertex 49.701 50.25 0
    endloop
  endfacet
  facet normal 0.965926 -0.258819 0
    outer loop
      vertex 49.701 51.75 0
      vertex 49.701 51.75 1.1
      vertex 49.5 51 1.1
    endloop
  endfacet
  facet normal 0.965926 -0.258819 0
    outer loop
      vertex 49.5 51 0
      vertex 49.701 51.75 0
      vertex 49.5 51 1.1
    endloop
  endfacet
  facet normal 0.707107 -0.707107 0
    outer loop
      vertex 50 52.049 0
      vertex 50 52.049 1.1
      vertex 49.701 51.75 1.1
    endloop
  endfacet
  facet normal 0.707107 -0.707107 0
    outer loop
      vertex 49.701 51.75 0
      vertex 50 52.049 0
      vertex 49.701 51.75 1.1
    endloop
  endfacet
  facet normal 1 0 0
    outer loop
      vertex 50 81.6237 0
      vertex 50 81.6237 1.1
      vertex 50 52.049 1.1
    endloop
  endfacet
  facet normal 1 0 0
    outer loop
      vertex 50 52.049 0
      vertex 50 81.6237 0
      vertex 50 52.049 1.1
    endloop
  endfacet
  facet normal 0 -1 0
    outer loop
      vertex 87 81.6237 0
      vertex 87 81.6237 1.1
      vertex 50 81.6237 1.1
    endloop
  endfacet
  facet normal 0 -1 0
    outer loop
      vertex 50 81.6237 0
      vertex 87 81.6237 0
      vertex 50 81.6237 1.1
    endloop
  endfacet
  facet normal 1 0 0
    outer loop
      vertex 87 87 0
      vertex 87 87 1.1
      vertex 87 81.6237 1.1
    endloop
  endfacet
  facet normal 1 0 0
    outer loop
      vertex 87 81.6237 0
      vertex 87 87 0
      vertex 87 81.6237 1.1
    endloop
  endfacet
  facet normal 0 -1 0
    outer loop
      vertex 117 87 0
      vertex 117 87 1.1
      vertex 87 87 1.1
    endloop
  endfacet
  facet normal 0 -1 0
    outer loop
      vertex 87 87 0
      vertex 117 87 0
      vertex 87 87 1.1
    endloop
  endfacet
  facet normal -1 0 0
    outer loop
      vertex 117 87 1.1
      vertex 117 87 0
      vertex 117 81.6237 1.1
    endloop
  endfacet
  facet normal -1 0 0
    outer loop
      vertex 117 81.6237 1.1
      vertex 117 87 0
      vertex 117 81.6237 0
    endloop
  endfacet
  facet normal 0 -1 0
    outer loop
      vertex 125.692 81.6237 0
      vertex 125.692 81.6237 1.1
      vertex 117 81.6237 1.1
    endloop
  endfacet
  facet normal 0 -1 0
    outer loop
      vertex 117 81.6237 0
      vertex 125.692 81.6237 0
      vertex 117 81.6237 1.1
    endloop
  endfacet
  facet normal 0.965926 -0.258819 0
    outer loop
      vertex 126.228 83.6238 0
      vertex 126.228 83.6238 1.1
      vertex 125.692 81.6237 1.1
    endloop
  endfacet
  facet normal 0.965926 -0.258819 0
    outer loop
      vertex 125.692 81.6237 0
      vertex 126.228 83.6238 0
      vertex 125.692 81.6237 1.1
    endloop
  endfacet
  facet normal 0.707107 -0.707107 0
    outer loop
      vertex 128.424 85.8199 0
      vertex 128.424 85.8199 1.1
      vertex 126.228 83.6238 1.1
    endloop
  endfacet
  facet normal 0.707107 -0.707107 0
    outer loop
      vertex 126.228 83.6238 0
      vertex 128.424 85.8199 0
      vertex 126.228 83.6238 1.1
    endloop
  endfacet
  facet normal 0.258819 -0.965926 0
    outer loop
      vertex 131.424 86.6238 0
      vertex 131.424 86.6238 1.1
      vertex 128.424 85.8199 1.1
    endloop
  endfacet
  facet normal 0.258819 -0.965926 0
    outer loop
      vertex 128.424 85.8199 0
      vertex 131.424 86.6238 0
      vertex 128.424 85.8199 1.1
    endloop
  endfacet
  facet normal -0.258819 -0.965926 0
    outer loop
      vertex 134.424 85.8199 0
      vertex 134.424 85.8199 1.1
      vertex 131.424 86.6238 1.1
    endloop
  endfacet
  facet normal -0.258819 -0.965926 0
    outer loop
      vertex 131.424 86.6238 0
      vertex 134.424 85.8199 0
      vertex 131.424 86.6238 1.1
    endloop
  endfacet
  facet normal -0.707107 -0.707107 0
    outer loop
      vertex 136.62 83.6238 0
      vertex 136.62 83.6238 1.1
      vertex 134.424 85.8199 1.1
    endloop
  endfacet
  facet normal -0.707107 -0.707107 0
    outer loop
      vertex 134.424 85.8199 0
      vertex 136.62 83.6238 0
      vertex 134.424 85.8199 1.1
    endloop
  endfacet
  facet normal -0.965926 -0.258819 0
    outer loop
      vertex 137.424 80.6238 1.1
      vertex 136.62 83.6238 1.1
      vertex 137.424 80.6238 0
    endloop
  endfacet
  facet normal -0.965926 -0.258819 0
    outer loop
      vertex 137.424 80.6238 0
      vertex 136.62 83.6238 1.1
      vertex 136.62 83.6238 0
    endloop
  endfacet
  facet normal -0.965926 0.258819 0
    outer loop
      vertex 137.424 80.6238 1.1
      vertex 137.424 80.6238 0
      vertex 136.62 77.6238 1.1
    endloop
  endfacet
  facet normal -0.965926 0.258819 0
    outer loop
      vertex 136.62 77.6238 1.1
      vertex 137.424 80.6238 0
      vertex 136.62 77.6238 0
    endloop
  endfacet
  facet normal -0.707107 0.707107 0
    outer loop
      vertex 136.62 77.6238 1.1
      vertex 136.62 77.6238 0
      vertex 134.424 75.4276 1.1
    endloop
  endfacet
  facet normal -0.707107 0.707107 0
    outer loop
      vertex 134.424 75.4276 1.1
      vertex 136.62 77.6238 0
      vertex 134.424 75.4276 0
    endloop
  endfacet
  facet normal -0.258819 0.965926 0
    outer loop
      vertex 134.424 75.4276 1.1
      vertex 134.424 75.4276 0
      vertex 132.424 74.8917 1.1
    endloop
  endfacet
  facet normal -0.258819 0.965926 0
    outer loop
      vertex 132.424 74.8917 1.1
      vertex 134.424 75.4276 0
      vertex 132.424 74.8917 0
    endloop
  endfacet
  facet normal -1 0 0
    outer loop
      vertex 132.424 74.8917 1.1
      vertex 132.424 74.8917 0
      vertex 132.424 53.175 1.1
    endloop
  endfacet
  facet normal -1 0 0
    outer loop
      vertex 132.424 53.175 1.1
      vertex 132.424 74.8917 0
      vertex 132.424 53.175 0
    endloop
  endfacet
  facet normal 0 1 0
    outer loop
      vertex 132.424 53.175 1.1
      vertex 132.424 53.175 0
      vertex 65.5 53.175 1.1
    endloop
  endfacet
  facet normal 0 1 0
    outer loop
      vertex 65.5 53.175 1.1
      vertex 132.424 53.175 0
      vertex 65.5 53.175 0
    endloop
  endfacet
  facet normal -1 0 0
    outer loop
      vertex 65.5 53.175 1.1
      vertex 65.5 53.175 0
      vertex 65.5 50 1.1
    endloop
  endfacet
  facet normal -1 0 0
    outer loop
      vertex 65.5 50 1.1
      vertex 65.5 53.175 0
      vertex 65.5 50 0
    endloop
  endfacet
  facet normal 0 1 0
    outer loop
      vertex 65.5 50 1.1
      vertex 65.5 50 0
      vertex 52.049 50 1.1
    endloop
  endfacet
  facet normal 0 1 0
    outer loop
      vertex 52.049 50 1.1
      vertex 65.5 50 0
      vertex 52.049 50 0
    endloop
  endfacet
  facet normal -0.707107 0.707107 0
    outer loop
      vertex 52.049 50 1.1
      vertex 52.049 50 0
      vertex 51.75 49.701 1.1
    endloop
  endfacet
  facet normal -0.707107 0.707107 0
    outer loop
      vertex 51.75 49.701 1.1
      vertex 52.049 50 0
      vertex 51.75 49.701 0
    endloop
  endfacet
  facet normal -0.258819 0.965926 0
    outer loop
      vertex 51.75 49.701 1.1
      vertex 51.75 49.701 0
      vertex 51 49.5 1.1
    endloop
  endfacet
  facet normal -0.258819 0.965926 0
    outer loop
      vertex 51 49.5 1.1
      vertex 51.75 49.701 0
      vertex 51 49.5 0
    endloop
  endfacet
  facet normal 0.258819 0.965926 0
    outer loop
      vertex 51 49.5 1.1
      vertex 51 49.5 0
      vertex 50.25 49.701 1.1
    endloop
  endfacet
  facet normal 0.258819 0.965926 0
    outer loop
      vertex 50.25 49.701 1.1
      vertex 51 49.5 0
      vertex 50.25 49.701 0
    endloop
  endfacet
  facet normal 0.707107 0.707107 0
    outer loop
      vertex 50.25 49.701 1.1
      vertex 50.25 49.701 0
      vertex 49.701 50.25 1.1
    endloop
  endfacet
  facet normal 0.707107 0.707107 0
    outer loop
      vertex 49.701 50.25 1.1
      vertex 50.25 49.701 0
      vertex 49.701 50.25 0
    endloop
  endfacet
  facet normal 0.965926 -0.258819 0
    outer loop
      vertex 49.701 101.9 0
      vertex 49.701 101.9 1.1
      vertex 49.5 101.15 1.1
    endloop
  endfacet
  facet normal 0.965926 -0.258819 0
    outer loop
      vertex 49.5 101.15 0
      vertex 49.701 101.9 0
      vertex 49.5 101.15 1.1
    endloop
  endfacet
  facet normal 0.965926 0.258819 0
    outer loop
      vertex 49.5 101.15 1.1
      vertex 49.701 100.4 1.1
      vertex 49.701 100.4 0
    endloop
  endfacet
  facet normal 0.965926 0.258819 0
    outer loop
      vertex 49.5 101.15 0
      vertex 49.5 101.15 1.1
      vertex 49.701 100.4 0
    endloop
  endfacet
  facet normal 0.707107 -0.707107 0
    outer loop
      vertex 50 102.199 0
      vertex 50 102.199 1.1
      vertex 49.701 101.9 1.1
    endloop
  endfacet
  facet normal 0.707107 -0.707107 0
    outer loop
      vertex 49.701 101.9 0
      vertex 50 102.199 0
      vertex 49.701 101.9 1.1
    endloop
  endfacet
  facet normal 1 0 0
    outer loop
      vertex 50 131.774 0
      vertex 50 131.774 1.1
      vertex 50 102.199 1.1
    endloop
  endfacet
  facet normal 1 0 0
    outer loop
      vertex 50 102.199 0
      vertex 50 131.774 0
      vertex 50 102.199 1.1
    endloop
  endfacet
  facet normal 0 -1 0
    outer loop
      vertex 87 131.774 0
      vertex 87 131.774 1.1
      vertex 50 131.774 1.1
    endloop
  endfacet
  facet normal 0 -1 0
    outer loop
      vertex 50 131.774 0
      vertex 87 131.774 0
      vertex 50 131.774 1.1
    endloop
  endfacet
  facet normal 1 0 0
    outer loop
      vertex 87 137.15 0
      vertex 87 137.15 1.1
      vertex 87 131.774 1.1
    endloop
  endfacet
  facet normal 1 0 0
    outer loop
      vertex 87 131.774 0
      vertex 87 137.15 0
      vertex 87 131.774 1.1
    endloop
  endfacet
  facet normal 0 -1 0
    outer loop
      vertex 117 137.15 0
      vertex 117 137.15 1.1
      vertex 87 137.15 1.1
    endloop
  endfacet
  facet normal 0 -1 0
    outer loop
      vertex 87 137.15 0
      vertex 117 137.15 0
      vertex 87 137.15 1.1
    endloop
  endfacet
  facet normal -1 0 0
    outer loop
      vertex 117 137.15 1.1
      vertex 117 137.15 0
      vertex 117 131.774 1.1
    endloop
  endfacet
  facet normal -1 0 0
    outer loop
      vertex 117 131.774 1.1
      vertex 117 137.15 0
      vertex 117 131.774 0
    endloop
  endfacet
  facet normal 0 -1 0
    outer loop
      vertex 125.692 131.774 0
      vertex 125.692 131.774 1.1
      vertex 117 131.774 1.1
    endloop
  endfacet
  facet normal 0 -1 0
    outer loop
      vertex 117 131.774 0
      vertex 125.692 131.774 0
      vertex 117 131.774 1.1
    endloop
  endfacet
  facet normal 0.965926 -0.258819 0
    outer loop
      vertex 126.228 133.774 0
      vertex 126.228 133.774 1.1
      vertex 125.692 131.774 1.1
    endloop
  endfacet
  facet normal 0.965926 -0.258819 0
    outer loop
      vertex 125.692 131.774 0
      vertex 126.228 133.774 0
      vertex 125.692 131.774 1.1
    endloop
  endfacet
  facet normal 0.707107 -0.707107 0
    outer loop
      vertex 128.424 135.97 0
      vertex 128.424 135.97 1.1
      vertex 126.228 133.774 1.1
    endloop
  endfacet
  facet normal 0.707107 -0.707107 0
    outer loop
      vertex 126.228 133.774 0
      vertex 128.424 135.97 0
      vertex 126.228 133.774 1.1
    endloop
  endfacet
  facet normal 0.258819 -0.965926 0
    outer loop
      vertex 131.424 136.774 0
      vertex 131.424 136.774 1.1
      vertex 128.424 135.97 1.1
    endloop
  endfacet
  facet normal 0.258819 -0.965926 0
    outer loop
      vertex 128.424 135.97 0
      vertex 131.424 136.774 0
      vertex 128.424 135.97 1.1
    endloop
  endfacet
  facet normal -0.258819 -0.965926 0
    outer loop
      vertex 134.424 135.97 0
      vertex 134.424 135.97 1.1
      vertex 131.424 136.774 1.1
    endloop
  endfacet
  facet normal -0.258819 -0.965926 0
    outer loop
      vertex 131.424 136.774 0
      vertex 134.424 135.97 0
      vertex 131.424 136.774 1.1
    endloop
  endfacet
  facet normal -0.707107 -0.707107 0
    outer loop
      vertex 136.62 133.774 0
      vertex 136.62 133.774 1.1
      vertex 134.424 135.97 1.1
    endloop
  endfacet
  facet normal -0.707107 -0.707107 0
    outer loop
      vertex 134.424 135.97 0
      vertex 136.62 133.774 0
      vertex 134.424 135.97 1.1
    endloop
  endfacet
  facet normal -0.965926 -0.258819 0
    outer loop
      vertex 137.424 130.774 1.1
      vertex 136.62 133.774 1.1
      vertex 137.424 130.774 0
    endloop
  endfacet
  facet normal -0.965926 -0.258819 0
    outer loop
      vertex 137.424 130.774 0
      vertex 136.62 133.774 1.1
      vertex 136.62 133.774 0
    endloop
  endfacet
  facet normal -0.965926 0.258819 0
    outer loop
      vertex 137.424 130.774 1.1
      vertex 137.424 130.774 0
      vertex 136.62 127.774 1.1
    endloop
  endfacet
  facet normal -0.965926 0.258819 0
    outer loop
      vertex 136.62 127.774 1.1
      vertex 137.424 130.774 0
      vertex 136.62 127.774 0
    endloop
  endfacet
  facet normal -0.707107 0.707107 0
    outer loop
      vertex 136.62 127.774 1.1
      vertex 136.62 127.774 0
      vertex 134.424 125.578 1.1
    endloop
  endfacet
  facet normal -0.707107 0.707107 0
    outer loop
      vertex 134.424 125.578 1.1
      vertex 136.62 127.774 0
      vertex 134.424 125.578 0
    endloop
  endfacet
  facet normal -0.258819 0.965926 0
    outer loop
      vertex 134.424 125.578 1.1
      vertex 134.424 125.578 0
      vertex 132.424 125.042 1.1
    endloop
  endfacet
  facet normal -0.258819 0.965926 0
    outer loop
      vertex 132.424 125.042 1.1
      vertex 134.424 125.578 0
      vertex 132.424 125.042 0
    endloop
  endfacet
  facet normal -1 0 0
    outer loop
      vertex 132.424 125.042 1.1
      vertex 132.424 125.042 0
      vertex 132.424 103.325 1.1
    endloop
  endfacet
  facet normal -1 0 0
    outer loop
      vertex 132.424 103.325 1.1
      vertex 132.424 125.042 0
      vertex 132.424 103.325 0
    endloop
  endfacet
  facet normal 0 1 0
    outer loop
      vertex 132.424 103.325 1.1
      vertex 132.424 103.325 0
      vertex 65.5 103.325 1.1
    endloop
  endfacet
  facet normal 0 1 0
    outer loop
      vertex 65.5 103.325 1.1
      vertex 132.424 103.325 0
      vertex 65.5 103.325 0
    endloop
  endfacet
  facet normal -1 0 0
    outer loop
      vertex 65.5 103.325 1.1
      vertex 65.5 103.325 0
      vertex 65.5 100.15 1.1
    endloop
  endfacet
  facet normal -1 0 0
    outer loop
      vertex 65.5 100.15 1.1
      vertex 65.5 103.325 0
      vertex 65.5 100.15 0
    endloop
  endfacet
  facet normal 0 1 0
    outer loop
      vertex 65.5 100.15 1.1
      vertex 65.5 100.15 0
      vertex 52.049 100.15 1.1
    endloop
  endfacet
  facet normal 0 1 0
    outer loop
      vertex 52.049 100.15 1.1
      vertex 65.5 100.15 0
      vertex 52.049 100.15 0
    endloop
  endfacet
  facet normal -0.707107 0.707107 0
    outer loop
      vertex 52.049 100.15 1.1
      vertex 52.049 100.15 0
      vertex 51.75 99.851 1.1
    endloop
  endfacet
  facet normal -0.707107 0.707107 0
    outer loop
      vertex 51.75 99.851 1.1
      vertex 52.049 100.15 0
      vertex 51.75 99.851 0
    endloop
  endfacet
  facet normal -0.258819 0.965926 0
    outer loop
      vertex 51.75 99.851 1.1
      vertex 51.75 99.851 0
      vertex 51 99.65 1.1
    endloop
  endfacet
  facet normal -0.258819 0.965926 0
    outer loop
      vertex 51 99.65 1.1
      vertex 51.75 99.851 0
      vertex 51 99.65 0
    endloop
  endfacet
  facet normal 0.258819 0.965926 0
    outer loop
      vertex 51 99.65 1.1
      vertex 51 99.65 0
      vertex 50.25 99.851 1.1
    endloop
  endfacet
  facet normal 0.258819 0.965926 0
    outer loop
      vertex 50.25 99.851 1.1
      vertex 51 99.65 0
      vertex 50.25 99.851 0
    endloop
  endfacet
  facet normal 0.707107 0.707107 0
    outer loop
      vertex 50.25 99.851 1.1
      vertex 50.25 99.851 0
      vertex 49.701 100.4 1.1
    endloop
  endfacet
  facet normal 0.707107 0.707107 0
    outer loop
      vertex 49.701 100.4 1.1
      vertex 50.25 99.851 0
      vertex 49.701 100.4 0
    endloop
  endfacet
endsolid OpenSCAD_Model
