solid OpenSCAD_Model
  facet normal -1 0 0
    outer loop
      vertex 0 0 0
      vertex 0 0 1.2
      vertex 0 181.774 0
    endloop
  endfacet
  facet normal -1 0 0
    outer loop
      vertex 0 181.774 0
      vertex 0 0 1.2
      vertex 0 181.774 1.2
    endloop
  endfacet
  facet normal 0 -1 0
    outer loop
      vertex 0 0 1.2
      vertex 0 0 0
      vertex 182.424 0 0
    endloop
  endfacet
  facet normal 0 -1 0
    outer loop
      vertex 182.424 0 1.2
      vertex 0 0 1.2
      vertex 182.424 0 0
    endloop
  endfacet
  facet normal 0 0 -1
    outer loop
      vertex 132.723 54.925 0
      vertex 182.424 181.774 0
      vertex 132.924 54.175 0
    endloop
  endfacet
  facet normal 0 0 -1
    outer loop
      vertex 50.25 49.701 0
      vertex 182.424 0 0
      vertex 0 0 0
    endloop
  endfacet
  facet normal 0 0 -1
    outer loop
      vertex 130.375 53.175 0
      vertex 182.424 0 0
      vertex 65.5 53.175 0
    endloop
  endfacet
  facet normal 0 0 -1
    outer loop
      vertex 0 181.774 0
      vertex 49.701 50.25 0
      vertex 0 0 0
    endloop
  endfacet
  facet normal 0 0 -1
    outer loop
      vertex 51 49.5 0
      vertex 182.424 0 0
      vertex 50.25 49.701 0
    endloop
  endfacet
  facet normal 0 0 -1
    outer loop
      vertex 49.701 50.25 0
      vertex 50.25 49.701 0
      vertex 0 0 0
    endloop
  endfacet
  facet normal 0 0 -1
    outer loop
      vertex 52.049 50 0
      vertex 182.424 0 0
      vertex 51.75 49.701 0
    endloop
  endfacet
  facet normal 0 0 -1
    outer loop
      vertex 65.5 50 0
      vertex 182.424 0 0
      vertex 52.049 50 0
    endloop
  endfacet
  facet normal 0 0 -1
    outer loop
      vertex 130.375 103.325 0
      vertex 131.424 82.1238 0
      vertex 130.674 81.9228 0
    endloop
  endfacet
  facet normal 0 0 -1
    outer loop
      vertex 65.5 53.175 0
      vertex 182.424 0 0
      vertex 65.5 50 0
    endloop
  endfacet
  facet normal 0 0 -1
    outer loop
      vertex 130.375 103.325 0
      vertex 130.674 81.9228 0
      vertex 130.375 81.6237 0
    endloop
  endfacet
  facet normal 0 0 -1
    outer loop
      vertex 50 81.6237 0
      vertex 65.5 100.15 0
      vertex 130.375 81.6237 0
    endloop
  endfacet
  facet normal 0 0 -1
    outer loop
      vertex 130.674 52.876 0
      vertex 182.424 0 0
      vertex 130.375 53.175 0
    endloop
  endfacet
  facet normal 0 0 -1
    outer loop
      vertex 131.424 52.675 0
      vertex 182.424 0 0
      vertex 130.674 52.876 0
    endloop
  endfacet
  facet normal 0 0 -1
    outer loop
      vertex 50 81.6237 0
      vertex 50.25 99.851 0
      vertex 51 99.65 0
    endloop
  endfacet
  facet normal 0 0 -1
    outer loop
      vertex 132.174 52.876 0
      vertex 182.424 0 0
      vertex 131.424 52.675 0
    endloop
  endfacet
  facet normal 0 0 -1
    outer loop
      vertex 132.723 53.425 0
      vertex 182.424 0 0
      vertex 132.174 52.876 0
    endloop
  endfacet
  facet normal 0 0 -1
    outer loop
      vertex 182.424 181.774 0
      vertex 182.424 0 0
      vertex 132.723 53.425 0
    endloop
  endfacet
  facet normal 0 0 -1
    outer loop
      vertex 182.424 181.774 0
      vertex 132.723 53.425 0
      vertex 132.924 54.175 0
    endloop
  endfacet
  facet normal 0 0 -1
    outer loop
      vertex 132.424 55.224 0
      vertex 182.424 181.774 0
      vertex 132.723 54.925 0
    endloop
  endfacet
  facet normal 0 0 -1
    outer loop
      vertex 132.424 79.5747 0
      vertex 132.723 79.8738 0
      vertex 132.424 55.224 0
    endloop
  endfacet
  facet normal 0 0 -1
    outer loop
      vertex 132.723 79.8738 0
      vertex 182.424 181.774 0
      vertex 132.424 55.224 0
    endloop
  endfacet
  facet normal 0 0 -1
    outer loop
      vertex 50 81.6237 0
      vertex 51 99.65 0
      vertex 51.75 99.851 0
    endloop
  endfacet
  facet normal 0 0 -1
    outer loop
      vertex 132.924 80.6238 0
      vertex 182.424 181.774 0
      vertex 132.723 79.8738 0
    endloop
  endfacet
  facet normal 0 0 -1
    outer loop
      vertex 50 81.6237 0
      vertex 49.701 100.4 0
      vertex 50.25 99.851 0
    endloop
  endfacet
  facet normal 0 0 -1
    outer loop
      vertex 182.424 181.774 0
      vertex 132.924 80.6238 0
      vertex 132.723 81.3738 0
    endloop
  endfacet
  facet normal 0 0 -1
    outer loop
      vertex 182.424 181.774 0
      vertex 132.723 81.3738 0
      vertex 132.174 81.9228 0
    endloop
  endfacet
  facet normal 0 0 -1
    outer loop
      vertex 132.924 104.325 0
      vertex 182.424 181.774 0
      vertex 132.723 103.575 0
    endloop
  endfacet
  facet normal 0 0 -1
    outer loop
      vertex 50 81.6237 0
      vertex 0 181.774 0
      vertex 49.701 100.4 0
    endloop
  endfacet
  facet normal 0 0 -1
    outer loop
      vertex 50 52.049 0
      vertex 0 181.774 0
      vertex 50 81.6237 0
    endloop
  endfacet
  facet normal 0 0 -1
    outer loop
      vertex 130.375 103.325 0
      vertex 130.375 81.6237 0
      vertex 65.5 103.325 0
    endloop
  endfacet
  facet normal 0 0 -1
    outer loop
      vertex 130.375 103.325 0
      vertex 132.174 81.9228 0
      vertex 131.424 82.1238 0
    endloop
  endfacet
  facet normal 0 0 -1
    outer loop
      vertex 0 181.774 0
      vertex 50 52.049 0
      vertex 49.701 51.75 0
    endloop
  endfacet
  facet normal 0 0 -1
    outer loop
      vertex 0 181.774 0
      vertex 49.701 51.75 0
      vertex 49.5 51 0
    endloop
  endfacet
  facet normal 0 0 -1
    outer loop
      vertex 0 181.774 0
      vertex 49.5 51 0
      vertex 49.701 50.25 0
    endloop
  endfacet
  facet normal 0 0 -1
    outer loop
      vertex 65.5 100.15 0
      vertex 65.5 103.325 0
      vertex 130.375 81.6237 0
    endloop
  endfacet
  facet normal 0 0 -1
    outer loop
      vertex 50 81.6237 0
      vertex 52.049 100.15 0
      vertex 65.5 100.15 0
    endloop
  endfacet
  facet normal 0 0 -1
    outer loop
      vertex 50 81.6237 0
      vertex 51.75 99.851 0
      vertex 52.049 100.15 0
    endloop
  endfacet
  facet normal 0 0 -1
    outer loop
      vertex 130.674 103.026 0
      vertex 132.174 81.9228 0
      vertex 130.375 103.325 0
    endloop
  endfacet
  facet normal 0 0 -1
    outer loop
      vertex 131.424 102.825 0
      vertex 132.174 81.9228 0
      vertex 130.674 103.026 0
    endloop
  endfacet
  facet normal 0 0 -1
    outer loop
      vertex 132.174 103.026 0
      vertex 132.174 81.9228 0
      vertex 131.424 102.825 0
    endloop
  endfacet
  facet normal 0 0 -1
    outer loop
      vertex 132.723 103.575 0
      vertex 132.174 81.9228 0
      vertex 132.174 103.026 0
    endloop
  endfacet
  facet normal 0 0 -1
    outer loop
      vertex 182.424 181.774 0
      vertex 132.174 81.9228 0
      vertex 132.723 103.575 0
    endloop
  endfacet
  facet normal 0 0 -1
    outer loop
      vertex 132.723 105.075 0
      vertex 182.424 181.774 0
      vertex 132.924 104.325 0
    endloop
  endfacet
  facet normal 0 0 -1
    outer loop
      vertex 132.424 129.725 0
      vertex 132.723 130.024 0
      vertex 132.424 105.374 0
    endloop
  endfacet
  facet normal 0 0 -1
    outer loop
      vertex 132.723 130.024 0
      vertex 182.424 181.774 0
      vertex 132.424 105.374 0
    endloop
  endfacet
  facet normal 0 0 -1
    outer loop
      vertex 182.424 181.774 0
      vertex 132.723 105.075 0
      vertex 132.424 105.374 0
    endloop
  endfacet
  facet normal 0 0 -1
    outer loop
      vertex 132.924 130.774 0
      vertex 182.424 181.774 0
      vertex 132.723 130.024 0
    endloop
  endfacet
  facet normal 0 0 -1
    outer loop
      vertex 130.674 132.073 0
      vertex 0 181.774 0
      vertex 131.424 132.274 0
    endloop
  endfacet
  facet normal 0 0 -1
    outer loop
      vertex 182.424 181.774 0
      vertex 132.924 130.774 0
      vertex 132.723 131.524 0
    endloop
  endfacet
  facet normal 0 0 -1
    outer loop
      vertex 182.424 181.774 0
      vertex 132.723 131.524 0
      vertex 132.174 132.073 0
    endloop
  endfacet
  facet normal 0 0 -1
    outer loop
      vertex 182.424 181.774 0
      vertex 132.174 132.073 0
      vertex 0 181.774 0
    endloop
  endfacet
  facet normal 0 0 -1
    outer loop
      vertex 132.174 132.073 0
      vertex 131.424 132.274 0
      vertex 0 181.774 0
    endloop
  endfacet
  facet normal 0 0 -1
    outer loop
      vertex 50 131.774 0
      vertex 0 181.774 0
      vertex 130.375 131.774 0
    endloop
  endfacet
  facet normal 0 0 -1
    outer loop
      vertex 130.674 132.073 0
      vertex 130.375 131.774 0
      vertex 0 181.774 0
    endloop
  endfacet
  facet normal 0 0 -1
    outer loop
      vertex 49.5 101.15 0
      vertex 0 181.774 0
      vertex 49.701 101.9 0
    endloop
  endfacet
  facet normal 0 0 -1
    outer loop
      vertex 0 181.774 0
      vertex 50 102.199 0
      vertex 49.701 101.9 0
    endloop
  endfacet
  facet normal 0 0 -1
    outer loop
      vertex 0 181.774 0
      vertex 49.5 101.15 0
      vertex 49.701 100.4 0
    endloop
  endfacet
  facet normal 0 0 -1
    outer loop
      vertex 51.75 49.701 0
      vertex 182.424 0 0
      vertex 51 49.5 0
    endloop
  endfacet
  facet normal 0 0 -1
    outer loop
      vertex 50 102.199 0
      vertex 0 181.774 0
      vertex 50 131.774 0
    endloop
  endfacet
  facet normal 0 1 0
    outer loop
      vertex 0 181.774 0
      vertex 0 181.774 1.2
      vertex 182.424 181.774 0
    endloop
  endfacet
  facet normal 0 1 0
    outer loop
      vertex 182.424 181.774 0
      vertex 0 181.774 1.2
      vertex 182.424 181.774 1.2
    endloop
  endfacet
  facet normal 0 0 1
    outer loop
      vertex 130.674 132.073 1.2
      vertex 182.424 181.774 1.2
      vertex 0 181.774 1.2
    endloop
  endfacet
  facet normal 0 0 1
    outer loop
      vertex 0 0 1.2
      vertex 49.5 51 1.2
      vertex 0 181.774 1.2
    endloop
  endfacet
  facet normal 0 0 1
    outer loop
      vertex 49.5 51 1.2
      vertex 49.701 51.75 1.2
      vertex 0 181.774 1.2
    endloop
  endfacet
  facet normal 0 0 1
    outer loop
      vertex 51.75 49.701 1.2
      vertex 51 49.5 1.2
      vertex 0 0 1.2
    endloop
  endfacet
  facet normal 0 0 1
    outer loop
      vertex 49.701 51.75 1.2
      vertex 50 52.049 1.2
      vertex 0 181.774 1.2
    endloop
  endfacet
  facet normal 0 0 1
    outer loop
      vertex 50 52.049 1.2
      vertex 50 81.6237 1.2
      vertex 0 181.774 1.2
    endloop
  endfacet
  facet normal 0 0 1
    outer loop
      vertex 130.674 81.9228 1.2
      vertex 182.424 181.774 1.2
      vertex 130.375 81.6237 1.2
    endloop
  endfacet
  facet normal 0 0 1
    outer loop
      vertex 131.424 82.1238 1.2
      vertex 182.424 181.774 1.2
      vertex 130.674 81.9228 1.2
    endloop
  endfacet
  facet normal 0 0 1
    outer loop
      vertex 132.174 81.9228 1.2
      vertex 182.424 181.774 1.2
      vertex 131.424 82.1238 1.2
    endloop
  endfacet
  facet normal 0 0 1
    outer loop
      vertex 132.723 81.3738 1.2
      vertex 182.424 181.774 1.2
      vertex 132.174 81.9228 1.2
    endloop
  endfacet
  facet normal 0 0 1
    outer loop
      vertex 132.924 80.6238 1.2
      vertex 132.723 79.8738 1.2
      vertex 182.424 0 1.2
    endloop
  endfacet
  facet normal 0 0 1
    outer loop
      vertex 182.424 0 1.2
      vertex 182.424 181.774 1.2
      vertex 132.723 81.3738 1.2
    endloop
  endfacet
  facet normal 0 0 1
    outer loop
      vertex 65.5 50 1.2
      vertex 52.049 50 1.2
      vertex 182.424 0 1.2
    endloop
  endfacet
  facet normal 0 0 1
    outer loop
      vertex 182.424 0 1.2
      vertex 132.723 79.8738 1.2
      vertex 132.424 79.5747 1.2
    endloop
  endfacet
  facet normal 0 0 1
    outer loop
      vertex 132.723 81.3738 1.2
      vertex 132.924 80.6238 1.2
      vertex 182.424 0 1.2
    endloop
  endfacet
  facet normal 0 0 1
    outer loop
      vertex 130.375 53.175 1.2
      vertex 65.5 53.175 1.2
      vertex 182.424 0 1.2
    endloop
  endfacet
  facet normal 0 0 1
    outer loop
      vertex 132.723 54.925 1.2
      vertex 132.924 54.175 1.2
      vertex 182.424 0 1.2
    endloop
  endfacet
  facet normal 0 0 1
    outer loop
      vertex 132.424 79.5747 1.2
      vertex 132.723 54.925 1.2
      vertex 182.424 0 1.2
    endloop
  endfacet
  facet normal 0 0 1
    outer loop
      vertex 132.424 79.5747 1.2
      vertex 132.424 55.224 1.2
      vertex 132.723 54.925 1.2
    endloop
  endfacet
  facet normal 0 0 1
    outer loop
      vertex 182.424 0 1.2
      vertex 132.924 54.175 1.2
      vertex 132.723 53.425 1.2
    endloop
  endfacet
  facet normal 0 0 1
    outer loop
      vertex 132.723 130.024 1.2
      vertex 132.424 105.374 1.2
      vertex 132.924 130.774 1.2
    endloop
  endfacet
  facet normal 0 0 1
    outer loop
      vertex 182.424 0 1.2
      vertex 132.723 53.425 1.2
      vertex 132.174 52.876 1.2
    endloop
  endfacet
  facet normal 0 0 1
    outer loop
      vertex 132.424 129.725 1.2
      vertex 132.424 105.374 1.2
      vertex 132.723 130.024 1.2
    endloop
  endfacet
  facet normal 0 0 1
    outer loop
      vertex 182.424 0 1.2
      vertex 132.174 52.876 1.2
      vertex 131.424 52.675 1.2
    endloop
  endfacet
  facet normal 0 0 1
    outer loop
      vertex 182.424 0 1.2
      vertex 131.424 52.675 1.2
      vertex 130.674 52.876 1.2
    endloop
  endfacet
  facet normal 0 0 1
    outer loop
      vertex 65.5 50 1.2
      vertex 182.424 0 1.2
      vertex 65.5 53.175 1.2
    endloop
  endfacet
  facet normal 0 0 1
    outer loop
      vertex 51.75 49.701 1.2
      vertex 182.424 0 1.2
      vertex 52.049 50 1.2
    endloop
  endfacet
  facet normal 0 0 1
    outer loop
      vertex 50 131.774 1.2
      vertex 130.375 131.774 1.2
      vertex 0 181.774 1.2
    endloop
  endfacet
  facet normal 0 0 1
    outer loop
      vertex 0 0 1.2
      vertex 182.424 0 1.2
      vertex 51.75 49.701 1.2
    endloop
  endfacet
  facet normal 0 0 1
    outer loop
      vertex 0 0 1.2
      vertex 51 49.5 1.2
      vertex 50.25 49.701 1.2
    endloop
  endfacet
  facet normal 0 0 1
    outer loop
      vertex 0 0 1.2
      vertex 49.701 50.25 1.2
      vertex 49.5 51 1.2
    endloop
  endfacet
  facet normal 0 0 1
    outer loop
      vertex 0 0 1.2
      vertex 50.25 49.701 1.2
      vertex 49.701 50.25 1.2
    endloop
  endfacet
  facet normal 0 0 1
    outer loop
      vertex 50 81.6237 1.2
      vertex 49.5 101.15 1.2
      vertex 0 181.774 1.2
    endloop
  endfacet
  facet normal 0 0 1
    outer loop
      vertex 49.5 101.15 1.2
      vertex 49.701 101.9 1.2
      vertex 0 181.774 1.2
    endloop
  endfacet
  facet normal 0 0 1
    outer loop
      vertex 49.701 101.9 1.2
      vertex 50 102.199 1.2
      vertex 0 181.774 1.2
    endloop
  endfacet
  facet normal 0 0 1
    outer loop
      vertex 50 102.199 1.2
      vertex 50 131.774 1.2
      vertex 0 181.774 1.2
    endloop
  endfacet
  facet normal 0 0 1
    outer loop
      vertex 130.375 131.774 1.2
      vertex 130.674 132.073 1.2
      vertex 0 181.774 1.2
    endloop
  endfacet
  facet normal 0 0 1
    outer loop
      vertex 132.174 132.073 1.2
      vertex 182.424 181.774 1.2
      vertex 131.424 132.274 1.2
    endloop
  endfacet
  facet normal 0 0 1
    outer loop
      vertex 132.723 131.524 1.2
      vertex 182.424 181.774 1.2
      vertex 132.174 132.073 1.2
    endloop
  endfacet
  facet normal 0 0 1
    outer loop
      vertex 132.924 130.774 1.2
      vertex 182.424 181.774 1.2
      vertex 132.723 131.524 1.2
    endloop
  endfacet
  facet normal 0 0 1
    outer loop
      vertex 132.424 105.374 1.2
      vertex 182.424 181.774 1.2
      vertex 132.924 130.774 1.2
    endloop
  endfacet
  facet normal 0 0 1
    outer loop
      vertex 131.424 102.825 1.2
      vertex 130.674 103.026 1.2
      vertex 130.375 81.6237 1.2
    endloop
  endfacet
  facet normal 0 0 1
    outer loop
      vertex 130.375 103.325 1.2
      vertex 65.5 103.325 1.2
      vertex 130.375 81.6237 1.2
    endloop
  endfacet
  facet normal 0 0 1
    outer loop
      vertex 132.174 103.026 1.2
      vertex 131.424 102.825 1.2
      vertex 130.375 81.6237 1.2
    endloop
  endfacet
  facet normal 0 0 1
    outer loop
      vertex 132.723 105.075 1.2
      vertex 182.424 181.774 1.2
      vertex 132.424 105.374 1.2
    endloop
  endfacet
  facet normal 0 0 1
    outer loop
      vertex 132.924 104.325 1.2
      vertex 182.424 181.774 1.2
      vertex 132.723 105.075 1.2
    endloop
  endfacet
  facet normal 0 0 1
    outer loop
      vertex 130.375 81.6237 1.2
      vertex 182.424 181.774 1.2
      vertex 132.924 104.325 1.2
    endloop
  endfacet
  facet normal 0 0 1
    outer loop
      vertex 130.375 81.6237 1.2
      vertex 132.924 104.325 1.2
      vertex 132.723 103.575 1.2
    endloop
  endfacet
  facet normal 0 0 1
    outer loop
      vertex 132.723 103.575 1.2
      vertex 132.174 103.026 1.2
      vertex 130.375 81.6237 1.2
    endloop
  endfacet
  facet normal 0 0 1
    outer loop
      vertex 130.375 81.6237 1.2
      vertex 130.674 103.026 1.2
      vertex 130.375 103.325 1.2
    endloop
  endfacet
  facet normal 0 0 1
    outer loop
      vertex 50 81.6237 1.2
      vertex 51 99.65 1.2
      vertex 50.25 99.851 1.2
    endloop
  endfacet
  facet normal 0 0 1
    outer loop
      vertex 50 81.6237 1.2
      vertex 49.701 100.4 1.2
      vertex 49.5 101.15 1.2
    endloop
  endfacet
  facet normal 0 0 1
    outer loop
      vertex 50 81.6237 1.2
      vertex 50.25 99.851 1.2
      vertex 49.701 100.4 1.2
    endloop
  endfacet
  facet normal 0 0 1
    outer loop
      vertex 130.375 53.175 1.2
      vertex 182.424 0 1.2
      vertex 130.674 52.876 1.2
    endloop
  endfacet
  facet normal 0 0 1
    outer loop
      vertex 50 81.6237 1.2
      vertex 51.75 99.851 1.2
      vertex 51 99.65 1.2
    endloop
  endfacet
  facet normal 0 0 1
    outer loop
      vertex 50 81.6237 1.2
      vertex 52.049 100.15 1.2
      vertex 51.75 99.851 1.2
    endloop
  endfacet
  facet normal 0 0 1
    outer loop
      vertex 50 81.6237 1.2
      vertex 65.5 100.15 1.2
      vertex 52.049 100.15 1.2
    endloop
  endfacet
  facet normal 0 0 1
    outer loop
      vertex 130.674 132.073 1.2
      vertex 131.424 132.274 1.2
      vertex 182.424 181.774 1.2
    endloop
  endfacet
  facet normal 0 0 1
    outer loop
      vertex 65.5 100.15 1.2
      vertex 130.375 81.6237 1.2
      vertex 65.5 103.325 1.2
    endloop
  endfacet
  facet normal 0 0 1
    outer loop
      vertex 50 81.6237 1.2
      vertex 130.375 81.6237 1.2
      vertex 65.5 100.15 1.2
    endloop
  endfacet
  facet normal 1 0 0
    outer loop
      vertex 182.424 0 1.2
      vertex 182.424 0 0
      vertex 182.424 181.774 0
    endloop
  endfacet
  facet normal 1 0 0
    outer loop
      vertex 182.424 181.774 1.2
      vertex 182.424 0 1.2
      vertex 182.424 181.774 0
    endloop
  endfacet
  facet normal 0.965926 0.258819 0
    outer loop
      vertex 49.5 51 1.2
      vertex 49.701 50.25 1.2
      vertex 49.701 50.25 0
    endloop
  endfacet
  facet normal 0.965926 0.258819 0
    outer loop
      vertex 49.5 51 0
      vertex 49.5 51 1.2
      vertex 49.701 50.25 0
    endloop
  endfacet
  facet normal 0.707107 0.707107 0
    outer loop
      vertex 50.25 49.701 1.2
      vertex 50.25 49.701 0
      vertex 49.701 50.25 1.2
    endloop
  endfacet
  facet normal 0.707107 0.707107 0
    outer loop
      vertex 49.701 50.25 1.2
      vertex 50.25 49.701 0
      vertex 49.701 50.25 0
    endloop
  endfacet
  facet normal 0.965926 -0.258819 0
    outer loop
      vertex 49.701 51.75 0
      vertex 49.701 51.75 1.2
      vertex 49.5 51 1.2
    endloop
  endfacet
  facet normal 0.965926 -0.258819 0
    outer loop
      vertex 49.5 51 0
      vertex 49.701 51.75 0
      vertex 49.5 51 1.2
    endloop
  endfacet
  facet normal 0.707107 -0.707107 0
    outer loop
      vertex 50 52.049 0
      vertex 50 52.049 1.2
      vertex 49.701 51.75 1.2
    endloop
  endfacet
  facet normal 0.707107 -0.707107 0
    outer loop
      vertex 49.701 51.75 0
      vertex 50 52.049 0
      vertex 49.701 51.75 1.2
    endloop
  endfacet
  facet normal 1 0 0
    outer loop
      vertex 50 81.6237 0
      vertex 50 81.6237 1.2
      vertex 50 52.049 1.2
    endloop
  endfacet
  facet normal 1 0 0
    outer loop
      vertex 50 52.049 0
      vertex 50 81.6237 0
      vertex 50 52.049 1.2
    endloop
  endfacet
  facet normal 0 -1 0
    outer loop
      vertex 130.375 81.6237 0
      vertex 130.375 81.6237 1.2
      vertex 50 81.6237 1.2
    endloop
  endfacet
  facet normal 0 -1 0
    outer loop
      vertex 50 81.6237 0
      vertex 130.375 81.6237 0
      vertex 50 81.6237 1.2
    endloop
  endfacet
  facet normal 0.707107 -0.707107 0
    outer loop
      vertex 130.674 81.9228 0
      vertex 130.674 81.9228 1.2
      vertex 130.375 81.6237 1.2
    endloop
  endfacet
  facet normal 0.707107 -0.707107 0
    outer loop
      vertex 130.375 81.6237 0
      vertex 130.674 81.9228 0
      vertex 130.375 81.6237 1.2
    endloop
  endfacet
  facet normal 0.258819 -0.965926 0
    outer loop
      vertex 131.424 82.1238 0
      vertex 131.424 82.1238 1.2
      vertex 130.674 81.9228 1.2
    endloop
  endfacet
  facet normal 0.258819 -0.965926 0
    outer loop
      vertex 130.674 81.9228 0
      vertex 131.424 82.1238 0
      vertex 130.674 81.9228 1.2
    endloop
  endfacet
  facet normal -0.258819 -0.965926 0
    outer loop
      vertex 132.174 81.9228 0
      vertex 132.174 81.9228 1.2
      vertex 131.424 82.1238 1.2
    endloop
  endfacet
  facet normal -0.258819 -0.965926 0
    outer loop
      vertex 131.424 82.1238 0
      vertex 132.174 81.9228 0
      vertex 131.424 82.1238 1.2
    endloop
  endfacet
  facet normal -0.707107 -0.707107 0
    outer loop
      vertex 132.723 81.3738 0
      vertex 132.723 81.3738 1.2
      vertex 132.174 81.9228 1.2
    endloop
  endfacet
  facet normal -0.707107 -0.707107 0
    outer loop
      vertex 132.174 81.9228 0
      vertex 132.723 81.3738 0
      vertex 132.174 81.9228 1.2
    endloop
  endfacet
  facet normal -0.965926 -0.258819 0
    outer loop
      vertex 132.924 80.6238 1.2
      vertex 132.723 81.3738 1.2
      vertex 132.924 80.6238 0
    endloop
  endfacet
  facet normal -0.965926 -0.258819 0
    outer loop
      vertex 132.924 80.6238 0
      vertex 132.723 81.3738 1.2
      vertex 132.723 81.3738 0
    endloop
  endfacet
  facet normal -0.965926 0.258819 0
    outer loop
      vertex 132.924 80.6238 1.2
      vertex 132.924 80.6238 0
      vertex 132.723 79.8738 1.2
    endloop
  endfacet
  facet normal -0.965926 0.258819 0
    outer loop
      vertex 132.723 79.8738 1.2
      vertex 132.924 80.6238 0
      vertex 132.723 79.8738 0
    endloop
  endfacet
  facet normal -0.707107 0.707107 0
    outer loop
      vertex 132.723 79.8738 1.2
      vertex 132.723 79.8738 0
      vertex 132.424 79.5747 1.2
    endloop
  endfacet
  facet normal -0.707107 0.707107 0
    outer loop
      vertex 132.424 79.5747 1.2
      vertex 132.723 79.8738 0
      vertex 132.424 79.5747 0
    endloop
  endfacet
  facet normal -1 0 0
    outer loop
      vertex 132.424 79.5747 1.2
      vertex 132.424 79.5747 0
      vertex 132.424 55.224 1.2
    endloop
  endfacet
  facet normal -1 0 0
    outer loop
      vertex 132.424 55.224 1.2
      vertex 132.424 79.5747 0
      vertex 132.424 55.224 0
    endloop
  endfacet
  facet normal -0.707107 -0.707107 0
    outer loop
      vertex 132.723 54.925 0
      vertex 132.723 54.925 1.2
      vertex 132.424 55.224 1.2
    endloop
  endfacet
  facet normal -0.707107 -0.707107 0
    outer loop
      vertex 132.424 55.224 0
      vertex 132.723 54.925 0
      vertex 132.424 55.224 1.2
    endloop
  endfacet
  facet normal -0.965926 -0.258819 0
    outer loop
      vertex 132.924 54.175 1.2
      vertex 132.723 54.925 1.2
      vertex 132.924 54.175 0
    endloop
  endfacet
  facet normal -0.965926 -0.258819 0
    outer loop
      vertex 132.924 54.175 0
      vertex 132.723 54.925 1.2
      vertex 132.723 54.925 0
    endloop
  endfacet
  facet normal -0.965926 0.258819 0
    outer loop
      vertex 132.924 54.175 1.2
      vertex 132.924 54.175 0
      vertex 132.723 53.425 1.2
    endloop
  endfacet
  facet normal -0.965926 0.258819 0
    outer loop
      vertex 132.723 53.425 1.2
      vertex 132.924 54.175 0
      vertex 132.723 53.425 0
    endloop
  endfacet
  facet normal -0.707107 0.707107 0
    outer loop
      vertex 132.723 53.425 1.2
      vertex 132.723 53.425 0
      vertex 132.174 52.876 1.2
    endloop
  endfacet
  facet normal -0.707107 0.707107 0
    outer loop
      vertex 132.174 52.876 1.2
      vertex 132.723 53.425 0
      vertex 132.174 52.876 0
    endloop
  endfacet
  facet normal -0.258819 0.965926 0
    outer loop
      vertex 132.174 52.876 1.2
      vertex 132.174 52.876 0
      vertex 131.424 52.675 1.2
    endloop
  endfacet
  facet normal -0.258819 0.965926 0
    outer loop
      vertex 131.424 52.675 1.2
      vertex 132.174 52.876 0
      vertex 131.424 52.675 0
    endloop
  endfacet
  facet normal 0.258819 0.965926 0
    outer loop
      vertex 131.424 52.675 1.2
      vertex 131.424 52.675 0
      vertex 130.674 52.876 1.2
    endloop
  endfacet
  facet normal 0.258819 0.965926 0
    outer loop
      vertex 130.674 52.876 1.2
      vertex 131.424 52.675 0
      vertex 130.674 52.876 0
    endloop
  endfacet
  facet normal 0.707107 0.707107 0
    outer loop
      vertex 130.674 52.876 1.2
      vertex 130.674 52.876 0
      vertex 130.375 53.175 1.2
    endloop
  endfacet
  facet normal 0.707107 0.707107 0
    outer loop
      vertex 130.375 53.175 1.2
      vertex 130.674 52.876 0
      vertex 130.375 53.175 0
    endloop
  endfacet
  facet normal 0 1 0
    outer loop
      vertex 130.375 53.175 1.2
      vertex 130.375 53.175 0
      vertex 65.5 53.175 1.2
    endloop
  endfacet
  facet normal 0 1 0
    outer loop
      vertex 65.5 53.175 1.2
      vertex 130.375 53.175 0
      vertex 65.5 53.175 0
    endloop
  endfacet
  facet normal -1 0 0
    outer loop
      vertex 65.5 53.175 1.2
      vertex 65.5 53.175 0
      vertex 65.5 50 1.2
    endloop
  endfacet
  facet normal -1 0 0
    outer loop
      vertex 65.5 50 1.2
      vertex 65.5 53.175 0
      vertex 65.5 50 0
    endloop
  endfacet
  facet normal 0 1 0
    outer loop
      vertex 65.5 50 1.2
      vertex 65.5 50 0
      vertex 52.049 50 1.2
    endloop
  endfacet
  facet normal 0 1 0
    outer loop
      vertex 52.049 50 1.2
      vertex 65.5 50 0
      vertex 52.049 50 0
    endloop
  endfacet
  facet normal -0.707107 0.707107 0
    outer loop
      vertex 52.049 50 1.2
      vertex 52.049 50 0
      vertex 51.75 49.701 1.2
    endloop
  endfacet
  facet normal -0.707107 0.707107 0
    outer loop
      vertex 51.75 49.701 1.2
      vertex 52.049 50 0
      vertex 51.75 49.701 0
    endloop
  endfacet
  facet normal -0.258819 0.965926 0
    outer loop
      vertex 51.75 49.701 1.2
      vertex 51.75 49.701 0
      vertex 51 49.5 1.2
    endloop
  endfacet
  facet normal -0.258819 0.965926 0
    outer loop
      vertex 51 49.5 1.2
      vertex 51.75 49.701 0
      vertex 51 49.5 0
    endloop
  endfacet
  facet normal 0.258819 0.965926 0
    outer loop
      vertex 51 49.5 1.2
      vertex 51 49.5 0
      vertex 50.25 49.701 1.2
    endloop
  endfacet
  facet normal 0.258819 0.965926 0
    outer loop
      vertex 50.25 49.701 1.2
      vertex 51 49.5 0
      vertex 50.25 49.701 0
    endloop
  endfacet
  facet normal 0.965926 0.258819 0
    outer loop
      vertex 49.5 101.15 1.2
      vertex 49.701 100.4 1.2
      vertex 49.701 100.4 0
    endloop
  endfacet
  facet normal 0.965926 0.258819 0
    outer loop
      vertex 49.5 101.15 0
      vertex 49.5 101.15 1.2
      vertex 49.701 100.4 0
    endloop
  endfacet
  facet normal 0.707107 0.707107 0
    outer loop
      vertex 50.25 99.851 1.2
      vertex 50.25 99.851 0
      vertex 49.701 100.4 1.2
    endloop
  endfacet
  facet normal 0.707107 0.707107 0
    outer loop
      vertex 49.701 100.4 1.2
      vertex 50.25 99.851 0
      vertex 49.701 100.4 0
    endloop
  endfacet
  facet normal 0.965926 -0.258819 0
    outer loop
      vertex 49.701 101.9 0
      vertex 49.701 101.9 1.2
      vertex 49.5 101.15 1.2
    endloop
  endfacet
  facet normal 0.965926 -0.258819 0
    outer loop
      vertex 49.5 101.15 0
      vertex 49.701 101.9 0
      vertex 49.5 101.15 1.2
    endloop
  endfacet
  facet normal 0.707107 -0.707107 0
    outer loop
      vertex 50 102.199 0
      vertex 50 102.199 1.2
      vertex 49.701 101.9 1.2
    endloop
  endfacet
  facet normal 0.707107 -0.707107 0
    outer loop
      vertex 49.701 101.9 0
      vertex 50 102.199 0
      vertex 49.701 101.9 1.2
    endloop
  endfacet
  facet normal 1 0 0
    outer loop
      vertex 50 131.774 0
      vertex 50 131.774 1.2
      vertex 50 102.199 1.2
    endloop
  endfacet
  facet normal 1 0 0
    outer loop
      vertex 50 102.199 0
      vertex 50 131.774 0
      vertex 50 102.199 1.2
    endloop
  endfacet
  facet normal 0 -1 0
    outer loop
      vertex 130.375 131.774 0
      vertex 130.375 131.774 1.2
      vertex 50 131.774 1.2
    endloop
  endfacet
  facet normal 0 -1 0
    outer loop
      vertex 50 131.774 0
      vertex 130.375 131.774 0
      vertex 50 131.774 1.2
    endloop
  endfacet
  facet normal 0.707107 -0.707107 0
    outer loop
      vertex 130.674 132.073 0
      vertex 130.674 132.073 1.2
      vertex 130.375 131.774 1.2
    endloop
  endfacet
  facet normal 0.707107 -0.707107 0
    outer loop
      vertex 130.375 131.774 0
      vertex 130.674 132.073 0
      vertex 130.375 131.774 1.2
    endloop
  endfacet
  facet normal 0.258819 -0.965926 0
    outer loop
      vertex 131.424 132.274 0
      vertex 131.424 132.274 1.2
      vertex 130.674 132.073 1.2
    endloop
  endfacet
  facet normal 0.258819 -0.965926 0
    outer loop
      vertex 130.674 132.073 0
      vertex 131.424 132.274 0
      vertex 130.674 132.073 1.2
    endloop
  endfacet
  facet normal -0.258819 -0.965926 0
    outer loop
      vertex 132.174 132.073 0
      vertex 132.174 132.073 1.2
      vertex 131.424 132.274 1.2
    endloop
  endfacet
  facet normal -0.258819 -0.965926 0
    outer loop
      vertex 131.424 132.274 0
      vertex 132.174 132.073 0
      vertex 131.424 132.274 1.2
    endloop
  endfacet
  facet normal -0.707107 -0.707107 0
    outer loop
      vertex 132.723 131.524 0
      vertex 132.723 131.524 1.2
      vertex 132.174 132.073 1.2
    endloop
  endfacet
  facet normal -0.707107 -0.707107 0
    outer loop
      vertex 132.174 132.073 0
      vertex 132.723 131.524 0
      vertex 132.174 132.073 1.2
    endloop
  endfacet
  facet normal -0.965926 -0.258819 0
    outer loop
      vertex 132.924 130.774 1.2
      vertex 132.723 131.524 1.2
      vertex 132.924 130.774 0
    endloop
  endfacet
  facet normal -0.965926 -0.258819 0
    outer loop
      vertex 132.924 130.774 0
      vertex 132.723 131.524 1.2
      vertex 132.723 131.524 0
    endloop
  endfacet
  facet normal -0.965926 0.258819 0
    outer loop
      vertex 132.924 130.774 1.2
      vertex 132.924 130.774 0
      vertex 132.723 130.024 1.2
    endloop
  endfacet
  facet normal -0.965926 0.258819 0
    outer loop
      vertex 132.723 130.024 1.2
      vertex 132.924 130.774 0
      vertex 132.723 130.024 0
    endloop
  endfacet
  facet normal -0.707107 0.707107 0
    outer loop
      vertex 132.723 130.024 1.2
      vertex 132.723 130.024 0
      vertex 132.424 129.725 1.2
    endloop
  endfacet
  facet normal -0.707107 0.707107 0
    outer loop
      vertex 132.424 129.725 1.2
      vertex 132.723 130.024 0
      vertex 132.424 129.725 0
    endloop
  endfacet
  facet normal -1 0 0
    outer loop
      vertex 132.424 129.725 1.2
      vertex 132.424 129.725 0
      vertex 132.424 105.374 1.2
    endloop
  endfacet
  facet normal -1 0 0
    outer loop
      vertex 132.424 105.374 1.2
      vertex 132.424 129.725 0
      vertex 132.424 105.374 0
    endloop
  endfacet
  facet normal -0.707107 -0.707107 0
    outer loop
      vertex 132.723 105.075 0
      vertex 132.723 105.075 1.2
      vertex 132.424 105.374 1.2
    endloop
  endfacet
  facet normal -0.707107 -0.707107 0
    outer loop
      vertex 132.424 105.374 0
      vertex 132.723 105.075 0
      vertex 132.424 105.374 1.2
    endloop
  endfacet
  facet normal -0.965926 -0.258819 0
    outer loop
      vertex 132.924 104.325 1.2
      vertex 132.723 105.075 1.2
      vertex 132.924 104.325 0
    endloop
  endfacet
  facet normal -0.965926 -0.258819 0
    outer loop
      vertex 132.924 104.325 0
      vertex 132.723 105.075 1.2
      vertex 132.723 105.075 0
    endloop
  endfacet
  facet normal -0.965926 0.258819 0
    outer loop
      vertex 132.924 104.325 1.2
      vertex 132.924 104.325 0
      vertex 132.723 103.575 1.2
    endloop
  endfacet
  facet normal -0.965926 0.258819 0
    outer loop
      vertex 132.723 103.575 1.2
      vertex 132.924 104.325 0
      vertex 132.723 103.575 0
    endloop
  endfacet
  facet normal -0.707107 0.707107 0
    outer loop
      vertex 132.723 103.575 1.2
      vertex 132.723 103.575 0
      vertex 132.174 103.026 1.2
    endloop
  endfacet
  facet normal -0.707107 0.707107 0
    outer loop
      vertex 132.174 103.026 1.2
      vertex 132.723 103.575 0
      vertex 132.174 103.026 0
    endloop
  endfacet
  facet normal -0.258819 0.965926 0
    outer loop
      vertex 132.174 103.026 1.2
      vertex 132.174 103.026 0
      vertex 131.424 102.825 1.2
    endloop
  endfacet
  facet normal -0.258819 0.965926 0
    outer loop
      vertex 131.424 102.825 1.2
      vertex 132.174 103.026 0
      vertex 131.424 102.825 0
    endloop
  endfacet
  facet normal 0.258819 0.965926 0
    outer loop
      vertex 131.424 102.825 1.2
      vertex 131.424 102.825 0
      vertex 130.674 103.026 1.2
    endloop
  endfacet
  facet normal 0.258819 0.965926 0
    outer loop
      vertex 130.674 103.026 1.2
      vertex 131.424 102.825 0
      vertex 130.674 103.026 0
    endloop
  endfacet
  facet normal 0.707107 0.707107 0
    outer loop
      vertex 130.674 103.026 1.2
      vertex 130.674 103.026 0
      vertex 130.375 103.325 1.2
    endloop
  endfacet
  facet normal 0.707107 0.707107 0
    outer loop
      vertex 130.375 103.325 1.2
      vertex 130.674 103.026 0
      vertex 130.375 103.325 0
    endloop
  endfacet
  facet normal 0 1 0
    outer loop
      vertex 130.375 103.325 1.2
      vertex 130.375 103.325 0
      vertex 65.5 103.325 1.2
    endloop
  endfacet
  facet normal 0 1 0
    outer loop
      vertex 65.5 103.325 1.2
      vertex 130.375 103.325 0
      vertex 65.5 103.325 0
    endloop
  endfacet
  facet normal -1 0 0
    outer loop
      vertex 65.5 103.325 1.2
      vertex 65.5 103.325 0
      vertex 65.5 100.15 1.2
    endloop
  endfacet
  facet normal -1 0 0
    outer loop
      vertex 65.5 100.15 1.2
      vertex 65.5 103.325 0
      vertex 65.5 100.15 0
    endloop
  endfacet
  facet normal 0 1 0
    outer loop
      vertex 65.5 100.15 1.2
      vertex 65.5 100.15 0
      vertex 52.049 100.15 1.2
    endloop
  endfacet
  facet normal 0 1 0
    outer loop
      vertex 52.049 100.15 1.2
      vertex 65.5 100.15 0
      vertex 52.049 100.15 0
    endloop
  endfacet
  facet normal -0.707107 0.707107 0
    outer loop
      vertex 52.049 100.15 1.2
      vertex 52.049 100.15 0
      vertex 51.75 99.851 1.2
    endloop
  endfacet
  facet normal -0.707107 0.707107 0
    outer loop
      vertex 51.75 99.851 1.2
      vertex 52.049 100.15 0
      vertex 51.75 99.851 0
    endloop
  endfacet
  facet normal -0.258819 0.965926 0
    outer loop
      vertex 51.75 99.851 1.2
      vertex 51.75 99.851 0
      vertex 51 99.65 1.2
    endloop
  endfacet
  facet normal -0.258819 0.965926 0
    outer loop
      vertex 51 99.65 1.2
      vertex 51.75 99.851 0
      vertex 51 99.65 0
    endloop
  endfacet
  facet normal 0.258819 0.965926 0
    outer loop
      vertex 51 99.65 1.2
      vertex 51 99.65 0
      vertex 50.25 99.851 1.2
    endloop
  endfacet
  facet normal 0.258819 0.965926 0
    outer loop
      vertex 50.25 99.851 1.2
      vertex 51 99.65 0
      vertex 50.25 99.851 0
    endloop
  endfacet
endsolid OpenSCAD_Model
