solid OpenSCAD_Model
  facet normal -1 0 0
    outer loop
      vertex -50 0 0
      vertex -50 0 2.5
      vertex -50 10 0
    endloop
  endfacet
  facet normal -1 0 0
    outer loop
      vertex -50 10 0
      vertex -50 0 2.5
      vertex -50 10 2.5
    endloop
  endfacet
  facet normal 0 -1 0
    outer loop
      vertex -50 0 2.5
      vertex -50 0 0
      vertex 70 0 0
    endloop
  endfacet
  facet normal 0 -1 0
    outer loop
      vertex -10 0 3
      vertex -10 0 2.75
      vertex 10 0 3
    endloop
  endfacet
  facet normal 0 -1 0
    outer loop
      vertex -30 0 2.5
      vertex -50 0 2.5
      vertex 70 0 0
    endloop
  endfacet
  facet normal 0 -1 0
    outer loop
      vertex 70 0 3.75
      vertex 50 0 3.5
      vertex 70 0 0
    endloop
  endfacet
  facet normal 0 -1 0
    outer loop
      vertex 50 0 3.5
      vertex 30 0 3.25
      vertex 70 0 0
    endloop
  endfacet
  facet normal 0 -1 0
    outer loop
      vertex -30 0 2.75
      vertex -30 0 2.5
      vertex -10 0 2.75
    endloop
  endfacet
  facet normal 0 -1 0
    outer loop
      vertex 30 0 3.5
      vertex 30 0 3.25
      vertex 50 0 3.5
    endloop
  endfacet
  facet normal 0 -1 0
    outer loop
      vertex 30 0 3.25
      vertex 10 0 3
      vertex 70 0 0
    endloop
  endfacet
  facet normal 0 -1 0
    outer loop
      vertex 10 0 3
      vertex -10 0 2.75
      vertex 70 0 0
    endloop
  endfacet
  facet normal 0 -1 0
    outer loop
      vertex -10 0 2.75
      vertex -30 0 2.5
      vertex 70 0 0
    endloop
  endfacet
  facet normal 0 -1 0
    outer loop
      vertex 10 0 3.25
      vertex 10 0 3
      vertex 30 0 3.25
    endloop
  endfacet
  facet normal 0 -1 0
    outer loop
      vertex 50 0 3.75
      vertex 50 0 3.5
      vertex 70 0 3.75
    endloop
  endfacet
  facet normal 0 0 -1
    outer loop
      vertex -50 0 0
      vertex -50 10 0
      vertex 70 0 0
    endloop
  endfacet
  facet normal 0 0 -1
    outer loop
      vertex 70 0 0
      vertex -50 10 0
      vertex 0 10 0
    endloop
  endfacet
  facet normal 0 0 -1
    outer loop
      vertex 20 10 0
      vertex 0 10 0
      vertex 0 50 0
    endloop
  endfacet
  facet normal 0 0 -1
    outer loop
      vertex 70 0 0
      vertex 0 10 0
      vertex 20 10 0
    endloop
  endfacet
  facet normal 0 0 -1
    outer loop
      vertex 70 10 0
      vertex 70 0 0
      vertex 20 10 0
    endloop
  endfacet
  facet normal 0 0 -1
    outer loop
      vertex 20 10 0
      vertex 0 50 0
      vertex 20 50 0
    endloop
  endfacet
  facet normal 0 1 0
    outer loop
      vertex -50 10 0
      vertex -50 10 2.5
      vertex 0 10 0
    endloop
  endfacet
  facet normal 0 1 0
    outer loop
      vertex 0 10 0
      vertex -50 10 2.5
      vertex -30 10 2.5
    endloop
  endfacet
  facet normal 0 1 0
    outer loop
      vertex 0 10 0
      vertex -30 10 2.5
      vertex -30 10 2.75
    endloop
  endfacet
  facet normal 0 1 0
    outer loop
      vertex 0 10 0
      vertex -30 10 2.75
      vertex -10 10 2.75
    endloop
  endfacet
  facet normal 0 1 0
    outer loop
      vertex 0 10 0
      vertex -10 10 2.75
      vertex -10 10 3
    endloop
  endfacet
  facet normal 0 1 0
    outer loop
      vertex 0 10 2
      vertex -10 10 3
      vertex 10 10 3
    endloop
  endfacet
  facet normal 0 1 0
    outer loop
      vertex 10 10 3
      vertex 10 10 3.25
      vertex 30 10 3.25
    endloop
  endfacet
  facet normal 0 1 0
    outer loop
      vertex 30 10 3.25
      vertex 30 10 3.5
      vertex 50 10 3.5
    endloop
  endfacet
  facet normal 0 1 0
    outer loop
      vertex 0 10 2
      vertex 10 10 3
      vertex 30 10 3.25
    endloop
  endfacet
  facet normal 0 1 0
    outer loop
      vertex 50 10 3.5
      vertex 50 10 3.75
      vertex 70 10 3.75
    endloop
  endfacet
  facet normal 0 1 0
    outer loop
      vertex 0 10 2
      vertex 30 10 3.25
      vertex 20 10 2
    endloop
  endfacet
  facet normal 0 1 0
    outer loop
      vertex 20 10 0
      vertex 70 10 3.75
      vertex 70 10 0
    endloop
  endfacet
  facet normal 0 1 0
    outer loop
      vertex 30 10 3.25
      vertex 50 10 3.5
      vertex 20 10 2
    endloop
  endfacet
  facet normal 0 1 0
    outer loop
      vertex 0 10 0
      vertex -10 10 3
      vertex 0 10 2
    endloop
  endfacet
  facet normal 0 1 0
    outer loop
      vertex 20 10 2
      vertex 50 10 3.5
      vertex 70 10 3.75
    endloop
  endfacet
  facet normal 0 1 0
    outer loop
      vertex 20 10 2
      vertex 70 10 3.75
      vertex 20 10 0
    endloop
  endfacet
  facet normal 0 0 1
    outer loop
      vertex -50 10 2.5
      vertex -50 0 2.5
      vertex -30 0 2.5
    endloop
  endfacet
  facet normal 0 0 1
    outer loop
      vertex -30 10 2.5
      vertex -50 10 2.5
      vertex -30 0 2.5
    endloop
  endfacet
  facet normal -1 0 0
    outer loop
      vertex -30 0 2.5
      vertex -30 0 2.75
      vertex -30 10 2.5
    endloop
  endfacet
  facet normal -1 0 0
    outer loop
      vertex -30 10 2.5
      vertex -30 0 2.75
      vertex -30 10 2.75
    endloop
  endfacet
  facet normal 0 0 1
    outer loop
      vertex -30 10 2.75
      vertex -30 0 2.75
      vertex -10 0 2.75
    endloop
  endfacet
  facet normal 0 0 1
    outer loop
      vertex -10 10 2.75
      vertex -30 10 2.75
      vertex -10 0 2.75
    endloop
  endfacet
  facet normal -1 0 0
    outer loop
      vertex -10 0 2.75
      vertex -10 0 3
      vertex -10 10 2.75
    endloop
  endfacet
  facet normal -1 0 0
    outer loop
      vertex -10 10 2.75
      vertex -10 0 3
      vertex -10 10 3
    endloop
  endfacet
  facet normal 0 0 1
    outer loop
      vertex -10 10 3
      vertex -10 0 3
      vertex 10 0 3
    endloop
  endfacet
  facet normal 0 0 1
    outer loop
      vertex 10 10 3
      vertex -10 10 3
      vertex 10 0 3
    endloop
  endfacet
  facet normal -1 0 0
    outer loop
      vertex 10 0 3
      vertex 10 0 3.25
      vertex 10 10 3
    endloop
  endfacet
  facet normal -1 0 0
    outer loop
      vertex 10 10 3
      vertex 10 0 3.25
      vertex 10 10 3.25
    endloop
  endfacet
  facet normal 0 0 1
    outer loop
      vertex 10 10 3.25
      vertex 10 0 3.25
      vertex 30 0 3.25
    endloop
  endfacet
  facet normal 0 0 1
    outer loop
      vertex 30 10 3.25
      vertex 10 10 3.25
      vertex 30 0 3.25
    endloop
  endfacet
  facet normal -1 0 0
    outer loop
      vertex 30 0 3.25
      vertex 30 0 3.5
      vertex 30 10 3.25
    endloop
  endfacet
  facet normal -1 0 0
    outer loop
      vertex 30 10 3.25
      vertex 30 0 3.5
      vertex 30 10 3.5
    endloop
  endfacet
  facet normal 0 0 1
    outer loop
      vertex 30 10 3.5
      vertex 30 0 3.5
      vertex 50 0 3.5
    endloop
  endfacet
  facet normal 0 0 1
    outer loop
      vertex 50 10 3.5
      vertex 30 10 3.5
      vertex 50 0 3.5
    endloop
  endfacet
  facet normal -1 0 0
    outer loop
      vertex 50 0 3.5
      vertex 50 0 3.75
      vertex 50 10 3.5
    endloop
  endfacet
  facet normal -1 0 0
    outer loop
      vertex 50 10 3.5
      vertex 50 0 3.75
      vertex 50 10 3.75
    endloop
  endfacet
  facet normal 0 0 1
    outer loop
      vertex 50 10 3.75
      vertex 50 0 3.75
      vertex 70 0 3.75
    endloop
  endfacet
  facet normal 0 0 1
    outer loop
      vertex 70 10 3.75
      vertex 50 10 3.75
      vertex 70 0 3.75
    endloop
  endfacet
  facet normal 1 0 0
    outer loop
      vertex 70 0 3.75
      vertex 70 0 0
      vertex 70 10 0
    endloop
  endfacet
  facet normal 1 0 0
    outer loop
      vertex 70 10 3.75
      vertex 70 0 3.75
      vertex 70 10 0
    endloop
  endfacet
  facet normal 1 0 0
    outer loop
      vertex 20 10 2
      vertex 20 10 0
      vertex 20 50 0
    endloop
  endfacet
  facet normal 1 0 0
    outer loop
      vertex 20 50 2
      vertex 20 10 2
      vertex 20 50 0
    endloop
  endfacet
  facet normal 0 1 0
    outer loop
      vertex 0 50 0
      vertex 0 50 2
      vertex 20 50 0
    endloop
  endfacet
  facet normal 0 1 0
    outer loop
      vertex 20 50 0
      vertex 0 50 2
      vertex 20 50 2
    endloop
  endfacet
  facet normal -1 0 0
    outer loop
      vertex 0 10 0
      vertex 0 10 2
      vertex 0 50 0
    endloop
  endfacet
  facet normal -1 0 0
    outer loop
      vertex 0 50 0
      vertex 0 10 2
      vertex 0 50 2
    endloop
  endfacet
  facet normal 0 0 1
    outer loop
      vertex 0 50 2
      vertex 0 10 2
      vertex 20 10 2
    endloop
  endfacet
  facet normal 0 0 1
    outer loop
      vertex 20 50 2
      vertex 0 50 2
      vertex 20 10 2
    endloop
  endfacet
endsolid OpenSCAD_Model
