solid OpenSCAD_Model
  facet normal 0 0 -1
    outer loop
      vertex 2.211 3.896 2
      vertex 2.21067 3.89563 2
      vertex 2.024 4.624 2
    endloop
  endfacet
  facet normal 0 0 -1
    outer loop
      vertex 2.02366 4.624 2
      vertex 2.02366 5.376 2
      vertex 2.024 4.624 2
    endloop
  endfacet
  facet normal 0 0 -1
    outer loop
      vertex 2.02366 4.624 2
      vertex 2.024 4.624 2
      vertex 2.21067 3.89563 2
    endloop
  endfacet
  facet normal 0 0 -1
    outer loop
      vertex 2.21067 3.89563 2
      vertex 2.211 3.896 2
      vertex 2.573 3.237 2
    endloop
  endfacet
  facet normal 0 0 -1
    outer loop
      vertex 2.573 3.237 2
      vertex 2.93691 2.84906 2
      vertex 2.57295 3.23664 2
    endloop
  endfacet
  facet normal 0 0 -1
    outer loop
      vertex 2.573 3.237 2
      vertex 2.57295 3.23664 2
      vertex 2.21067 3.89563 2
    endloop
  endfacet
  facet normal 0 0 -1
    outer loop
      vertex 2.024 4.624 2
      vertex 2.02366 5.376 2
      vertex 2.024 5.37734 2
    endloop
  endfacet
  facet normal -1 0 0
    outer loop
      vertex 2.02366 4.624 2
      vertex 2.02366 4.624 3
      vertex 2.02366 5.376 2
    endloop
  endfacet
  facet normal -1 0 0
    outer loop
      vertex 2.02366 5.376 2
      vertex 2.02366 4.624 3
      vertex 2.02366 5.376 3
    endloop
  endfacet
  facet normal -0.968583 -0.24869 0
    outer loop
      vertex 2.02366 4.624 2
      vertex 2.21067 3.89563 2
      vertex 2.02366 4.624 3
    endloop
  endfacet
  facet normal -0.968583 -0.24869 0
    outer loop
      vertex 2.02366 4.624 3
      vertex 2.21067 3.89563 2
      vertex 2.21067 3.89563 3
    endloop
  endfacet
  facet normal -0.876307 -0.481753 0
    outer loop
      vertex 2.21067 3.89563 2
      vertex 2.57295 3.23664 2
      vertex 2.21067 3.89563 3
    endloop
  endfacet
  facet normal -0.876307 -0.481753 0
    outer loop
      vertex 2.21067 3.89563 3
      vertex 2.57295 3.23664 2
      vertex 2.57295 3.23664 3
    endloop
  endfacet
  facet normal -0.728969 -0.684547 0
    outer loop
      vertex 2.57295 3.23664 2
      vertex 2.93691 2.84906 2
      vertex 2.57295 3.23664 3
    endloop
  endfacet
  facet normal -0.728969 -0.684547 0
    outer loop
      vertex 2.57295 3.23664 3
      vertex 2.93691 2.84906 2
      vertex 3.08773 2.68846 2
    endloop
  endfacet
  facet normal -0.728969 -0.684547 0
    outer loop
      vertex 2.57295 3.23664 3
      vertex 3.08773 2.68846 2
      vertex 3.08773 2.68846 3
    endloop
  endfacet
  facet normal 0 0 1
    outer loop
      vertex 3.088 2.688 2
      vertex 3.27367 2.57046 2
      vertex 3.08773 2.68846 2
    endloop
  endfacet
  facet normal 0 0 1
    outer loop
      vertex 2.93691 2.84906 2
      vertex 3.088 2.688 2
      vertex 3.08773 2.68846 2
    endloop
  endfacet
  facet normal -0.72933 -0.684162 0
    outer loop
      vertex 2.573 3.237 0
      vertex 3.088 2.688 0
      vertex 2.573 3.237 2
    endloop
  endfacet
  facet normal -0.72933 -0.684162 0
    outer loop
      vertex 2.93691 2.84906 2
      vertex 3.088 2.688 0
      vertex 3.088 2.688 2
    endloop
  endfacet
  facet normal -0.72933 -0.684162 0
    outer loop
      vertex 2.573 3.237 2
      vertex 3.088 2.688 0
      vertex 2.93691 2.84906 2
    endloop
  endfacet
  facet normal -0.876469 -0.481459 0
    outer loop
      vertex 2.211 3.896 0
      vertex 2.573 3.237 0
      vertex 2.211 3.896 2
    endloop
  endfacet
  facet normal -0.876469 -0.481459 0
    outer loop
      vertex 2.211 3.896 2
      vertex 2.573 3.237 0
      vertex 2.573 3.237 2
    endloop
  endfacet
  facet normal -0.968557 -0.248791 0
    outer loop
      vertex 2.024 4.624 0
      vertex 2.211 3.896 0
      vertex 2.024 4.624 2
    endloop
  endfacet
  facet normal -0.968557 -0.248791 0
    outer loop
      vertex 2.024 4.624 2
      vertex 2.211 3.896 0
      vertex 2.211 3.896 2
    endloop
  endfacet
  facet normal -1 0 0
    outer loop
      vertex 2.024 4.624 0
      vertex 2.024 4.624 2
      vertex 2.024 15.376 0
    endloop
  endfacet
  facet normal -1 0 0
    outer loop
      vertex 2.024 15.376 0
      vertex 2.024 4.624 2
      vertex 2.024 5.37734 2
    endloop
  endfacet
  facet normal -1 0 0
    outer loop
      vertex 2.024 15.376 0
      vertex 2.024 5.37734 2
      vertex 2.024 14.6227 2
    endloop
  endfacet
  facet normal -1 0 0
    outer loop
      vertex 2.024 15.376 0
      vertex 2.024 14.6227 2
      vertex 2.024 15.376 2
    endloop
  endfacet
  facet normal 0 0 1
    outer loop
      vertex 15 14 2
      vertex 27.187 17.054 2
      vertex 26.607 17.533 2
    endloop
  endfacet
  facet normal 0 0 1
    outer loop
      vertex 15 14 2
      vertex 27.629 16.445 2
      vertex 27.187 17.054 2
    endloop
  endfacet
  facet normal 0 0 1
    outer loop
      vertex 15 14 2
      vertex 26.607 17.533 2
      vertex 25.927 17.853 2
    endloop
  endfacet
  facet normal 0 0 1
    outer loop
      vertex 6.60748 7.53298 2
      vertex 20 2.006 2
      vertex 5.92705 7.85317 2
    endloop
  endfacet
  facet normal 0 0 1
    outer loop
      vertex 7.18691 7.05364 2
      vertex 20 2.006 2
      vertex 6.60748 7.53298 2
    endloop
  endfacet
  facet normal 0 0 1
    outer loop
      vertex 7.62892 6.44526 2
      vertex 20 2.006 2
      vertex 7.18691 7.05364 2
    endloop
  endfacet
  facet normal 0 0 1
    outer loop
      vertex 7.90575 5.74607 2
      vertex 20 2.006 2
      vertex 7.62892 6.44526 2
    endloop
  endfacet
  facet normal 0 0 1
    outer loop
      vertex 8 5 2
      vertex 20 2.006 2
      vertex 7.90575 5.74607 2
    endloop
  endfacet
  facet normal 0 0 1
    outer loop
      vertex 7.90575 4.25393 2
      vertex 20 2.006 2
      vertex 8 5 2
    endloop
  endfacet
  facet normal 0 0 1
    outer loop
      vertex 7.62892 3.55474 2
      vertex 20 2.006 2
      vertex 7.90575 4.25393 2
    endloop
  endfacet
  facet normal 0 0 1
    outer loop
      vertex 7.18691 2.94636 2
      vertex 20 2.006 2
      vertex 7.62892 3.55474 2
    endloop
  endfacet
  facet normal 0 0 1
    outer loop
      vertex 6.60748 2.46702 2
      vertex 20 2.006 2
      vertex 7.18691 2.94636 2
    endloop
  endfacet
  facet normal 0 0 1
    outer loop
      vertex 5.92705 2.14683 2
      vertex 20 2.006 2
      vertex 6.60748 2.46702 2
    endloop
  endfacet
  facet normal 0 0 1
    outer loop
      vertex 5.18879 2.006 2
      vertex 20 2.006 2
      vertex 5.92705 2.14683 2
    endloop
  endfacet
  facet normal 0 0 1
    outer loop
      vertex 20 2 2
      vertex 44 2 2
      vertex 20 2.006 2
    endloop
  endfacet
  facet normal 0 0 1
    outer loop
      vertex 3.72266 12.2855 2
      vertex 3.08773 12.6885 2
      vertex 2.21067 6.10437 2
    endloop
  endfacet
  facet normal 0 0 1
    outer loop
      vertex 23.5 14 2
      vertex 23.5 6 2
      vertex 28 12 2
    endloop
  endfacet
  facet normal 0 0 1
    outer loop
      vertex 28 12 2
      vertex 23.5 6 2
      vertex 40 10 2
    endloop
  endfacet
  facet normal 0 0 1
    outer loop
      vertex 15 14 2
      vertex 27.906 15.746 2
      vertex 27.629 16.445 2
    endloop
  endfacet
  facet normal 0 0 1
    outer loop
      vertex 4.43786 12.0531 2
      vertex 3.08773 7.31154 2
      vertex 3.72266 7.71448 2
    endloop
  endfacet
  facet normal 0 0 1
    outer loop
      vertex 25.188 17.994 2
      vertex 5.18879 17.994 2
      vertex 5.92705 17.8532 2
    endloop
  endfacet
  facet normal 0 0 1
    outer loop
      vertex 4.43786 12.0531 2
      vertex 2.57295 6.76336 2
      vertex 3.08773 7.31154 2
    endloop
  endfacet
  facet normal 0 0 1
    outer loop
      vertex 25.188 17.994 2
      vertex 5.92705 17.8532 2
      vertex 6.60748 17.533 2
    endloop
  endfacet
  facet normal 0 0 1
    outer loop
      vertex 25.188 17.994 2
      vertex 6.60748 17.533 2
      vertex 7.18691 17.0536 2
    endloop
  endfacet
  facet normal 0 0 1
    outer loop
      vertex 5.18837 12.0059 2
      vertex 4.43786 12.0531 2
      vertex 3.72266 7.71448 2
    endloop
  endfacet
  facet normal 0 0 1
    outer loop
      vertex 25.188 17.994 2
      vertex 7.18691 17.0536 2
      vertex 7.62892 16.4453 2
    endloop
  endfacet
  facet normal 0 0 1
    outer loop
      vertex 25.188 17.994 2
      vertex 7.62892 16.4453 2
      vertex 7.90575 15.7461 2
    endloop
  endfacet
  facet normal 0 0 1
    outer loop
      vertex 5.92705 12.1468 2
      vertex 5.18837 12.0059 2
      vertex 3.72266 7.71448 2
    endloop
  endfacet
  facet normal 0 0 1
    outer loop
      vertex 25.188 17.994 2
      vertex 7.90575 15.7461 2
      vertex 8 15 2
    endloop
  endfacet
  facet normal 0 0 1
    outer loop
      vertex 25.188 17.994 2
      vertex 8 15 2
      vertex 7.90575 14.2539 2
    endloop
  endfacet
  facet normal 0 0 1
    outer loop
      vertex 15 14 2
      vertex 7.62892 13.5547 2
      vertex 3.72266 7.71448 2
    endloop
  endfacet
  facet normal 0 0 1
    outer loop
      vertex 25.188 17.994 2
      vertex 7.90575 14.2539 2
      vertex 7.62892 13.5547 2
    endloop
  endfacet
  facet normal 0 0 1
    outer loop
      vertex 7.62892 13.5547 2
      vertex 7.18691 12.9464 2
      vertex 3.72266 7.71448 2
    endloop
  endfacet
  facet normal 0 0 1
    outer loop
      vertex 15 14 2
      vertex 25.927 17.853 2
      vertex 25.188 17.994 2
    endloop
  endfacet
  facet normal 0 0 1
    outer loop
      vertex 3.08773 12.6885 2
      vertex 2.57295 13.2366 2
      vertex 2.21067 6.10437 2
    endloop
  endfacet
  facet normal 0 0 1
    outer loop
      vertex 2.57295 13.2366 2
      vertex 2.21067 13.8956 2
      vertex 2.21067 6.10437 2
    endloop
  endfacet
  facet normal 0 0 1
    outer loop
      vertex 2.21067 13.8956 2
      vertex 2.024 14.6227 2
      vertex 2.21067 6.10437 2
    endloop
  endfacet
  facet normal 0 0 1
    outer loop
      vertex 2.024 14.6227 2
      vertex 2.024 5.37734 2
      vertex 2.21067 6.10437 2
    endloop
  endfacet
  facet normal 0 0 1
    outer loop
      vertex 25.188 17.994 2
      vertex 7.62892 13.5547 2
      vertex 15 14 2
    endloop
  endfacet
  facet normal 0 0 1
    outer loop
      vertex 28 15 2
      vertex 27.906 15.746 2
      vertex 23.5 14 2
    endloop
  endfacet
  facet normal 0 0 1
    outer loop
      vertex 44 2 2
      vertex 44 10 2
      vertex 23.5 6 2
    endloop
  endfacet
  facet normal 0 0 1
    outer loop
      vertex 20 2.006 2
      vertex 15 6 2
      vertex 5.92705 7.85317 2
    endloop
  endfacet
  facet normal 0 0 1
    outer loop
      vertex 20 2.006 2
      vertex 44 2 2
      vertex 15 6 2
    endloop
  endfacet
  facet normal 0 0 1
    outer loop
      vertex 7.18691 12.9464 2
      vertex 6.60748 12.467 2
      vertex 3.72266 7.71448 2
    endloop
  endfacet
  facet normal 0 0 1
    outer loop
      vertex 6.60748 12.467 2
      vertex 5.92705 12.1468 2
      vertex 3.72266 7.71448 2
    endloop
  endfacet
  facet normal 0 0 1
    outer loop
      vertex 4.43786 12.0531 2
      vertex 2.21067 6.10437 2
      vertex 2.57295 6.76336 2
    endloop
  endfacet
  facet normal 0 0 1
    outer loop
      vertex 4.43786 12.0531 2
      vertex 3.72266 12.2855 2
      vertex 2.21067 6.10437 2
    endloop
  endfacet
  facet normal 0 0 1
    outer loop
      vertex 15 14 2
      vertex 23.5 14 2
      vertex 27.906 15.746 2
    endloop
  endfacet
  facet normal 0 0 1
    outer loop
      vertex 23.5 14 2
      vertex 28 12 2
      vertex 28 15 2
    endloop
  endfacet
  facet normal 0 0 1
    outer loop
      vertex 28 12 2
      vertex 40 10 2
      vertex 40 12 2
    endloop
  endfacet
  facet normal 0 0 1
    outer loop
      vertex 40 10 2
      vertex 23.5 6 2
      vertex 44 10 2
    endloop
  endfacet
  facet normal 0 0 1
    outer loop
      vertex 23.5 6 2
      vertex 15 6 2
      vertex 44 2 2
    endloop
  endfacet
  facet normal 0 0 1
    outer loop
      vertex 4.43786 7.94686 2
      vertex 15 14 2
      vertex 3.72266 7.71448 2
    endloop
  endfacet
  facet normal 0 0 1
    outer loop
      vertex 5.18837 7.99408 2
      vertex 15 14 2
      vertex 4.43786 7.94686 2
    endloop
  endfacet
  facet normal 0 0 1
    outer loop
      vertex 5.92705 7.85317 2
      vertex 15 14 2
      vertex 5.18837 7.99408 2
    endloop
  endfacet
  facet normal 0 0 1
    outer loop
      vertex 15 6 2
      vertex 15 14 2
      vertex 5.92705 7.85317 2
    endloop
  endfacet
  facet normal -0.968583 0.24869 0
    outer loop
      vertex 2.02366 5.376 2
      vertex 2.02366 5.376 3
      vertex 2.024 5.37734 2
    endloop
  endfacet
  facet normal -0.968583 0.24869 0
    outer loop
      vertex 2.024 5.37734 2
      vertex 2.02366 5.376 3
      vertex 2.21067 6.10437 3
    endloop
  endfacet
  facet normal -0.968583 0.24869 0
    outer loop
      vertex 2.024 5.37734 2
      vertex 2.21067 6.10437 3
      vertex 2.21067 6.10437 2
    endloop
  endfacet
  facet normal 0 0 1
    outer loop
      vertex 2.02366 5.376 3
      vertex 2.02366 4.624 3
      vertex 2.21067 3.89563 3
    endloop
  endfacet
  facet normal 0 0 1
    outer loop
      vertex 3.08773 2.68846 3
      vertex 2.02366 5.376 3
      vertex 2.57295 3.23664 3
    endloop
  endfacet
  facet normal 0 0 1
    outer loop
      vertex 2.57295 3.23664 3
      vertex 2.02366 5.376 3
      vertex 2.21067 3.89563 3
    endloop
  endfacet
  facet normal 0 0 1
    outer loop
      vertex 3.72266 2.28552 3
      vertex 2.02366 5.376 3
      vertex 3.08773 2.68846 3
    endloop
  endfacet
  facet normal 0 0 1
    outer loop
      vertex 4.43786 2.05314 3
      vertex 2.02366 5.376 3
      vertex 3.72266 2.28552 3
    endloop
  endfacet
  facet normal 0 0 1
    outer loop
      vertex 5.18837 2.00592 3
      vertex 2.02366 5.376 3
      vertex 4.43786 2.05314 3
    endloop
  endfacet
  facet normal 0 0 1
    outer loop
      vertex 3.91638 3.69013 3
      vertex 2.02366 5.376 3
      vertex 5.18837 2.00592 3
    endloop
  endfacet
  facet normal 0 0 1
    outer loop
      vertex 5.91091 3.56464 3
      vertex 5.52533 3.3832 3
      vertex 7.18691 2.94636 3
    endloop
  endfacet
  facet normal 0 0 1
    outer loop
      vertex 6.64659 4.57723 3
      vertex 6.48972 4.18102 3
      vertex 7.90575 4.25393 3
    endloop
  endfacet
  facet normal 0 0 1
    outer loop
      vertex 6.48972 5.81898 3
      vertex 6.64659 5.42277 3
      vertex 7.90575 5.74607 3
    endloop
  endfacet
  facet normal 0 0 1
    outer loop
      vertex 4.68145 6.66989 3
      vertex 5.10674 6.69664 3
      vertex 6.60748 7.53298 3
    endloop
  endfacet
  facet normal 0 0 1
    outer loop
      vertex 5.52533 6.6168 3
      vertex 5.91091 6.43536 3
      vertex 7.18691 7.05364 3
    endloop
  endfacet
  facet normal 0 0 1
    outer loop
      vertex 5.18837 7.99408 3
      vertex 2.02366 5.376 3
      vertex 5.92705 7.85317 3
    endloop
  endfacet
  facet normal 0 0 1
    outer loop
      vertex 4.43786 7.94686 3
      vertex 2.02366 5.376 3
      vertex 5.18837 7.99408 3
    endloop
  endfacet
  facet normal 0 0 1
    outer loop
      vertex 3.72266 7.71448 3
      vertex 2.02366 5.376 3
      vertex 4.43786 7.94686 3
    endloop
  endfacet
  facet normal 0 0 1
    outer loop
      vertex 3.08773 7.31154 3
      vertex 2.02366 5.376 3
      vertex 3.72266 7.71448 3
    endloop
  endfacet
  facet normal 0 0 1
    outer loop
      vertex 2.57295 6.76336 3
      vertex 2.02366 5.376 3
      vertex 3.08773 7.31154 3
    endloop
  endfacet
  facet normal 0 0 1
    outer loop
      vertex 2.21067 6.10437 3
      vertex 2.02366 5.376 3
      vertex 2.57295 6.76336 3
    endloop
  endfacet
  facet normal 0 0 1
    outer loop
      vertex 5.52533 3.3832 3
      vertex 5.10674 3.30335 3
      vertex 6.60748 2.46702 3
    endloop
  endfacet
  facet normal 0 0 1
    outer loop
      vertex 3.3134 5.21307 3
      vertex 3.41938 5.62581 3
      vertex 2.02366 5.376 3
    endloop
  endfacet
  facet normal 0 0 1
    outer loop
      vertex 3.41938 5.62581 3
      vertex 3.62467 5.99923 3
      vertex 2.02366 5.376 3
    endloop
  endfacet
  facet normal 0 0 1
    outer loop
      vertex 5.91091 6.43536 3
      vertex 6.23925 6.16373 3
      vertex 7.62892 6.44526 3
    endloop
  endfacet
  facet normal 0 0 1
    outer loop
      vertex 5.92705 7.85317 3
      vertex 2.02366 5.376 3
      vertex 3.91638 6.30987 3
    endloop
  endfacet
  facet normal 0 0 1
    outer loop
      vertex 5.92705 7.85317 3
      vertex 4.27617 6.53821 3
      vertex 6.60748 7.53298 3
    endloop
  endfacet
  facet normal 0 0 1
    outer loop
      vertex 5.92705 7.85317 3
      vertex 3.91638 6.30987 3
      vertex 4.27617 6.53821 3
    endloop
  endfacet
  facet normal 0 0 1
    outer loop
      vertex 4.27617 6.53821 3
      vertex 4.68145 6.66989 3
      vertex 6.60748 7.53298 3
    endloop
  endfacet
  facet normal 0 0 1
    outer loop
      vertex 6.60748 7.53298 3
      vertex 5.10674 6.69664 3
      vertex 7.18691 7.05364 3
    endloop
  endfacet
  facet normal 0 0 1
    outer loop
      vertex 5.10674 6.69664 3
      vertex 5.52533 6.6168 3
      vertex 7.18691 7.05364 3
    endloop
  endfacet
  facet normal 0 0 1
    outer loop
      vertex 7.18691 7.05364 3
      vertex 5.91091 6.43536 3
      vertex 7.62892 6.44526 3
    endloop
  endfacet
  facet normal 0 0 1
    outer loop
      vertex 3.62467 5.99923 3
      vertex 3.91638 6.30987 3
      vertex 2.02366 5.376 3
    endloop
  endfacet
  facet normal 0 0 1
    outer loop
      vertex 7.62892 6.44526 3
      vertex 6.23925 6.16373 3
      vertex 7.90575 5.74607 3
    endloop
  endfacet
  facet normal 0 0 1
    outer loop
      vertex 6.23925 6.16373 3
      vertex 6.48972 5.81898 3
      vertex 7.90575 5.74607 3
    endloop
  endfacet
  facet normal 0 0 1
    outer loop
      vertex 7.90575 5.74607 3
      vertex 6.64659 5.42277 3
      vertex 8 5 3
    endloop
  endfacet
  facet normal 0 0 1
    outer loop
      vertex 6.64659 5.42277 3
      vertex 6.7 5 3
      vertex 8 5 3
    endloop
  endfacet
  facet normal 0 0 1
    outer loop
      vertex 8 5 3
      vertex 6.7 5 3
      vertex 7.90575 4.25393 3
    endloop
  endfacet
  facet normal 0 0 1
    outer loop
      vertex 6.7 5 3
      vertex 6.64659 4.57723 3
      vertex 7.90575 4.25393 3
    endloop
  endfacet
  facet normal 0 0 1
    outer loop
      vertex 7.90575 4.25393 3
      vertex 6.48972 4.18102 3
      vertex 7.62892 3.55474 3
    endloop
  endfacet
  facet normal 0 0 1
    outer loop
      vertex 6.48972 4.18102 3
      vertex 6.23925 3.83627 3
      vertex 7.62892 3.55474 3
    endloop
  endfacet
  facet normal 0 0 1
    outer loop
      vertex 7.62892 3.55474 3
      vertex 6.23925 3.83627 3
      vertex 7.18691 2.94636 3
    endloop
  endfacet
  facet normal 0 0 1
    outer loop
      vertex 6.23925 3.83627 3
      vertex 5.91091 3.56464 3
      vertex 7.18691 2.94636 3
    endloop
  endfacet
  facet normal 0 0 1
    outer loop
      vertex 7.18691 2.94636 3
      vertex 5.52533 3.3832 3
      vertex 6.60748 2.46702 3
    endloop
  endfacet
  facet normal 0 0 1
    outer loop
      vertex 3.62467 4.00076 3
      vertex 3.41938 4.37419 3
      vertex 2.02366 5.376 3
    endloop
  endfacet
  facet normal 0 0 1
    outer loop
      vertex 6.60748 2.46702 3
      vertex 5.10674 3.30335 3
      vertex 5.92705 2.14683 3
    endloop
  endfacet
  facet normal 0 0 1
    outer loop
      vertex 3.3134 4.78693 3
      vertex 3.3134 5.21307 3
      vertex 2.02366 5.376 3
    endloop
  endfacet
  facet normal 0 0 1
    outer loop
      vertex 5.10674 3.30335 3
      vertex 4.68145 3.33011 3
      vertex 5.92705 2.14683 3
    endloop
  endfacet
  facet normal 0 0 1
    outer loop
      vertex 5.92705 2.14683 3
      vertex 4.27617 3.46179 3
      vertex 5.18837 2.00592 3
    endloop
  endfacet
  facet normal 0 0 1
    outer loop
      vertex 4.27617 3.46179 3
      vertex 3.91638 3.69013 3
      vertex 5.18837 2.00592 3
    endloop
  endfacet
  facet normal 0 0 1
    outer loop
      vertex 3.62467 4.00076 3
      vertex 2.02366 5.376 3
      vertex 3.91638 3.69013 3
    endloop
  endfacet
  facet normal 0 0 1
    outer loop
      vertex 4.68145 3.33011 3
      vertex 4.27617 3.46179 3
      vertex 5.92705 2.14683 3
    endloop
  endfacet
  facet normal 0 0 1
    outer loop
      vertex 3.41938 4.37419 3
      vertex 3.3134 4.78693 3
      vertex 2.02366 5.376 3
    endloop
  endfacet
  facet normal -0.535826 -0.844328 0
    outer loop
      vertex 3.08773 2.68846 3
      vertex 3.08773 2.68846 2
      vertex 3.27367 2.57046 2
    endloop
  endfacet
  facet normal -0.535826 -0.844328 0
    outer loop
      vertex 3.72266 2.28552 3
      vertex 3.08773 2.68846 3
      vertex 3.72266 2.28552 2
    endloop
  endfacet
  facet normal -0.535826 -0.844328 0
    outer loop
      vertex 3.72266 2.28552 2
      vertex 3.08773 2.68846 3
      vertex 3.27367 2.57046 2
    endloop
  endfacet
  facet normal -0.534894 -0.844919 0
    outer loop
      vertex 3.088 2.688 2
      vertex 3.088 2.688 0
      vertex 3.723 2.286 0
    endloop
  endfacet
  facet normal -0.534894 -0.844919 0
    outer loop
      vertex 3.27367 2.57046 2
      vertex 3.088 2.688 2
      vertex 3.723 2.286 0
    endloop
  endfacet
  facet normal -0.534894 -0.844919 0
    outer loop
      vertex 3.723 2.286 2
      vertex 3.27367 2.57046 2
      vertex 3.723 2.286 0
    endloop
  endfacet
  facet normal 0 0 -1
    outer loop
      vertex 3.27367 2.57046 2
      vertex 3.723 2.286 2
      vertex 3.72266 2.28552 2
    endloop
  endfacet
  facet normal 0 0 -1
    outer loop
      vertex 3.72266 2.28552 2
      vertex 3.723 2.286 2
      vertex 4.34238 2.08416 2
    endloop
  endfacet
  facet normal 0 0 -1
    outer loop
      vertex 2.024 4.624 0
      vertex 2.024 15.376 0
      vertex 2.211 3.896 0
    endloop
  endfacet
  facet normal 0 0 -1
    outer loop
      vertex 2.211 3.896 0
      vertex 2.024 15.376 0
      vertex 2.211 16.104 0
    endloop
  endfacet
  facet normal 0 0 -1
    outer loop
      vertex 2.211 3.896 0
      vertex 2.211 16.104 0
      vertex 2.573 16.763 0
    endloop
  endfacet
  facet normal 0 0 -1
    outer loop
      vertex 2.211 3.896 0
      vertex 2.573 16.763 0
      vertex 3.088 17.312 0
    endloop
  endfacet
  facet normal 0 0 -1
    outer loop
      vertex 3.3134 15.2131 0
      vertex 3.088 17.312 0
      vertex 3.723 17.714 0
    endloop
  endfacet
  facet normal 0 0 -1
    outer loop
      vertex 3.91638 16.3099 0
      vertex 3.723 17.714 0
      vertex 4.438 17.947 0
    endloop
  endfacet
  facet normal 0 0 -1
    outer loop
      vertex 4.68145 16.6699 0
      vertex 4.438 17.947 0
      vertex 5.188 17.994 0
    endloop
  endfacet
  facet normal 0 0 -1
    outer loop
      vertex 6.48972 15.819 0
      vertex 5.188 17.994 0
      vertex 25.188 17.994 0
    endloop
  endfacet
  facet normal 0 0 -1
    outer loop
      vertex 15 6 0
      vertex 6.23925 6.16373 0
      vertex 5.91091 6.43536 0
    endloop
  endfacet
  facet normal 0 0 -1
    outer loop
      vertex 23.5 14 0
      vertex 27.629 16.445 0
      vertex 27.906 15.746 0
    endloop
  endfacet
  facet normal 0 0 -1
    outer loop
      vertex 23.5 6 0
      vertex 50 12 0
      vertex 50 4.14214 0
    endloop
  endfacet
  facet normal 0 0 -1
    outer loop
      vertex 6.23925 3.83627 0
      vertex 50 4.14214 0
      vertex 47.8579 2 0
    endloop
  endfacet
  facet normal 0 0 -1
    outer loop
      vertex 20 2.006 0
      vertex 47.8579 2 0
      vertex 20 2 0
    endloop
  endfacet
  facet normal 0 0 -1
    outer loop
      vertex 5.91091 3.56464 0
      vertex 47.8579 2 0
      vertex 20 2.006 0
    endloop
  endfacet
  facet normal 0 0 -1
    outer loop
      vertex 15 6 0
      vertex 6.64659 5.42277 0
      vertex 6.48972 5.81898 0
    endloop
  endfacet
  facet normal 0 0 -1
    outer loop
      vertex 3.41938 4.37419 0
      vertex 2.211 3.896 0
      vertex 3.3134 4.78693 0
    endloop
  endfacet
  facet normal 0 0 -1
    outer loop
      vertex 2.211 3.896 0
      vertex 5.188 2.006 0
      vertex 4.438 2.053 0
    endloop
  endfacet
  facet normal 0 0 -1
    outer loop
      vertex 2.211 3.896 0
      vertex 4.438 2.053 0
      vertex 3.723 2.286 0
    endloop
  endfacet
  facet normal 0 0 -1
    outer loop
      vertex 2.211 3.896 0
      vertex 3.723 2.286 0
      vertex 3.088 2.688 0
    endloop
  endfacet
  facet normal 0 0 -1
    outer loop
      vertex 2.211 3.896 0
      vertex 3.088 2.688 0
      vertex 2.573 3.237 0
    endloop
  endfacet
  facet normal 0 0 -1
    outer loop
      vertex 15 14 0
      vertex 25.927 17.853 0
      vertex 26.607 17.533 0
    endloop
  endfacet
  facet normal 0 0 -1
    outer loop
      vertex 2.211 3.896 0
      vertex 3.3134 5.21307 0
      vertex 3.3134 4.78693 0
    endloop
  endfacet
  facet normal 0 0 -1
    outer loop
      vertex 3.62467 4.00076 0
      vertex 2.211 3.896 0
      vertex 3.41938 4.37419 0
    endloop
  endfacet
  facet normal 0 0 -1
    outer loop
      vertex 6.48972 4.18102 0
      vertex 50 4.14214 0
      vertex 6.23925 3.83627 0
    endloop
  endfacet
  facet normal 0 0 -1
    outer loop
      vertex 23.5 14 0
      vertex 27.906 15.746 0
      vertex 28 15 0
    endloop
  endfacet
  facet normal 0 0 -1
    outer loop
      vertex 2.211 3.896 0
      vertex 3.91638 3.69013 0
      vertex 5.188 2.006 0
    endloop
  endfacet
  facet normal 0 0 -1
    outer loop
      vertex 15 6 0
      vertex 5.91091 6.43536 0
      vertex 5.52533 6.6168 0
    endloop
  endfacet
  facet normal 0 0 -1
    outer loop
      vertex 3.91638 3.69013 0
      vertex 4.27617 3.46179 0
      vertex 5.188 2.006 0
    endloop
  endfacet
  facet normal 0 0 -1
    outer loop
      vertex 4.27617 3.46179 0
      vertex 4.68145 3.33011 0
      vertex 5.188 2.006 0
    endloop
  endfacet
  facet normal 0 0 -1
    outer loop
      vertex 4.68145 13.3301 0
      vertex 3.41938 5.62581 0
      vertex 3.3134 5.21307 0
    endloop
  endfacet
  facet normal 0 0 -1
    outer loop
      vertex 15 6 0
      vertex 5.52533 6.6168 0
      vertex 15 14 0
    endloop
  endfacet
  facet normal 0 0 -1
    outer loop
      vertex 4.68145 13.3301 0
      vertex 3.3134 5.21307 0
      vertex 4.27617 13.4618 0
    endloop
  endfacet
  facet normal 0 0 -1
    outer loop
      vertex 23.5 14 0
      vertex 28 12 0
      vertex 23.5 6 0
    endloop
  endfacet
  facet normal 0 0 -1
    outer loop
      vertex 6.64659 4.57723 0
      vertex 15 6 0
      vertex 6.48972 4.18102 0
    endloop
  endfacet
  facet normal 0 0 -1
    outer loop
      vertex 3.91638 3.69013 0
      vertex 2.211 3.896 0
      vertex 3.62467 4.00076 0
    endloop
  endfacet
  facet normal 0 0 -1
    outer loop
      vertex 6.23925 3.83627 0
      vertex 47.8579 2 0
      vertex 5.91091 3.56464 0
    endloop
  endfacet
  facet normal 0 0 -1
    outer loop
      vertex 23.5 14 0
      vertex 28 15 0
      vertex 28 12 0
    endloop
  endfacet
  facet normal 0 0 -1
    outer loop
      vertex 15 6 0
      vertex 6.7 5 0
      vertex 6.64659 5.42277 0
    endloop
  endfacet
  facet normal 0 0 -1
    outer loop
      vertex 3.41938 14.3742 0
      vertex 2.211 3.896 0
      vertex 3.3134 14.7869 0
    endloop
  endfacet
  facet normal 0 0 -1
    outer loop
      vertex 5.52533 13.3832 0
      vertex 5.10674 6.69664 0
      vertex 5.10674 13.3034 0
    endloop
  endfacet
  facet normal 0 0 -1
    outer loop
      vertex 15 14 0
      vertex 27.629 16.445 0
      vertex 23.5 14 0
    endloop
  endfacet
  facet normal 0 0 -1
    outer loop
      vertex 5.10674 13.3034 0
      vertex 4.27617 6.53821 0
      vertex 4.68145 13.3301 0
    endloop
  endfacet
  facet normal 0 0 -1
    outer loop
      vertex 4.68145 16.6699 0
      vertex 5.188 17.994 0
      vertex 5.10674 16.6966 0
    endloop
  endfacet
  facet normal 0 0 -1
    outer loop
      vertex 2.211 3.896 0
      vertex 3.088 17.312 0
      vertex 3.3134 15.2131 0
    endloop
  endfacet
  facet normal 0 0 -1
    outer loop
      vertex 3.41938 15.6258 0
      vertex 3.3134 15.2131 0
      vertex 3.723 17.714 0
    endloop
  endfacet
  facet normal 0 0 -1
    outer loop
      vertex 2.211 3.896 0
      vertex 3.3134 15.2131 0
      vertex 3.3134 14.7869 0
    endloop
  endfacet
  facet normal 0 0 -1
    outer loop
      vertex 3.91638 13.6901 0
      vertex 2.211 3.896 0
      vertex 3.62467 14.0008 0
    endloop
  endfacet
  facet normal 0 0 -1
    outer loop
      vertex 2.211 3.896 0
      vertex 3.41938 14.3742 0
      vertex 3.62467 14.0008 0
    endloop
  endfacet
  facet normal 0 0 -1
    outer loop
      vertex 4.27617 13.4618 0
      vertex 2.211 3.896 0
      vertex 3.91638 13.6901 0
    endloop
  endfacet
  facet normal 0 0 -1
    outer loop
      vertex 4.68145 13.3301 0
      vertex 3.62467 5.99923 0
      vertex 3.41938 5.62581 0
    endloop
  endfacet
  facet normal 0 0 -1
    outer loop
      vertex 4.68145 13.3301 0
      vertex 3.91638 6.30987 0
      vertex 3.62467 5.99923 0
    endloop
  endfacet
  facet normal 0 0 -1
    outer loop
      vertex 2.211 3.896 0
      vertex 4.27617 13.4618 0
      vertex 3.3134 5.21307 0
    endloop
  endfacet
  facet normal 0 0 -1
    outer loop
      vertex 5.10674 13.3034 0
      vertex 4.68145 6.66989 0
      vertex 4.27617 6.53821 0
    endloop
  endfacet
  facet normal 0 0 -1
    outer loop
      vertex 3.91638 6.30987 0
      vertex 4.68145 13.3301 0
      vertex 4.27617 6.53821 0
    endloop
  endfacet
  facet normal 0 0 -1
    outer loop
      vertex 5.52533 13.3832 0
      vertex 5.52533 6.6168 0
      vertex 5.10674 6.69664 0
    endloop
  endfacet
  facet normal 0 0 -1
    outer loop
      vertex 4.68145 6.66989 0
      vertex 5.10674 13.3034 0
      vertex 5.10674 6.69664 0
    endloop
  endfacet
  facet normal 0 0 -1
    outer loop
      vertex 5.91091 16.4354 0
      vertex 5.188 17.994 0
      vertex 6.23925 16.1637 0
    endloop
  endfacet
  facet normal 0 0 -1
    outer loop
      vertex 15 14 0
      vertex 5.52533 13.3832 0
      vertex 25.188 17.994 0
    endloop
  endfacet
  facet normal 0 0 -1
    outer loop
      vertex 5.52533 13.3832 0
      vertex 5.91091 13.5646 0
      vertex 25.188 17.994 0
    endloop
  endfacet
  facet normal 0 0 -1
    outer loop
      vertex 5.10674 16.6966 0
      vertex 5.188 17.994 0
      vertex 5.52533 16.6168 0
    endloop
  endfacet
  facet normal 0 0 -1
    outer loop
      vertex 5.91091 13.5646 0
      vertex 6.23925 13.8363 0
      vertex 25.188 17.994 0
    endloop
  endfacet
  facet normal 0 0 -1
    outer loop
      vertex 6.23925 13.8363 0
      vertex 6.48972 14.181 0
      vertex 25.188 17.994 0
    endloop
  endfacet
  facet normal 0 0 -1
    outer loop
      vertex 6.48972 14.181 0
      vertex 6.64659 14.5772 0
      vertex 25.188 17.994 0
    endloop
  endfacet
  facet normal 0 0 -1
    outer loop
      vertex 5.52533 16.6168 0
      vertex 5.188 17.994 0
      vertex 5.91091 16.4354 0
    endloop
  endfacet
  facet normal 0 0 -1
    outer loop
      vertex 6.64659 14.5772 0
      vertex 6.7 15 0
      vertex 25.188 17.994 0
    endloop
  endfacet
  facet normal 0 0 -1
    outer loop
      vertex 6.7 15 0
      vertex 6.64659 15.4228 0
      vertex 25.188 17.994 0
    endloop
  endfacet
  facet normal 0 0 -1
    outer loop
      vertex 6.23925 16.1637 0
      vertex 5.188 17.994 0
      vertex 6.48972 15.819 0
    endloop
  endfacet
  facet normal 0 0 -1
    outer loop
      vertex 6.64659 15.4228 0
      vertex 6.48972 15.819 0
      vertex 25.188 17.994 0
    endloop
  endfacet
  facet normal 0 0 -1
    outer loop
      vertex 4.27617 16.5382 0
      vertex 4.438 17.947 0
      vertex 4.68145 16.6699 0
    endloop
  endfacet
  facet normal 0 0 -1
    outer loop
      vertex 3.91638 16.3099 0
      vertex 4.438 17.947 0
      vertex 4.27617 16.5382 0
    endloop
  endfacet
  facet normal 0 0 -1
    outer loop
      vertex 15 14 0
      vertex 27.187 17.054 0
      vertex 27.629 16.445 0
    endloop
  endfacet
  facet normal 0 0 -1
    outer loop
      vertex 3.62467 15.9992 0
      vertex 3.723 17.714 0
      vertex 3.91638 16.3099 0
    endloop
  endfacet
  facet normal 0 0 -1
    outer loop
      vertex 3.41938 15.6258 0
      vertex 3.723 17.714 0
      vertex 3.62467 15.9992 0
    endloop
  endfacet
  facet normal 0 0 -1
    outer loop
      vertex 15 14 0
      vertex 26.607 17.533 0
      vertex 27.187 17.054 0
    endloop
  endfacet
  facet normal 0 0 -1
    outer loop
      vertex 15 14 0
      vertex 25.188 17.994 0
      vertex 25.927 17.853 0
    endloop
  endfacet
  facet normal 0 0 -1
    outer loop
      vertex 5.52533 6.6168 0
      vertex 5.52533 13.3832 0
      vertex 15 14 0
    endloop
  endfacet
  facet normal 0 0 -1
    outer loop
      vertex 15 6 0
      vertex 6.64659 4.57723 0
      vertex 6.7 5 0
    endloop
  endfacet
  facet normal 0 0 -1
    outer loop
      vertex 23.5 6 0
      vertex 6.48972 4.18102 0
      vertex 15 6 0
    endloop
  endfacet
  facet normal 0 0 -1
    outer loop
      vertex 28 12 0
      vertex 50 12 0
      vertex 23.5 6 0
    endloop
  endfacet
  facet normal 0 0 -1
    outer loop
      vertex 6.48972 4.18102 0
      vertex 23.5 6 0
      vertex 50 4.14214 0
    endloop
  endfacet
  facet normal 0 0 -1
    outer loop
      vertex 5.188 2.006 0
      vertex 4.68145 3.33011 0
      vertex 5.10674 3.30335 0
    endloop
  endfacet
  facet normal 0 0 -1
    outer loop
      vertex 5.188 2.006 0
      vertex 5.10674 3.30335 0
      vertex 5.52533 3.3832 0
    endloop
  endfacet
  facet normal 0 0 -1
    outer loop
      vertex 5.91091 3.56464 0
      vertex 20 2.006 0
      vertex 5.52533 3.3832 0
    endloop
  endfacet
  facet normal 0 0 -1
    outer loop
      vertex 5.188 2.006 0
      vertex 5.52533 3.3832 0
      vertex 20 2.006 0
    endloop
  endfacet
  facet normal 0 0 -1
    outer loop
      vertex 15 6 0
      vertex 6.48972 5.81898 0
      vertex 6.23925 6.16373 0
    endloop
  endfacet
  facet normal -0.968557 0.248791 0
    outer loop
      vertex 2.024 15.376 0
      vertex 2.024 15.376 2
      vertex 2.211 16.104 0
    endloop
  endfacet
  facet normal -0.968557 0.248791 0
    outer loop
      vertex 2.211 16.104 0
      vertex 2.024 15.376 2
      vertex 2.211 16.104 2
    endloop
  endfacet
  facet normal 0 0 -1
    outer loop
      vertex 2.02366 14.624 2
      vertex 2.02366 15.376 2
      vertex 2.024 14.6227 2
    endloop
  endfacet
  facet normal 0 0 -1
    outer loop
      vertex 2.024 15.376 2
      vertex 2.02366 15.376 2
      vertex 2.21067 16.1044 2
    endloop
  endfacet
  facet normal 0 0 -1
    outer loop
      vertex 2.211 16.104 2
      vertex 2.21067 16.1044 2
      vertex 2.57295 16.7634 2
    endloop
  endfacet
  facet normal 0 0 -1
    outer loop
      vertex 2.573 16.763 2
      vertex 2.57295 16.7634 2
      vertex 2.93691 17.1509 2
    endloop
  endfacet
  facet normal 0 0 -1
    outer loop
      vertex 2.024 15.376 2
      vertex 2.21067 16.1044 2
      vertex 2.211 16.104 2
    endloop
  endfacet
  facet normal 0 0 -1
    outer loop
      vertex 2.024 14.6227 2
      vertex 2.02366 15.376 2
      vertex 2.024 15.376 2
    endloop
  endfacet
  facet normal 0 0 -1
    outer loop
      vertex 2.211 16.104 2
      vertex 2.57295 16.7634 2
      vertex 2.573 16.763 2
    endloop
  endfacet
  facet normal -0.968583 -0.24869 0
    outer loop
      vertex 2.02366 14.624 2
      vertex 2.024 14.6227 2
      vertex 2.02366 14.624 3
    endloop
  endfacet
  facet normal -0.968583 -0.24869 0
    outer loop
      vertex 2.02366 14.624 3
      vertex 2.024 14.6227 2
      vertex 2.21067 13.8956 2
    endloop
  endfacet
  facet normal -0.968583 -0.24869 0
    outer loop
      vertex 2.02366 14.624 3
      vertex 2.21067 13.8956 2
      vertex 2.21067 13.8956 3
    endloop
  endfacet
  facet normal -0.876307 0.481753 0
    outer loop
      vertex 2.21067 6.10437 2
      vertex 2.21067 6.10437 3
      vertex 2.57295 6.76336 2
    endloop
  endfacet
  facet normal -0.876307 0.481753 0
    outer loop
      vertex 2.57295 6.76336 2
      vertex 2.21067 6.10437 3
      vertex 2.57295 6.76336 3
    endloop
  endfacet
  facet normal -0.876307 -0.481753 0
    outer loop
      vertex 2.21067 13.8956 2
      vertex 2.57295 13.2366 2
      vertex 2.21067 13.8956 3
    endloop
  endfacet
  facet normal -0.876307 -0.481753 0
    outer loop
      vertex 2.21067 13.8956 3
      vertex 2.57295 13.2366 2
      vertex 2.57295 13.2366 3
    endloop
  endfacet
  facet normal -0.728969 -0.684547 0
    outer loop
      vertex 2.57295 13.2366 2
      vertex 3.08773 12.6885 2
      vertex 2.57295 13.2366 3
    endloop
  endfacet
  facet normal -0.728969 -0.684547 0
    outer loop
      vertex 2.57295 13.2366 3
      vertex 3.08773 12.6885 2
      vertex 3.08773 12.6885 3
    endloop
  endfacet
  facet normal -0.535826 -0.844328 0
    outer loop
      vertex 3.08773 12.6885 3
      vertex 3.08773 12.6885 2
      vertex 3.72266 12.2855 2
    endloop
  endfacet
  facet normal -0.535826 -0.844328 0
    outer loop
      vertex 3.72266 12.2855 3
      vertex 3.08773 12.6885 3
      vertex 3.72266 12.2855 2
    endloop
  endfacet
  facet normal -0.309017 -0.951056 0
    outer loop
      vertex 3.72266 12.2855 3
      vertex 3.72266 12.2855 2
      vertex 4.43786 12.0531 2
    endloop
  endfacet
  facet normal -0.309017 -0.951056 0
    outer loop
      vertex 4.43786 12.0531 3
      vertex 3.72266 12.2855 3
      vertex 4.43786 12.0531 2
    endloop
  endfacet
  facet normal -0.0627899 -0.998027 0
    outer loop
      vertex 4.43786 12.0531 3
      vertex 4.43786 12.0531 2
      vertex 5.18837 12.0059 2
    endloop
  endfacet
  facet normal -0.0627899 -0.998027 0
    outer loop
      vertex 5.18837 12.0059 3
      vertex 4.43786 12.0531 3
      vertex 5.18837 12.0059 2
    endloop
  endfacet
  facet normal 0.187381 -0.982287 0
    outer loop
      vertex 5.18837 12.0059 3
      vertex 5.18837 12.0059 2
      vertex 5.92705 12.1468 2
    endloop
  endfacet
  facet normal 0.187381 -0.982287 0
    outer loop
      vertex 5.92705 12.1468 3
      vertex 5.18837 12.0059 3
      vertex 5.92705 12.1468 2
    endloop
  endfacet
  facet normal 0.42578 -0.904827 0
    outer loop
      vertex 5.92705 12.1468 3
      vertex 5.92705 12.1468 2
      vertex 6.60748 12.467 2
    endloop
  endfacet
  facet normal 0.42578 -0.904827 0
    outer loop
      vertex 6.60748 12.467 3
      vertex 5.92705 12.1468 3
      vertex 6.60748 12.467 2
    endloop
  endfacet
  facet normal 0.637424 -0.770513 0
    outer loop
      vertex 6.60748 12.467 3
      vertex 6.60748 12.467 2
      vertex 7.18691 12.9464 2
    endloop
  endfacet
  facet normal 0.637424 -0.770513 0
    outer loop
      vertex 7.18691 12.9464 3
      vertex 6.60748 12.467 3
      vertex 7.18691 12.9464 2
    endloop
  endfacet
  facet normal 0.809017 -0.587785 0
    outer loop
      vertex 7.18691 12.9464 3
      vertex 7.18691 12.9464 2
      vertex 7.62892 13.5547 2
    endloop
  endfacet
  facet normal 0.809017 -0.587785 0
    outer loop
      vertex 7.62892 13.5547 3
      vertex 7.18691 12.9464 3
      vertex 7.62892 13.5547 2
    endloop
  endfacet
  facet normal 0.929777 -0.368124 0
    outer loop
      vertex 7.62892 13.5547 3
      vertex 7.62892 13.5547 2
      vertex 7.90575 14.2539 2
    endloop
  endfacet
  facet normal 0.929777 -0.368124 0
    outer loop
      vertex 7.90575 14.2539 3
      vertex 7.62892 13.5547 3
      vertex 7.90575 14.2539 2
    endloop
  endfacet
  facet normal 0.992115 -0.125334 0
    outer loop
      vertex 7.90575 14.2539 3
      vertex 7.90575 14.2539 2
      vertex 8 15 2
    endloop
  endfacet
  facet normal 0.992115 -0.125334 0
    outer loop
      vertex 8 15 3
      vertex 7.90575 14.2539 3
      vertex 8 15 2
    endloop
  endfacet
  facet normal 0.992115 0.125334 0
    outer loop
      vertex 8 15 2
      vertex 7.90575 15.7461 2
      vertex 7.90575 15.7461 3
    endloop
  endfacet
  facet normal 0.992115 0.125334 0
    outer loop
      vertex 8 15 3
      vertex 8 15 2
      vertex 7.90575 15.7461 3
    endloop
  endfacet
  facet normal 0.929777 0.368124 0
    outer loop
      vertex 7.90575 15.7461 2
      vertex 7.62892 16.4453 2
      vertex 7.62892 16.4453 3
    endloop
  endfacet
  facet normal 0.929777 0.368124 0
    outer loop
      vertex 7.90575 15.7461 3
      vertex 7.90575 15.7461 2
      vertex 7.62892 16.4453 3
    endloop
  endfacet
  facet normal 0.809017 0.587785 0
    outer loop
      vertex 7.62892 16.4453 2
      vertex 7.18691 17.0536 2
      vertex 7.18691 17.0536 3
    endloop
  endfacet
  facet normal 0.809017 0.587785 0
    outer loop
      vertex 7.62892 16.4453 3
      vertex 7.62892 16.4453 2
      vertex 7.18691 17.0536 3
    endloop
  endfacet
  facet normal 0.637424 0.770513 0
    outer loop
      vertex 6.60748 17.533 2
      vertex 6.60748 17.533 3
      vertex 7.18691 17.0536 2
    endloop
  endfacet
  facet normal 0.637424 0.770513 0
    outer loop
      vertex 7.18691 17.0536 2
      vertex 6.60748 17.533 3
      vertex 7.18691 17.0536 3
    endloop
  endfacet
  facet normal 0.42578 0.904827 0
    outer loop
      vertex 5.92705 17.8532 2
      vertex 5.92705 17.8532 3
      vertex 6.60748 17.533 2
    endloop
  endfacet
  facet normal 0.42578 0.904827 0
    outer loop
      vertex 6.60748 17.533 2
      vertex 5.92705 17.8532 3
      vertex 6.60748 17.533 3
    endloop
  endfacet
  facet normal 0.187381 0.982287 0
    outer loop
      vertex 5.18837 17.9941 2
      vertex 5.18837 17.9941 3
      vertex 5.18879 17.994 2
    endloop
  endfacet
  facet normal 0.187381 0.982287 0
    outer loop
      vertex 5.18879 17.994 2
      vertex 5.18837 17.9941 3
      vertex 5.92705 17.8532 3
    endloop
  endfacet
  facet normal 0.187381 0.982287 0
    outer loop
      vertex 5.18879 17.994 2
      vertex 5.92705 17.8532 3
      vertex 5.92705 17.8532 2
    endloop
  endfacet
  facet normal 0 0 -1
    outer loop
      vertex 4.95922 17.9797 2
      vertex 5.18837 17.9941 2
      vertex 5.188 17.994 2
    endloop
  endfacet
  facet normal 0 0 -1
    outer loop
      vertex 5.188 17.994 2
      vertex 5.18837 17.9941 2
      vertex 5.18879 17.994 2
    endloop
  endfacet
  facet normal 0 1 0
    outer loop
      vertex 5.188 17.994 0
      vertex 5.188 17.994 2
      vertex 25.188 17.994 0
    endloop
  endfacet
  facet normal 0 1 0
    outer loop
      vertex 25.188 17.994 0
      vertex 5.188 17.994 2
      vertex 5.18879 17.994 2
    endloop
  endfacet
  facet normal 0 1 0
    outer loop
      vertex 25.188 17.994 0
      vertex 5.18879 17.994 2
      vertex 25.188 17.994 2
    endloop
  endfacet
  facet normal 0.187417 0.98228 0
    outer loop
      vertex 25.188 17.994 0
      vertex 25.188 17.994 2
      vertex 25.927 17.853 0
    endloop
  endfacet
  facet normal 0.187417 0.98228 0
    outer loop
      vertex 25.927 17.853 0
      vertex 25.188 17.994 2
      vertex 25.927 17.853 2
    endloop
  endfacet
  facet normal 0.425797 0.904819 0
    outer loop
      vertex 25.927 17.853 0
      vertex 25.927 17.853 2
      vertex 26.607 17.533 0
    endloop
  endfacet
  facet normal 0.425797 0.904819 0
    outer loop
      vertex 26.607 17.533 0
      vertex 25.927 17.853 2
      vertex 26.607 17.533 2
    endloop
  endfacet
  facet normal 0.636778 0.771047 0
    outer loop
      vertex 26.607 17.533 0
      vertex 26.607 17.533 2
      vertex 27.187 17.054 0
    endloop
  endfacet
  facet normal 0.636778 0.771047 0
    outer loop
      vertex 27.187 17.054 0
      vertex 26.607 17.533 2
      vertex 27.187 17.054 2
    endloop
  endfacet
  facet normal 0.80931 0.587381 0
    outer loop
      vertex 27.629 16.445 0
      vertex 27.187 17.054 0
      vertex 27.187 17.054 2
    endloop
  endfacet
  facet normal 0.80931 0.587381 0
    outer loop
      vertex 27.629 16.445 2
      vertex 27.629 16.445 0
      vertex 27.187 17.054 2
    endloop
  endfacet
  facet normal 0.929664 0.368408 0
    outer loop
      vertex 27.906 15.746 0
      vertex 27.629 16.445 0
      vertex 27.629 16.445 2
    endloop
  endfacet
  facet normal 0.929664 0.368408 0
    outer loop
      vertex 27.906 15.746 2
      vertex 27.906 15.746 0
      vertex 27.629 16.445 2
    endloop
  endfacet
  facet normal 0.992155 0.125017 0
    outer loop
      vertex 28 15 0
      vertex 27.906 15.746 0
      vertex 27.906 15.746 2
    endloop
  endfacet
  facet normal 0.992155 0.125017 0
    outer loop
      vertex 28 15 2
      vertex 28 15 0
      vertex 27.906 15.746 2
    endloop
  endfacet
  facet normal 1 0 0
    outer loop
      vertex 28 12 2
      vertex 28 12 0
      vertex 28 15 0
    endloop
  endfacet
  facet normal 1 0 0
    outer loop
      vertex 28 15 2
      vertex 28 12 2
      vertex 28 15 0
    endloop
  endfacet
  facet normal 0 1 0
    outer loop
      vertex 28 12 0
      vertex 28 12 2
      vertex 50 12 0
    endloop
  endfacet
  facet normal 0 1 0
    outer loop
      vertex 50 12 0
      vertex 28 12 2
      vertex 40 12 2
    endloop
  endfacet
  facet normal 0 1 0
    outer loop
      vertex 50 12 0
      vertex 40 12 2
      vertex 40 12 27
    endloop
  endfacet
  facet normal 0 1 0
    outer loop
      vertex 50 12 0
      vertex 40 12 27
      vertex 50 12 27
    endloop
  endfacet
  facet normal -1 0 0
    outer loop
      vertex 40 10 2
      vertex 40 10 27
      vertex 40 12 2
    endloop
  endfacet
  facet normal -1 0 0
    outer loop
      vertex 40 12 2
      vertex 40 10 27
      vertex 40 12 27
    endloop
  endfacet
  facet normal 0 -1 0
    outer loop
      vertex 40 10 27
      vertex 40 10 2
      vertex 44 10 2
    endloop
  endfacet
  facet normal 0 -1 0
    outer loop
      vertex 46 10 17
      vertex 40 10 27
      vertex 44 10 17
    endloop
  endfacet
  facet normal 0 -1 0
    outer loop
      vertex 44 10 17
      vertex 40 10 27
      vertex 44 10 2
    endloop
  endfacet
  facet normal 0 -1 0
    outer loop
      vertex 50 10 27
      vertex 40 10 27
      vertex 46 10 17
    endloop
  endfacet
  facet normal 0 -1 0
    outer loop
      vertex 50 10 2
      vertex 46 10 17
      vertex 46 10 2
    endloop
  endfacet
  facet normal 0 -1 0
    outer loop
      vertex 50 10 27
      vertex 46 10 17
      vertex 50 10 2
    endloop
  endfacet
  facet normal -1 0 0
    outer loop
      vertex 44 2 2
      vertex 44 2 11
      vertex 44 10 2
    endloop
  endfacet
  facet normal -1 0 0
    outer loop
      vertex 44 10 2
      vertex 44 2 11
      vertex 44 8 17
    endloop
  endfacet
  facet normal -1 0 0
    outer loop
      vertex 44 10 2
      vertex 44 8 17
      vertex 44 10 17
    endloop
  endfacet
  facet normal 0 -1 0
    outer loop
      vertex 20 2 2
      vertex 20 2 0
      vertex 47.8579 2 0
    endloop
  endfacet
  facet normal 0 -1 0
    outer loop
      vertex 44 2 2
      vertex 20 2 2
      vertex 47.8579 2 0
    endloop
  endfacet
  facet normal 0 -1 0
    outer loop
      vertex 46 2 2
      vertex 44 2 2
      vertex 47.8579 2 0
    endloop
  endfacet
  facet normal 0 -1 0
    outer loop
      vertex 47.8579 2 2
      vertex 46 2 2
      vertex 47.8579 2 0
    endloop
  endfacet
  facet normal 0 -1 0
    outer loop
      vertex 46 2 11
      vertex 44 2 2
      vertex 46 2 2
    endloop
  endfacet
  facet normal 0 -1 0
    outer loop
      vertex 44 2 11
      vertex 44 2 2
      vertex 46 2 11
    endloop
  endfacet
  facet normal -1 0 0
    outer loop
      vertex 20 2 0
      vertex 20 2 2
      vertex 20 2.006 0
    endloop
  endfacet
  facet normal -1 0 0
    outer loop
      vertex 20 2.006 0
      vertex 20 2 2
      vertex 20 2.006 2
    endloop
  endfacet
  facet normal 0 -1 0
    outer loop
      vertex 5.188 2.006 2
      vertex 5.188 2.006 0
      vertex 20 2.006 0
    endloop
  endfacet
  facet normal 0 -1 0
    outer loop
      vertex 5.18879 2.006 2
      vertex 5.188 2.006 2
      vertex 20 2.006 0
    endloop
  endfacet
  facet normal 0 -1 0
    outer loop
      vertex 20 2.006 2
      vertex 5.18879 2.006 2
      vertex 20 2.006 0
    endloop
  endfacet
  facet normal 0 0 -1
    outer loop
      vertex 4.95922 2.02034 2
      vertex 5.188 2.006 2
      vertex 5.18837 2.00592 2
    endloop
  endfacet
  facet normal 0 0 -1
    outer loop
      vertex 5.18837 2.00592 2
      vertex 5.188 2.006 2
      vertex 5.18879 2.006 2
    endloop
  endfacet
  facet normal 0.187381 -0.982287 0
    outer loop
      vertex 5.18837 2.00592 3
      vertex 5.18837 2.00592 2
      vertex 5.18879 2.006 2
    endloop
  endfacet
  facet normal 0.187381 -0.982287 0
    outer loop
      vertex 5.92705 2.14683 3
      vertex 5.18837 2.00592 3
      vertex 5.92705 2.14683 2
    endloop
  endfacet
  facet normal 0.187381 -0.982287 0
    outer loop
      vertex 5.92705 2.14683 2
      vertex 5.18837 2.00592 3
      vertex 5.18879 2.006 2
    endloop
  endfacet
  facet normal 0.42578 -0.904827 0
    outer loop
      vertex 5.92705 2.14683 3
      vertex 5.92705 2.14683 2
      vertex 6.60748 2.46702 2
    endloop
  endfacet
  facet normal 0.42578 -0.904827 0
    outer loop
      vertex 6.60748 2.46702 3
      vertex 5.92705 2.14683 3
      vertex 6.60748 2.46702 2
    endloop
  endfacet
  facet normal 0.637424 -0.770513 0
    outer loop
      vertex 6.60748 2.46702 3
      vertex 6.60748 2.46702 2
      vertex 7.18691 2.94636 2
    endloop
  endfacet
  facet normal 0.637424 -0.770513 0
    outer loop
      vertex 7.18691 2.94636 3
      vertex 6.60748 2.46702 3
      vertex 7.18691 2.94636 2
    endloop
  endfacet
  facet normal 0.809017 -0.587785 0
    outer loop
      vertex 7.18691 2.94636 3
      vertex 7.18691 2.94636 2
      vertex 7.62892 3.55474 2
    endloop
  endfacet
  facet normal 0.809017 -0.587785 0
    outer loop
      vertex 7.62892 3.55474 3
      vertex 7.18691 2.94636 3
      vertex 7.62892 3.55474 2
    endloop
  endfacet
  facet normal 0.929777 -0.368124 0
    outer loop
      vertex 7.62892 3.55474 3
      vertex 7.62892 3.55474 2
      vertex 7.90575 4.25393 2
    endloop
  endfacet
  facet normal 0.929777 -0.368124 0
    outer loop
      vertex 7.90575 4.25393 3
      vertex 7.62892 3.55474 3
      vertex 7.90575 4.25393 2
    endloop
  endfacet
  facet normal 0.992115 -0.125334 0
    outer loop
      vertex 7.90575 4.25393 3
      vertex 7.90575 4.25393 2
      vertex 8 5 2
    endloop
  endfacet
  facet normal 0.992115 -0.125334 0
    outer loop
      vertex 8 5 3
      vertex 7.90575 4.25393 3
      vertex 8 5 2
    endloop
  endfacet
  facet normal 0.992115 0.125334 0
    outer loop
      vertex 8 5 2
      vertex 7.90575 5.74607 2
      vertex 7.90575 5.74607 3
    endloop
  endfacet
  facet normal 0.992115 0.125334 0
    outer loop
      vertex 8 5 3
      vertex 8 5 2
      vertex 7.90575 5.74607 3
    endloop
  endfacet
  facet normal 0.929777 0.368124 0
    outer loop
      vertex 7.90575 5.74607 2
      vertex 7.62892 6.44526 2
      vertex 7.62892 6.44526 3
    endloop
  endfacet
  facet normal 0.929777 0.368124 0
    outer loop
      vertex 7.90575 5.74607 3
      vertex 7.90575 5.74607 2
      vertex 7.62892 6.44526 3
    endloop
  endfacet
  facet normal 0.809017 0.587785 0
    outer loop
      vertex 7.62892 6.44526 2
      vertex 7.18691 7.05364 2
      vertex 7.18691 7.05364 3
    endloop
  endfacet
  facet normal 0.809017 0.587785 0
    outer loop
      vertex 7.62892 6.44526 3
      vertex 7.62892 6.44526 2
      vertex 7.18691 7.05364 3
    endloop
  endfacet
  facet normal 0.637424 0.770513 0
    outer loop
      vertex 6.60748 7.53298 2
      vertex 6.60748 7.53298 3
      vertex 7.18691 7.05364 2
    endloop
  endfacet
  facet normal 0.637424 0.770513 0
    outer loop
      vertex 7.18691 7.05364 2
      vertex 6.60748 7.53298 3
      vertex 7.18691 7.05364 3
    endloop
  endfacet
  facet normal 0.42578 0.904827 0
    outer loop
      vertex 5.92705 7.85317 2
      vertex 5.92705 7.85317 3
      vertex 6.60748 7.53298 2
    endloop
  endfacet
  facet normal 0.42578 0.904827 0
    outer loop
      vertex 6.60748 7.53298 2
      vertex 5.92705 7.85317 3
      vertex 6.60748 7.53298 3
    endloop
  endfacet
  facet normal 0.187381 0.982287 0
    outer loop
      vertex 5.18837 7.99408 2
      vertex 5.18837 7.99408 3
      vertex 5.92705 7.85317 2
    endloop
  endfacet
  facet normal 0.187381 0.982287 0
    outer loop
      vertex 5.92705 7.85317 2
      vertex 5.18837 7.99408 3
      vertex 5.92705 7.85317 3
    endloop
  endfacet
  facet normal -0.0627899 0.998027 0
    outer loop
      vertex 4.43786 7.94686 2
      vertex 4.43786 7.94686 3
      vertex 5.18837 7.99408 2
    endloop
  endfacet
  facet normal -0.0627899 0.998027 0
    outer loop
      vertex 5.18837 7.99408 2
      vertex 4.43786 7.94686 3
      vertex 5.18837 7.99408 3
    endloop
  endfacet
  facet normal -0.309017 0.951056 0
    outer loop
      vertex 3.72266 7.71448 2
      vertex 3.72266 7.71448 3
      vertex 4.43786 7.94686 2
    endloop
  endfacet
  facet normal -0.309017 0.951056 0
    outer loop
      vertex 4.43786 7.94686 2
      vertex 3.72266 7.71448 3
      vertex 4.43786 7.94686 3
    endloop
  endfacet
  facet normal -0.535826 0.844328 0
    outer loop
      vertex 3.08773 7.31154 2
      vertex 3.08773 7.31154 3
      vertex 3.72266 7.71448 2
    endloop
  endfacet
  facet normal -0.535826 0.844328 0
    outer loop
      vertex 3.72266 7.71448 2
      vertex 3.08773 7.31154 3
      vertex 3.72266 7.71448 3
    endloop
  endfacet
  facet normal -0.728969 0.684547 0
    outer loop
      vertex 2.57295 6.76336 2
      vertex 2.57295 6.76336 3
      vertex 3.08773 7.31154 2
    endloop
  endfacet
  facet normal -0.728969 0.684547 0
    outer loop
      vertex 3.08773 7.31154 2
      vertex 2.57295 6.76336 3
      vertex 3.08773 7.31154 3
    endloop
  endfacet
  facet normal 0 -1 0
    outer loop
      vertex 23.5 14 0
      vertex 23.5 14 2
      vertex 15 14 2
    endloop
  endfacet
  facet normal 0 -1 0
    outer loop
      vertex 15 14 0
      vertex 23.5 14 0
      vertex 15 14 2
    endloop
  endfacet
  facet normal 1 0 0
    outer loop
      vertex 15 14 0
      vertex 15 14 2
      vertex 15 6 2
    endloop
  endfacet
  facet normal 1 0 0
    outer loop
      vertex 15 6 0
      vertex 15 14 0
      vertex 15 6 2
    endloop
  endfacet
  facet normal 0 1 0
    outer loop
      vertex 23.5 6 2
      vertex 23.5 6 0
      vertex 15 6 2
    endloop
  endfacet
  facet normal 0 1 0
    outer loop
      vertex 15 6 2
      vertex 23.5 6 0
      vertex 15 6 0
    endloop
  endfacet
  facet normal -1 0 0
    outer loop
      vertex 23.5 14 2
      vertex 23.5 14 0
      vertex 23.5 6 2
    endloop
  endfacet
  facet normal -1 0 0
    outer loop
      vertex 23.5 6 2
      vertex 23.5 14 0
      vertex 23.5 6 0
    endloop
  endfacet
  facet normal -0.0627899 -0.998027 0
    outer loop
      vertex 4.43786 2.05314 3
      vertex 4.43786 2.05314 2
      vertex 4.95922 2.02034 2
    endloop
  endfacet
  facet normal -0.0627899 -0.998027 0
    outer loop
      vertex 5.18837 2.00592 3
      vertex 4.43786 2.05314 3
      vertex 5.18837 2.00592 2
    endloop
  endfacet
  facet normal -0.0627899 -0.998027 0
    outer loop
      vertex 5.18837 2.00592 2
      vertex 4.43786 2.05314 3
      vertex 4.95922 2.02034 2
    endloop
  endfacet
  facet normal -0.309017 -0.951056 0
    outer loop
      vertex 3.72266 2.28552 3
      vertex 3.72266 2.28552 2
      vertex 4.34238 2.08416 2
    endloop
  endfacet
  facet normal -0.309017 -0.951056 0
    outer loop
      vertex 4.43786 2.05314 3
      vertex 3.72266 2.28552 3
      vertex 4.43786 2.05314 2
    endloop
  endfacet
  facet normal -0.309017 -0.951056 0
    outer loop
      vertex 4.43786 2.05314 2
      vertex 3.72266 2.28552 3
      vertex 4.34238 2.08416 2
    endloop
  endfacet
  facet normal 1 0 0
    outer loop
      vertex 3.3134 5.21307 0
      vertex 3.3134 5.21307 3
      vertex 3.3134 4.78693 3
    endloop
  endfacet
  facet normal 1 0 0
    outer loop
      vertex 3.3134 4.78693 0
      vertex 3.3134 5.21307 0
      vertex 3.3134 4.78693 3
    endloop
  endfacet
  facet normal 0.968583 0.24869 0
    outer loop
      vertex 3.3134 4.78693 3
      vertex 3.41938 4.37419 3
      vertex 3.41938 4.37419 0
    endloop
  endfacet
  facet normal 0.968583 0.24869 0
    outer loop
      vertex 3.3134 4.78693 0
      vertex 3.3134 4.78693 3
      vertex 3.41938 4.37419 0
    endloop
  endfacet
  facet normal 0.876307 0.481754 0
    outer loop
      vertex 3.41938 4.37419 3
      vertex 3.62467 4.00076 3
      vertex 3.62467 4.00076 0
    endloop
  endfacet
  facet normal 0.876307 0.481754 0
    outer loop
      vertex 3.41938 4.37419 0
      vertex 3.41938 4.37419 3
      vertex 3.62467 4.00076 0
    endloop
  endfacet
  facet normal 0.728969 0.684546 0
    outer loop
      vertex 3.62467 4.00076 3
      vertex 3.91638 3.69013 3
      vertex 3.91638 3.69013 0
    endloop
  endfacet
  facet normal 0.728969 0.684546 0
    outer loop
      vertex 3.62467 4.00076 0
      vertex 3.62467 4.00076 3
      vertex 3.91638 3.69013 0
    endloop
  endfacet
  facet normal 0.535826 0.844328 0
    outer loop
      vertex 4.27617 3.46179 3
      vertex 4.27617 3.46179 0
      vertex 3.91638 3.69013 3
    endloop
  endfacet
  facet normal 0.535826 0.844328 0
    outer loop
      vertex 3.91638 3.69013 3
      vertex 4.27617 3.46179 0
      vertex 3.91638 3.69013 0
    endloop
  endfacet
  facet normal 0.309016 0.951057 0
    outer loop
      vertex 4.68145 3.33011 3
      vertex 4.68145 3.33011 0
      vertex 4.27617 3.46179 3
    endloop
  endfacet
  facet normal 0.309016 0.951057 0
    outer loop
      vertex 4.27617 3.46179 3
      vertex 4.68145 3.33011 0
      vertex 4.27617 3.46179 0
    endloop
  endfacet
  facet normal 0.0627903 0.998027 0
    outer loop
      vertex 5.10674 3.30335 3
      vertex 5.10674 3.30335 0
      vertex 4.68145 3.33011 3
    endloop
  endfacet
  facet normal 0.0627903 0.998027 0
    outer loop
      vertex 4.68145 3.33011 3
      vertex 5.10674 3.30335 0
      vertex 4.68145 3.33011 0
    endloop
  endfacet
  facet normal -0.187381 0.982287 0
    outer loop
      vertex 5.52533 3.3832 3
      vertex 5.52533 3.3832 0
      vertex 5.10674 3.30335 3
    endloop
  endfacet
  facet normal -0.187381 0.982287 0
    outer loop
      vertex 5.10674 3.30335 3
      vertex 5.52533 3.3832 0
      vertex 5.10674 3.30335 0
    endloop
  endfacet
  facet normal -0.42578 0.904827 0
    outer loop
      vertex 5.91091 3.56464 3
      vertex 5.91091 3.56464 0
      vertex 5.52533 3.3832 3
    endloop
  endfacet
  facet normal -0.42578 0.904827 0
    outer loop
      vertex 5.52533 3.3832 3
      vertex 5.91091 3.56464 0
      vertex 5.52533 3.3832 0
    endloop
  endfacet
  facet normal -0.637424 0.770514 0
    outer loop
      vertex 6.23925 3.83627 3
      vertex 6.23925 3.83627 0
      vertex 5.91091 3.56464 3
    endloop
  endfacet
  facet normal -0.637424 0.770514 0
    outer loop
      vertex 5.91091 3.56464 3
      vertex 6.23925 3.83627 0
      vertex 5.91091 3.56464 0
    endloop
  endfacet
  facet normal -0.809018 0.587784 0
    outer loop
      vertex 6.48972 4.18102 3
      vertex 6.48972 4.18102 0
      vertex 6.23925 3.83627 3
    endloop
  endfacet
  facet normal -0.809018 0.587784 0
    outer loop
      vertex 6.23925 3.83627 3
      vertex 6.48972 4.18102 0
      vertex 6.23925 3.83627 0
    endloop
  endfacet
  facet normal -0.929776 0.368125 0
    outer loop
      vertex 6.64659 4.57723 3
      vertex 6.64659 4.57723 0
      vertex 6.48972 4.18102 3
    endloop
  endfacet
  facet normal -0.929776 0.368125 0
    outer loop
      vertex 6.48972 4.18102 3
      vertex 6.64659 4.57723 0
      vertex 6.48972 4.18102 0
    endloop
  endfacet
  facet normal -0.992115 0.125334 0
    outer loop
      vertex 6.7 5 3
      vertex 6.7 5 0
      vertex 6.64659 4.57723 3
    endloop
  endfacet
  facet normal -0.992115 0.125334 0
    outer loop
      vertex 6.64659 4.57723 3
      vertex 6.7 5 0
      vertex 6.64659 4.57723 0
    endloop
  endfacet
  facet normal -0.992115 -0.125334 0
    outer loop
      vertex 6.7 5 3
      vertex 6.64659 5.42277 3
      vertex 6.7 5 0
    endloop
  endfacet
  facet normal -0.992115 -0.125334 0
    outer loop
      vertex 6.7 5 0
      vertex 6.64659 5.42277 3
      vertex 6.64659 5.42277 0
    endloop
  endfacet
  facet normal -0.929776 -0.368125 0
    outer loop
      vertex 6.64659 5.42277 3
      vertex 6.48972 5.81898 3
      vertex 6.64659 5.42277 0
    endloop
  endfacet
  facet normal -0.929776 -0.368125 0
    outer loop
      vertex 6.64659 5.42277 0
      vertex 6.48972 5.81898 3
      vertex 6.48972 5.81898 0
    endloop
  endfacet
  facet normal -0.809018 -0.587784 0
    outer loop
      vertex 6.48972 5.81898 3
      vertex 6.23925 6.16373 3
      vertex 6.48972 5.81898 0
    endloop
  endfacet
  facet normal -0.809018 -0.587784 0
    outer loop
      vertex 6.48972 5.81898 0
      vertex 6.23925 6.16373 3
      vertex 6.23925 6.16373 0
    endloop
  endfacet
  facet normal -0.637424 -0.770514 0
    outer loop
      vertex 6.23925 6.16373 0
      vertex 6.23925 6.16373 3
      vertex 5.91091 6.43536 3
    endloop
  endfacet
  facet normal -0.637424 -0.770514 0
    outer loop
      vertex 5.91091 6.43536 0
      vertex 6.23925 6.16373 0
      vertex 5.91091 6.43536 3
    endloop
  endfacet
  facet normal -0.42578 -0.904827 0
    outer loop
      vertex 5.91091 6.43536 0
      vertex 5.91091 6.43536 3
      vertex 5.52533 6.6168 3
    endloop
  endfacet
  facet normal -0.42578 -0.904827 0
    outer loop
      vertex 5.52533 6.6168 0
      vertex 5.91091 6.43536 0
      vertex 5.52533 6.6168 3
    endloop
  endfacet
  facet normal -0.187381 -0.982287 0
    outer loop
      vertex 5.52533 6.6168 0
      vertex 5.52533 6.6168 3
      vertex 5.10674 6.69664 3
    endloop
  endfacet
  facet normal -0.187381 -0.982287 0
    outer loop
      vertex 5.10674 6.69664 0
      vertex 5.52533 6.6168 0
      vertex 5.10674 6.69664 3
    endloop
  endfacet
  facet normal 0.0627903 -0.998027 0
    outer loop
      vertex 5.10674 6.69664 0
      vertex 5.10674 6.69664 3
      vertex 4.68145 6.66989 3
    endloop
  endfacet
  facet normal 0.0627903 -0.998027 0
    outer loop
      vertex 4.68145 6.66989 0
      vertex 5.10674 6.69664 0
      vertex 4.68145 6.66989 3
    endloop
  endfacet
  facet normal 0.309016 -0.951057 0
    outer loop
      vertex 4.68145 6.66989 0
      vertex 4.68145 6.66989 3
      vertex 4.27617 6.53821 3
    endloop
  endfacet
  facet normal 0.309016 -0.951057 0
    outer loop
      vertex 4.27617 6.53821 0
      vertex 4.68145 6.66989 0
      vertex 4.27617 6.53821 3
    endloop
  endfacet
  facet normal 0.535826 -0.844328 0
    outer loop
      vertex 4.27617 6.53821 0
      vertex 4.27617 6.53821 3
      vertex 3.91638 6.30987 3
    endloop
  endfacet
  facet normal 0.535826 -0.844328 0
    outer loop
      vertex 3.91638 6.30987 0
      vertex 4.27617 6.53821 0
      vertex 3.91638 6.30987 3
    endloop
  endfacet
  facet normal 0.728969 -0.684546 0
    outer loop
      vertex 3.91638 6.30987 0
      vertex 3.91638 6.30987 3
      vertex 3.62467 5.99923 3
    endloop
  endfacet
  facet normal 0.728969 -0.684546 0
    outer loop
      vertex 3.62467 5.99923 0
      vertex 3.91638 6.30987 0
      vertex 3.62467 5.99923 3
    endloop
  endfacet
  facet normal 0.876307 -0.481754 0
    outer loop
      vertex 3.62467 5.99923 0
      vertex 3.62467 5.99923 3
      vertex 3.41938 5.62581 3
    endloop
  endfacet
  facet normal 0.876307 -0.481754 0
    outer loop
      vertex 3.41938 5.62581 0
      vertex 3.62467 5.99923 0
      vertex 3.41938 5.62581 3
    endloop
  endfacet
  facet normal 0.968583 -0.24869 0
    outer loop
      vertex 3.41938 5.62581 0
      vertex 3.41938 5.62581 3
      vertex 3.3134 5.21307 3
    endloop
  endfacet
  facet normal 0.968583 -0.24869 0
    outer loop
      vertex 3.3134 5.21307 0
      vertex 3.41938 5.62581 0
      vertex 3.3134 5.21307 3
    endloop
  endfacet
  facet normal -0.309838 -0.950789 0
    outer loop
      vertex 3.723 2.286 2
      vertex 3.723 2.286 0
      vertex 4.438 2.053 0
    endloop
  endfacet
  facet normal -0.309838 -0.950789 0
    outer loop
      vertex 4.34238 2.08416 2
      vertex 3.723 2.286 2
      vertex 4.438 2.053 0
    endloop
  endfacet
  facet normal -0.309838 -0.950789 0
    outer loop
      vertex 4.438 2.053 2
      vertex 4.34238 2.08416 2
      vertex 4.438 2.053 0
    endloop
  endfacet
  facet normal 0 0 1
    outer loop
      vertex 4.438 2.053 2
      vertex 4.95922 2.02034 2
      vertex 4.43786 2.05314 2
    endloop
  endfacet
  facet normal 0 0 1
    outer loop
      vertex 4.34238 2.08416 2
      vertex 4.438 2.053 2
      vertex 4.43786 2.05314 2
    endloop
  endfacet
  facet normal -0.062544 -0.998042 0
    outer loop
      vertex 4.438 2.053 2
      vertex 4.438 2.053 0
      vertex 5.188 2.006 0
    endloop
  endfacet
  facet normal -0.062544 -0.998042 0
    outer loop
      vertex 4.95922 2.02034 2
      vertex 4.438 2.053 2
      vertex 5.188 2.006 0
    endloop
  endfacet
  facet normal -0.062544 -0.998042 0
    outer loop
      vertex 5.188 2.006 2
      vertex 4.95922 2.02034 2
      vertex 5.188 2.006 0
    endloop
  endfacet
  facet normal 0.707107 -0.707107 0
    outer loop
      vertex 50 4.14214 0
      vertex 50 4.14214 2
      vertex 47.8579 2 2
    endloop
  endfacet
  facet normal 0.707107 -0.707107 0
    outer loop
      vertex 47.8579 2 0
      vertex 50 4.14214 0
      vertex 47.8579 2 2
    endloop
  endfacet
  facet normal 1 0 0
    outer loop
      vertex 50 4.14214 2
      vertex 50 4.14214 0
      vertex 50 12 0
    endloop
  endfacet
  facet normal 1 0 0
    outer loop
      vertex 50 10 2
      vertex 50 4.14214 2
      vertex 50 12 0
    endloop
  endfacet
  facet normal 1 0 0
    outer loop
      vertex 50 12 27
      vertex 50 10 2
      vertex 50 12 0
    endloop
  endfacet
  facet normal 1 0 0
    outer loop
      vertex 50 10 27
      vertex 50 10 2
      vertex 50 12 27
    endloop
  endfacet
  facet normal -0.062544 0.998042 0
    outer loop
      vertex 4.438 17.947 0
      vertex 4.438 17.947 2
      vertex 5.188 17.994 0
    endloop
  endfacet
  facet normal -0.062544 0.998042 0
    outer loop
      vertex 5.188 17.994 0
      vertex 4.438 17.947 2
      vertex 4.95922 17.9797 2
    endloop
  endfacet
  facet normal -0.062544 0.998042 0
    outer loop
      vertex 5.188 17.994 0
      vertex 4.95922 17.9797 2
      vertex 5.188 17.994 2
    endloop
  endfacet
  facet normal -0.309838 0.950789 0
    outer loop
      vertex 3.723 17.714 0
      vertex 3.723 17.714 2
      vertex 4.438 17.947 0
    endloop
  endfacet
  facet normal -0.309838 0.950789 0
    outer loop
      vertex 4.438 17.947 0
      vertex 3.723 17.714 2
      vertex 4.34238 17.9158 2
    endloop
  endfacet
  facet normal -0.309838 0.950789 0
    outer loop
      vertex 4.438 17.947 0
      vertex 4.34238 17.9158 2
      vertex 4.438 17.947 2
    endloop
  endfacet
  facet normal -0.534894 0.844919 0
    outer loop
      vertex 3.088 17.312 0
      vertex 3.088 17.312 2
      vertex 3.723 17.714 0
    endloop
  endfacet
  facet normal -0.534894 0.844919 0
    outer loop
      vertex 3.723 17.714 0
      vertex 3.088 17.312 2
      vertex 3.27367 17.4295 2
    endloop
  endfacet
  facet normal -0.534894 0.844919 0
    outer loop
      vertex 3.723 17.714 0
      vertex 3.27367 17.4295 2
      vertex 3.723 17.714 2
    endloop
  endfacet
  facet normal -0.72933 0.684162 0
    outer loop
      vertex 2.573 16.763 0
      vertex 2.573 16.763 2
      vertex 3.088 17.312 0
    endloop
  endfacet
  facet normal -0.72933 0.684162 0
    outer loop
      vertex 3.088 17.312 0
      vertex 2.573 16.763 2
      vertex 2.93691 17.1509 2
    endloop
  endfacet
  facet normal -0.72933 0.684162 0
    outer loop
      vertex 3.088 17.312 0
      vertex 2.93691 17.1509 2
      vertex 3.088 17.312 2
    endloop
  endfacet
  facet normal -0.876469 0.481459 0
    outer loop
      vertex 2.211 16.104 0
      vertex 2.211 16.104 2
      vertex 2.573 16.763 0
    endloop
  endfacet
  facet normal -0.876469 0.481459 0
    outer loop
      vertex 2.573 16.763 0
      vertex 2.211 16.104 2
      vertex 2.573 16.763 2
    endloop
  endfacet
  facet normal 1 0 0
    outer loop
      vertex 3.3134 15.2131 0
      vertex 3.3134 15.2131 3
      vertex 3.3134 14.7869 3
    endloop
  endfacet
  facet normal 1 0 0
    outer loop
      vertex 3.3134 14.7869 0
      vertex 3.3134 15.2131 0
      vertex 3.3134 14.7869 3
    endloop
  endfacet
  facet normal 0.968583 -0.24869 0
    outer loop
      vertex 3.41938 15.6258 0
      vertex 3.41938 15.6258 3
      vertex 3.3134 15.2131 3
    endloop
  endfacet
  facet normal 0.968583 -0.24869 0
    outer loop
      vertex 3.3134 15.2131 0
      vertex 3.41938 15.6258 0
      vertex 3.3134 15.2131 3
    endloop
  endfacet
  facet normal 0.876307 -0.481754 0
    outer loop
      vertex 3.62467 15.9992 0
      vertex 3.62467 15.9992 3
      vertex 3.41938 15.6258 3
    endloop
  endfacet
  facet normal 0.876307 -0.481754 0
    outer loop
      vertex 3.41938 15.6258 0
      vertex 3.62467 15.9992 0
      vertex 3.41938 15.6258 3
    endloop
  endfacet
  facet normal 0.728969 -0.684546 0
    outer loop
      vertex 3.91638 16.3099 0
      vertex 3.91638 16.3099 3
      vertex 3.62467 15.9992 3
    endloop
  endfacet
  facet normal 0.728969 -0.684546 0
    outer loop
      vertex 3.62467 15.9992 0
      vertex 3.91638 16.3099 0
      vertex 3.62467 15.9992 3
    endloop
  endfacet
  facet normal 0.535826 -0.844328 0
    outer loop
      vertex 4.27617 16.5382 0
      vertex 4.27617 16.5382 3
      vertex 3.91638 16.3099 3
    endloop
  endfacet
  facet normal 0.535826 -0.844328 0
    outer loop
      vertex 3.91638 16.3099 0
      vertex 4.27617 16.5382 0
      vertex 3.91638 16.3099 3
    endloop
  endfacet
  facet normal 0.309016 -0.951057 0
    outer loop
      vertex 4.68145 16.6699 0
      vertex 4.68145 16.6699 3
      vertex 4.27617 16.5382 3
    endloop
  endfacet
  facet normal 0.309016 -0.951057 0
    outer loop
      vertex 4.27617 16.5382 0
      vertex 4.68145 16.6699 0
      vertex 4.27617 16.5382 3
    endloop
  endfacet
  facet normal 0.0627903 -0.998027 0
    outer loop
      vertex 5.10674 16.6966 0
      vertex 5.10674 16.6966 3
      vertex 4.68145 16.6699 3
    endloop
  endfacet
  facet normal 0.0627903 -0.998027 0
    outer loop
      vertex 4.68145 16.6699 0
      vertex 5.10674 16.6966 0
      vertex 4.68145 16.6699 3
    endloop
  endfacet
  facet normal -0.187381 -0.982287 0
    outer loop
      vertex 5.52533 16.6168 0
      vertex 5.52533 16.6168 3
      vertex 5.10674 16.6966 3
    endloop
  endfacet
  facet normal -0.187381 -0.982287 0
    outer loop
      vertex 5.10674 16.6966 0
      vertex 5.52533 16.6168 0
      vertex 5.10674 16.6966 3
    endloop
  endfacet
  facet normal -0.42578 -0.904827 0
    outer loop
      vertex 5.91091 16.4354 0
      vertex 5.91091 16.4354 3
      vertex 5.52533 16.6168 3
    endloop
  endfacet
  facet normal -0.42578 -0.904827 0
    outer loop
      vertex 5.52533 16.6168 0
      vertex 5.91091 16.4354 0
      vertex 5.52533 16.6168 3
    endloop
  endfacet
  facet normal -0.637424 -0.770514 0
    outer loop
      vertex 6.23925 16.1637 0
      vertex 6.23925 16.1637 3
      vertex 5.91091 16.4354 3
    endloop
  endfacet
  facet normal -0.637424 -0.770514 0
    outer loop
      vertex 5.91091 16.4354 0
      vertex 6.23925 16.1637 0
      vertex 5.91091 16.4354 3
    endloop
  endfacet
  facet normal -0.809018 -0.587784 0
    outer loop
      vertex 6.48972 15.819 3
      vertex 6.23925 16.1637 3
      vertex 6.48972 15.819 0
    endloop
  endfacet
  facet normal -0.809018 -0.587784 0
    outer loop
      vertex 6.48972 15.819 0
      vertex 6.23925 16.1637 3
      vertex 6.23925 16.1637 0
    endloop
  endfacet
  facet normal -0.929776 -0.368125 0
    outer loop
      vertex 6.64659 15.4228 3
      vertex 6.48972 15.819 3
      vertex 6.64659 15.4228 0
    endloop
  endfacet
  facet normal -0.929776 -0.368125 0
    outer loop
      vertex 6.64659 15.4228 0
      vertex 6.48972 15.819 3
      vertex 6.48972 15.819 0
    endloop
  endfacet
  facet normal -0.992115 -0.125334 0
    outer loop
      vertex 6.7 15 3
      vertex 6.64659 15.4228 3
      vertex 6.7 15 0
    endloop
  endfacet
  facet normal -0.992115 -0.125334 0
    outer loop
      vertex 6.7 15 0
      vertex 6.64659 15.4228 3
      vertex 6.64659 15.4228 0
    endloop
  endfacet
  facet normal -0.992115 0.125334 0
    outer loop
      vertex 6.7 15 3
      vertex 6.7 15 0
      vertex 6.64659 14.5772 3
    endloop
  endfacet
  facet normal -0.992115 0.125334 0
    outer loop
      vertex 6.64659 14.5772 3
      vertex 6.7 15 0
      vertex 6.64659 14.5772 0
    endloop
  endfacet
  facet normal -0.929776 0.368125 0
    outer loop
      vertex 6.64659 14.5772 3
      vertex 6.64659 14.5772 0
      vertex 6.48972 14.181 3
    endloop
  endfacet
  facet normal -0.929776 0.368125 0
    outer loop
      vertex 6.48972 14.181 3
      vertex 6.64659 14.5772 0
      vertex 6.48972 14.181 0
    endloop
  endfacet
  facet normal -0.809018 0.587784 0
    outer loop
      vertex 6.48972 14.181 3
      vertex 6.48972 14.181 0
      vertex 6.23925 13.8363 3
    endloop
  endfacet
  facet normal -0.809018 0.587784 0
    outer loop
      vertex 6.23925 13.8363 3
      vertex 6.48972 14.181 0
      vertex 6.23925 13.8363 0
    endloop
  endfacet
  facet normal -0.637424 0.770514 0
    outer loop
      vertex 6.23925 13.8363 3
      vertex 6.23925 13.8363 0
      vertex 5.91091 13.5646 3
    endloop
  endfacet
  facet normal -0.637424 0.770514 0
    outer loop
      vertex 5.91091 13.5646 3
      vertex 6.23925 13.8363 0
      vertex 5.91091 13.5646 0
    endloop
  endfacet
  facet normal -0.42578 0.904827 0
    outer loop
      vertex 5.91091 13.5646 3
      vertex 5.91091 13.5646 0
      vertex 5.52533 13.3832 3
    endloop
  endfacet
  facet normal -0.42578 0.904827 0
    outer loop
      vertex 5.52533 13.3832 3
      vertex 5.91091 13.5646 0
      vertex 5.52533 13.3832 0
    endloop
  endfacet
  facet normal -0.187381 0.982287 0
    outer loop
      vertex 5.52533 13.3832 3
      vertex 5.52533 13.3832 0
      vertex 5.10674 13.3034 3
    endloop
  endfacet
  facet normal -0.187381 0.982287 0
    outer loop
      vertex 5.10674 13.3034 3
      vertex 5.52533 13.3832 0
      vertex 5.10674 13.3034 0
    endloop
  endfacet
  facet normal 0.0627903 0.998027 0
    outer loop
      vertex 5.10674 13.3034 3
      vertex 5.10674 13.3034 0
      vertex 4.68145 13.3301 3
    endloop
  endfacet
  facet normal 0.0627903 0.998027 0
    outer loop
      vertex 4.68145 13.3301 3
      vertex 5.10674 13.3034 0
      vertex 4.68145 13.3301 0
    endloop
  endfacet
  facet normal 0.309016 0.951057 0
    outer loop
      vertex 4.68145 13.3301 3
      vertex 4.68145 13.3301 0
      vertex 4.27617 13.4618 3
    endloop
  endfacet
  facet normal 0.309016 0.951057 0
    outer loop
      vertex 4.27617 13.4618 3
      vertex 4.68145 13.3301 0
      vertex 4.27617 13.4618 0
    endloop
  endfacet
  facet normal 0.535826 0.844328 0
    outer loop
      vertex 4.27617 13.4618 3
      vertex 4.27617 13.4618 0
      vertex 3.91638 13.6901 3
    endloop
  endfacet
  facet normal 0.535826 0.844328 0
    outer loop
      vertex 3.91638 13.6901 3
      vertex 4.27617 13.4618 0
      vertex 3.91638 13.6901 0
    endloop
  endfacet
  facet normal 0.728969 0.684546 0
    outer loop
      vertex 3.62467 14.0008 3
      vertex 3.91638 13.6901 3
      vertex 3.91638 13.6901 0
    endloop
  endfacet
  facet normal 0.728969 0.684546 0
    outer loop
      vertex 3.62467 14.0008 0
      vertex 3.62467 14.0008 3
      vertex 3.91638 13.6901 0
    endloop
  endfacet
  facet normal 0.876307 0.481754 0
    outer loop
      vertex 3.41938 14.3742 3
      vertex 3.62467 14.0008 3
      vertex 3.62467 14.0008 0
    endloop
  endfacet
  facet normal 0.876307 0.481754 0
    outer loop
      vertex 3.41938 14.3742 0
      vertex 3.41938 14.3742 3
      vertex 3.62467 14.0008 0
    endloop
  endfacet
  facet normal 0.968583 0.24869 0
    outer loop
      vertex 3.3134 14.7869 3
      vertex 3.41938 14.3742 3
      vertex 3.41938 14.3742 0
    endloop
  endfacet
  facet normal 0.968583 0.24869 0
    outer loop
      vertex 3.3134 14.7869 0
      vertex 3.3134 14.7869 3
      vertex 3.41938 14.3742 0
    endloop
  endfacet
  facet normal 0 0 1
    outer loop
      vertex 3.08773 17.3115 2
      vertex 3.27367 17.4295 2
      vertex 3.088 17.312 2
    endloop
  endfacet
  facet normal 0 0 1
    outer loop
      vertex 2.93691 17.1509 2
      vertex 3.08773 17.3115 2
      vertex 3.088 17.312 2
    endloop
  endfacet
  facet normal -0.728969 0.684547 0
    outer loop
      vertex 2.57295 16.7634 2
      vertex 2.57295 16.7634 3
      vertex 2.93691 17.1509 2
    endloop
  endfacet
  facet normal -0.728969 0.684547 0
    outer loop
      vertex 2.93691 17.1509 2
      vertex 2.57295 16.7634 3
      vertex 3.08773 17.3115 3
    endloop
  endfacet
  facet normal -0.728969 0.684547 0
    outer loop
      vertex 2.93691 17.1509 2
      vertex 3.08773 17.3115 3
      vertex 3.08773 17.3115 2
    endloop
  endfacet
  facet normal -0.876307 0.481753 0
    outer loop
      vertex 2.21067 16.1044 2
      vertex 2.21067 16.1044 3
      vertex 2.57295 16.7634 2
    endloop
  endfacet
  facet normal -0.876307 0.481753 0
    outer loop
      vertex 2.57295 16.7634 2
      vertex 2.21067 16.1044 3
      vertex 2.57295 16.7634 3
    endloop
  endfacet
  facet normal -0.968583 0.24869 0
    outer loop
      vertex 2.02366 15.376 2
      vertex 2.02366 15.376 3
      vertex 2.21067 16.1044 2
    endloop
  endfacet
  facet normal -0.968583 0.24869 0
    outer loop
      vertex 2.21067 16.1044 2
      vertex 2.02366 15.376 3
      vertex 2.21067 16.1044 3
    endloop
  endfacet
  facet normal -1 0 0
    outer loop
      vertex 2.02366 14.624 2
      vertex 2.02366 14.624 3
      vertex 2.02366 15.376 2
    endloop
  endfacet
  facet normal -1 0 0
    outer loop
      vertex 2.02366 15.376 2
      vertex 2.02366 14.624 3
      vertex 2.02366 15.376 3
    endloop
  endfacet
  facet normal 0 0 1
    outer loop
      vertex 2.02366 15.376 3
      vertex 2.02366 14.624 3
      vertex 2.21067 13.8956 3
    endloop
  endfacet
  facet normal 0 0 1
    outer loop
      vertex 3.08773 12.6885 3
      vertex 2.02366 15.376 3
      vertex 2.57295 13.2366 3
    endloop
  endfacet
  facet normal 0 0 1
    outer loop
      vertex 2.57295 13.2366 3
      vertex 2.02366 15.376 3
      vertex 2.21067 13.8956 3
    endloop
  endfacet
  facet normal 0 0 1
    outer loop
      vertex 3.72266 12.2855 3
      vertex 2.02366 15.376 3
      vertex 3.08773 12.6885 3
    endloop
  endfacet
  facet normal 0 0 1
    outer loop
      vertex 4.43786 12.0531 3
      vertex 2.02366 15.376 3
      vertex 3.72266 12.2855 3
    endloop
  endfacet
  facet normal 0 0 1
    outer loop
      vertex 5.18837 12.0059 3
      vertex 2.02366 15.376 3
      vertex 4.43786 12.0531 3
    endloop
  endfacet
  facet normal 0 0 1
    outer loop
      vertex 3.91638 13.6901 3
      vertex 2.02366 15.376 3
      vertex 5.18837 12.0059 3
    endloop
  endfacet
  facet normal 0 0 1
    outer loop
      vertex 5.91091 13.5646 3
      vertex 5.52533 13.3832 3
      vertex 7.18691 12.9464 3
    endloop
  endfacet
  facet normal 0 0 1
    outer loop
      vertex 6.64659 14.5772 3
      vertex 6.48972 14.181 3
      vertex 7.90575 14.2539 3
    endloop
  endfacet
  facet normal 0 0 1
    outer loop
      vertex 6.48972 15.819 3
      vertex 6.64659 15.4228 3
      vertex 7.90575 15.7461 3
    endloop
  endfacet
  facet normal 0 0 1
    outer loop
      vertex 4.68145 16.6699 3
      vertex 5.10674 16.6966 3
      vertex 6.60748 17.533 3
    endloop
  endfacet
  facet normal 0 0 1
    outer loop
      vertex 5.52533 16.6168 3
      vertex 5.91091 16.4354 3
      vertex 7.18691 17.0536 3
    endloop
  endfacet
  facet normal 0 0 1
    outer loop
      vertex 5.18837 17.9941 3
      vertex 2.02366 15.376 3
      vertex 5.92705 17.8532 3
    endloop
  endfacet
  facet normal 0 0 1
    outer loop
      vertex 4.43786 17.9469 3
      vertex 2.02366 15.376 3
      vertex 5.18837 17.9941 3
    endloop
  endfacet
  facet normal 0 0 1
    outer loop
      vertex 3.72266 17.7145 3
      vertex 2.02366 15.376 3
      vertex 4.43786 17.9469 3
    endloop
  endfacet
  facet normal 0 0 1
    outer loop
      vertex 3.08773 17.3115 3
      vertex 2.02366 15.376 3
      vertex 3.72266 17.7145 3
    endloop
  endfacet
  facet normal 0 0 1
    outer loop
      vertex 2.57295 16.7634 3
      vertex 2.02366 15.376 3
      vertex 3.08773 17.3115 3
    endloop
  endfacet
  facet normal 0 0 1
    outer loop
      vertex 2.21067 16.1044 3
      vertex 2.02366 15.376 3
      vertex 2.57295 16.7634 3
    endloop
  endfacet
  facet normal 0 0 1
    outer loop
      vertex 5.52533 13.3832 3
      vertex 5.10674 13.3034 3
      vertex 6.60748 12.467 3
    endloop
  endfacet
  facet normal 0 0 1
    outer loop
      vertex 3.3134 15.2131 3
      vertex 3.41938 15.6258 3
      vertex 2.02366 15.376 3
    endloop
  endfacet
  facet normal 0 0 1
    outer loop
      vertex 3.41938 15.6258 3
      vertex 3.62467 15.9992 3
      vertex 2.02366 15.376 3
    endloop
  endfacet
  facet normal 0 0 1
    outer loop
      vertex 5.91091 16.4354 3
      vertex 6.23925 16.1637 3
      vertex 7.62892 16.4453 3
    endloop
  endfacet
  facet normal 0 0 1
    outer loop
      vertex 5.92705 17.8532 3
      vertex 2.02366 15.376 3
      vertex 3.91638 16.3099 3
    endloop
  endfacet
  facet normal 0 0 1
    outer loop
      vertex 5.92705 17.8532 3
      vertex 4.27617 16.5382 3
      vertex 6.60748 17.533 3
    endloop
  endfacet
  facet normal 0 0 1
    outer loop
      vertex 5.92705 17.8532 3
      vertex 3.91638 16.3099 3
      vertex 4.27617 16.5382 3
    endloop
  endfacet
  facet normal 0 0 1
    outer loop
      vertex 4.27617 16.5382 3
      vertex 4.68145 16.6699 3
      vertex 6.60748 17.533 3
    endloop
  endfacet
  facet normal 0 0 1
    outer loop
      vertex 6.60748 17.533 3
      vertex 5.10674 16.6966 3
      vertex 7.18691 17.0536 3
    endloop
  endfacet
  facet normal 0 0 1
    outer loop
      vertex 5.10674 16.6966 3
      vertex 5.52533 16.6168 3
      vertex 7.18691 17.0536 3
    endloop
  endfacet
  facet normal 0 0 1
    outer loop
      vertex 7.18691 17.0536 3
      vertex 5.91091 16.4354 3
      vertex 7.62892 16.4453 3
    endloop
  endfacet
  facet normal 0 0 1
    outer loop
      vertex 3.62467 15.9992 3
      vertex 3.91638 16.3099 3
      vertex 2.02366 15.376 3
    endloop
  endfacet
  facet normal 0 0 1
    outer loop
      vertex 7.62892 16.4453 3
      vertex 6.23925 16.1637 3
      vertex 7.90575 15.7461 3
    endloop
  endfacet
  facet normal 0 0 1
    outer loop
      vertex 6.23925 16.1637 3
      vertex 6.48972 15.819 3
      vertex 7.90575 15.7461 3
    endloop
  endfacet
  facet normal 0 0 1
    outer loop
      vertex 7.90575 15.7461 3
      vertex 6.64659 15.4228 3
      vertex 8 15 3
    endloop
  endfacet
  facet normal 0 0 1
    outer loop
      vertex 6.64659 15.4228 3
      vertex 6.7 15 3
      vertex 8 15 3
    endloop
  endfacet
  facet normal 0 0 1
    outer loop
      vertex 8 15 3
      vertex 6.7 15 3
      vertex 7.90575 14.2539 3
    endloop
  endfacet
  facet normal 0 0 1
    outer loop
      vertex 6.7 15 3
      vertex 6.64659 14.5772 3
      vertex 7.90575 14.2539 3
    endloop
  endfacet
  facet normal 0 0 1
    outer loop
      vertex 7.90575 14.2539 3
      vertex 6.48972 14.181 3
      vertex 7.62892 13.5547 3
    endloop
  endfacet
  facet normal 0 0 1
    outer loop
      vertex 6.48972 14.181 3
      vertex 6.23925 13.8363 3
      vertex 7.62892 13.5547 3
    endloop
  endfacet
  facet normal 0 0 1
    outer loop
      vertex 7.62892 13.5547 3
      vertex 6.23925 13.8363 3
      vertex 7.18691 12.9464 3
    endloop
  endfacet
  facet normal 0 0 1
    outer loop
      vertex 6.23925 13.8363 3
      vertex 5.91091 13.5646 3
      vertex 7.18691 12.9464 3
    endloop
  endfacet
  facet normal 0 0 1
    outer loop
      vertex 7.18691 12.9464 3
      vertex 5.52533 13.3832 3
      vertex 6.60748 12.467 3
    endloop
  endfacet
  facet normal 0 0 1
    outer loop
      vertex 3.62467 14.0008 3
      vertex 3.41938 14.3742 3
      vertex 2.02366 15.376 3
    endloop
  endfacet
  facet normal 0 0 1
    outer loop
      vertex 6.60748 12.467 3
      vertex 5.10674 13.3034 3
      vertex 5.92705 12.1468 3
    endloop
  endfacet
  facet normal 0 0 1
    outer loop
      vertex 3.3134 14.7869 3
      vertex 3.3134 15.2131 3
      vertex 2.02366 15.376 3
    endloop
  endfacet
  facet normal 0 0 1
    outer loop
      vertex 5.10674 13.3034 3
      vertex 4.68145 13.3301 3
      vertex 5.92705 12.1468 3
    endloop
  endfacet
  facet normal 0 0 1
    outer loop
      vertex 5.92705 12.1468 3
      vertex 4.27617 13.4618 3
      vertex 5.18837 12.0059 3
    endloop
  endfacet
  facet normal 0 0 1
    outer loop
      vertex 4.27617 13.4618 3
      vertex 3.91638 13.6901 3
      vertex 5.18837 12.0059 3
    endloop
  endfacet
  facet normal 0 0 1
    outer loop
      vertex 3.62467 14.0008 3
      vertex 2.02366 15.376 3
      vertex 3.91638 13.6901 3
    endloop
  endfacet
  facet normal 0 0 1
    outer loop
      vertex 4.68145 13.3301 3
      vertex 4.27617 13.4618 3
      vertex 5.92705 12.1468 3
    endloop
  endfacet
  facet normal 0 0 1
    outer loop
      vertex 3.41938 14.3742 3
      vertex 3.3134 14.7869 3
      vertex 2.02366 15.376 3
    endloop
  endfacet
  facet normal -0.0627899 0.998027 0
    outer loop
      vertex 4.43786 17.9469 2
      vertex 4.43786 17.9469 3
      vertex 4.95922 17.9797 2
    endloop
  endfacet
  facet normal -0.0627899 0.998027 0
    outer loop
      vertex 4.95922 17.9797 2
      vertex 4.43786 17.9469 3
      vertex 5.18837 17.9941 3
    endloop
  endfacet
  facet normal -0.0627899 0.998027 0
    outer loop
      vertex 4.95922 17.9797 2
      vertex 5.18837 17.9941 3
      vertex 5.18837 17.9941 2
    endloop
  endfacet
  facet normal 0 0 1
    outer loop
      vertex 4.43786 17.9469 2
      vertex 4.95922 17.9797 2
      vertex 4.438 17.947 2
    endloop
  endfacet
  facet normal 0 0 1
    outer loop
      vertex 4.34238 17.9158 2
      vertex 4.43786 17.9469 2
      vertex 4.438 17.947 2
    endloop
  endfacet
  facet normal 0 0 1
    outer loop
      vertex 40 12 27
      vertex 40 10 27
      vertex 50 10 27
    endloop
  endfacet
  facet normal 0 0 1
    outer loop
      vertex 50 12 27
      vertex 40 12 27
      vertex 50 10 27
    endloop
  endfacet
  facet normal 0 0 1
    outer loop
      vertex 47.8579 2 2
      vertex 50 4.14214 2
      vertex 50 10 2
    endloop
  endfacet
  facet normal 0 0 1
    outer loop
      vertex 46 2 2
      vertex 47.8579 2 2
      vertex 46 10 2
    endloop
  endfacet
  facet normal 0 0 1
    outer loop
      vertex 46 10 2
      vertex 47.8579 2 2
      vertex 50 10 2
    endloop
  endfacet
  facet normal 1 0 0
    outer loop
      vertex 46 2 11
      vertex 46 2 2
      vertex 46 10 2
    endloop
  endfacet
  facet normal 1 0 0
    outer loop
      vertex 46 8 17
      vertex 46 2 11
      vertex 46 10 17
    endloop
  endfacet
  facet normal 1 0 0
    outer loop
      vertex 46 10 17
      vertex 46 2 11
      vertex 46 10 2
    endloop
  endfacet
  facet normal 0 0 1
    outer loop
      vertex 44 10 17
      vertex 44 8 17
      vertex 46 8 17
    endloop
  endfacet
  facet normal 0 0 1
    outer loop
      vertex 46 10 17
      vertex 44 10 17
      vertex 46 8 17
    endloop
  endfacet
  facet normal 0 -0.707107 0.707107
    outer loop
      vertex 46 2 11
      vertex 46 8 17
      vertex 44 8 17
    endloop
  endfacet
  facet normal 0 -0.707107 0.707107
    outer loop
      vertex 44 2 11
      vertex 46 2 11
      vertex 44 8 17
    endloop
  endfacet
  facet normal 0 0 -1
    outer loop
      vertex 3.27367 17.4295 2
      vertex 3.72266 17.7145 2
      vertex 3.723 17.714 2
    endloop
  endfacet
  facet normal 0 0 -1
    outer loop
      vertex 3.723 17.714 2
      vertex 3.72266 17.7145 2
      vertex 4.34238 17.9158 2
    endloop
  endfacet
  facet normal -0.309017 0.951056 0
    outer loop
      vertex 3.72266 17.7145 2
      vertex 3.72266 17.7145 3
      vertex 4.34238 17.9158 2
    endloop
  endfacet
  facet normal -0.309017 0.951056 0
    outer loop
      vertex 4.34238 17.9158 2
      vertex 3.72266 17.7145 3
      vertex 4.43786 17.9469 3
    endloop
  endfacet
  facet normal -0.309017 0.951056 0
    outer loop
      vertex 4.34238 17.9158 2
      vertex 4.43786 17.9469 3
      vertex 4.43786 17.9469 2
    endloop
  endfacet
  facet normal -0.535826 0.844328 0
    outer loop
      vertex 3.08773 17.3115 2
      vertex 3.08773 17.3115 3
      vertex 3.27367 17.4295 2
    endloop
  endfacet
  facet normal -0.535826 0.844328 0
    outer loop
      vertex 3.27367 17.4295 2
      vertex 3.08773 17.3115 3
      vertex 3.72266 17.7145 3
    endloop
  endfacet
  facet normal -0.535826 0.844328 0
    outer loop
      vertex 3.27367 17.4295 2
      vertex 3.72266 17.7145 3
      vertex 3.72266 17.7145 2
    endloop
  endfacet
endsolid OpenSCAD_Model
