solid OpenSCAD_Model
  facet normal -1 0 0
    outer loop
      vertex 0 -25 0
      vertex 0 -25 13
      vertex 0 25 0
    endloop
  endfacet
  facet normal -1 0 0
    outer loop
      vertex 0 25 0
      vertex 0 -25 13
      vertex 0 25 13
    endloop
  endfacet
  facet normal 0 -1 0
    outer loop
      vertex 0 -25 13
      vertex 0 -25 0
      vertex 9 -25 0
    endloop
  endfacet
  facet normal 0 -1 0
    outer loop
      vertex 9 -25 5.5
      vertex 0 -25 13
      vertex 9 -25 4.5
    endloop
  endfacet
  facet normal 0 -1 0
    outer loop
      vertex 9 -25 4.5
      vertex 0 -25 13
      vertex 9 -25 0
    endloop
  endfacet
  facet normal 0 -1 0
    outer loop
      vertex 9 -25 13
      vertex 0 -25 13
      vertex 9 -25 5.5
    endloop
  endfacet
  facet normal 0 0 -1
    outer loop
      vertex 0 -25 0
      vertex 0 25 0
      vertex 9 -25 0
    endloop
  endfacet
  facet normal 0 0 -1
    outer loop
      vertex 9 -25 0
      vertex 0 25 0
      vertex 9 25 0
    endloop
  endfacet
  facet normal 0 0 -1
    outer loop
      vertex 9 -25 0
      vertex 9 25 0
      vertex 16 25 0
    endloop
  endfacet
  facet normal 0 0 -1
    outer loop
      vertex 9 -25 0
      vertex 16 25 0
      vertex 16 -18 0
    endloop
  endfacet
  facet normal 0 1 0
    outer loop
      vertex 0 25 0
      vertex 0 25 13
      vertex 9 25 0
    endloop
  endfacet
  facet normal 0 1 0
    outer loop
      vertex 9 25 5.5
      vertex 0 25 13
      vertex 9 25 13
    endloop
  endfacet
  facet normal 0 1 0
    outer loop
      vertex 9 25 4.5
      vertex 0 25 13
      vertex 9 25 5.5
    endloop
  endfacet
  facet normal 0 1 0
    outer loop
      vertex 9 25 0
      vertex 0 25 13
      vertex 9 25 4.5
    endloop
  endfacet
  facet normal 0 0 1
    outer loop
      vertex 0 25 13
      vertex 0 -25 13
      vertex 9 -25 13
    endloop
  endfacet
  facet normal 0 0 1
    outer loop
      vertex 9 25 13
      vertex 0 25 13
      vertex 9 -25 13
    endloop
  endfacet
  facet normal 1 0 0
    outer loop
      vertex 9 -25 5.5
      vertex 9 -25 4.5
      vertex 9 25 4.5
    endloop
  endfacet
  facet normal 1 0 0
    outer loop
      vertex 9 25 13
      vertex 9 -25 5.5
      vertex 9 25 5.5
    endloop
  endfacet
  facet normal 1 0 0
    outer loop
      vertex 9 25 5.5
      vertex 9 -25 5.5
      vertex 9 25 4.5
    endloop
  endfacet
  facet normal 1 0 0
    outer loop
      vertex 9 -25 13
      vertex 9 -25 5.5
      vertex 9 25 13
    endloop
  endfacet
  facet normal 0 0 1
    outer loop
      vertex 9 25 4.5
      vertex 9 -25 4.5
      vertex 16 -18 4.5
    endloop
  endfacet
  facet normal 0 0 1
    outer loop
      vertex 16 25 4.5
      vertex 9 25 4.5
      vertex 16 -18 4.5
    endloop
  endfacet
  facet normal 0.707107 -0.707107 0
    outer loop
      vertex 16 -18 0
      vertex 16 -18 4.5
      vertex 9 -25 4.5
    endloop
  endfacet
  facet normal 0.707107 -0.707107 0
    outer loop
      vertex 9 -25 0
      vertex 16 -18 0
      vertex 9 -25 4.5
    endloop
  endfacet
  facet normal 1 0 0
    outer loop
      vertex 16 -18 4.5
      vertex 16 -18 0
      vertex 16 25 0
    endloop
  endfacet
  facet normal 1 0 0
    outer loop
      vertex 16 25 4.5
      vertex 16 -18 4.5
      vertex 16 25 0
    endloop
  endfacet
  facet normal 0 1 0
    outer loop
      vertex 9 25 0
      vertex 9 25 4.5
      vertex 16 25 0
    endloop
  endfacet
  facet normal 0 1 0
    outer loop
      vertex 16 25 0
      vertex 9 25 4.5
      vertex 16 25 4.5
    endloop
  endfacet
endsolid OpenSCAD_Model
