solid OpenSCAD_Model
  facet normal -1 0 0
    outer loop
      vertex -11.5 0 -1.25
      vertex -11.5 0 1.25
      vertex -11.5 20 -1.25
    endloop
  endfacet
  facet normal -1 0 0
    outer loop
      vertex -11.5 20 -1.25
      vertex -11.5 0 1.25
      vertex -11.5 20 1.25
    endloop
  endfacet
  facet normal 0 -1 0
    outer loop
      vertex -10.7254 0 -1.24359
      vertex -11.5 0 -1.25
      vertex -10.7143 0 -1.25
    endloop
  endfacet
  facet normal 0 -1 0
    outer loop
      vertex -11.4397 0 -0.00641018
      vertex -11.5 0 -1.25
      vertex -10.7254 0 -1.24359
    endloop
  endfacet
  facet normal 0 -1 0
    outer loop
      vertex -11.5 0 1.25
      vertex -11.5 0 -1.25
      vertex -11.4397 0 -0.00641018
    endloop
  endfacet
  facet normal 0 -1 0
    outer loop
      vertex -11.4397 0 0.00641018
      vertex -11.4397 0 -0.00641018
      vertex -11.4286 0 -2.22045e-015
    endloop
  endfacet
  facet normal 0 -1 0
    outer loop
      vertex -11.5 0 1.25
      vertex -11.4397 0 -0.00641018
      vertex -11.4397 0 0.00641018
    endloop
  endfacet
  facet normal 0 -1 0
    outer loop
      vertex -10.7143 0 1.25
      vertex -11.5 0 1.25
      vertex -10.7254 0 1.24359
    endloop
  endfacet
  facet normal 0 -1 0
    outer loop
      vertex -10.7143 0 1.25
      vertex -10.7254 0 1.24359
      vertex -10.7143 0 1.23718
    endloop
  endfacet
  facet normal 0 -1 0
    outer loop
      vertex -9.28571 0 1.25
      vertex -11.5 0 1.25
      vertex -10.7143 0 1.25
    endloop
  endfacet
  facet normal 0 -1 0
    outer loop
      vertex -8.5 0 1.25
      vertex -11.5 0 1.25
      vertex -9.28571 0 1.25
    endloop
  endfacet
  facet normal 0 -1 0
    outer loop
      vertex -9.27461 0 1.24359
      vertex -9.28571 0 1.25
      vertex -9.28571 0 1.23718
    endloop
  endfacet
  facet normal 0 -1 0
    outer loop
      vertex -8.5 0 1.25
      vertex -9.28571 0 1.25
      vertex -9.27461 0 1.24359
    endloop
  endfacet
  facet normal 0 -1 0
    outer loop
      vertex -8.5 0 1.25
      vertex -9.27461 0 1.24359
      vertex -8.56033 0 0.00641018
    endloop
  endfacet
  facet normal 0 -1 0
    outer loop
      vertex -9.28571 0 -1.23718
      vertex -9.28571 0 -1.25
      vertex -9.27461 0 -1.24359
    endloop
  endfacet
  facet normal 0 -1 0
    outer loop
      vertex -8.5 0 -1.25
      vertex -8.56033 0 0.00641018
      vertex -8.56033 0 -0.00641018
    endloop
  endfacet
  facet normal 0 -1 0
    outer loop
      vertex -8.5 0 -1.25
      vertex -8.56033 0 -0.00641018
      vertex -9.27461 0 -1.24359
    endloop
  endfacet
  facet normal 0 -1 0
    outer loop
      vertex -8.5 0 -1.25
      vertex -9.27461 0 -1.24359
      vertex -9.28571 0 -1.25
    endloop
  endfacet
  facet normal 0 -1 0
    outer loop
      vertex -8.5 0 -1.25
      vertex -8.5 0 1.25
      vertex -8.56033 0 0.00641018
    endloop
  endfacet
  facet normal 0 -1 0
    outer loop
      vertex -8.57143 0 -2.22045e-015
      vertex -8.56033 0 -0.00641018
      vertex -8.56033 0 0.00641018
    endloop
  endfacet
  facet normal 0 -1 0
    outer loop
      vertex -10.7143 0 -1.23718
      vertex -10.7254 0 -1.24359
      vertex -10.7143 0 -1.25
    endloop
  endfacet
  facet normal 0 -1 0
    outer loop
      vertex -11.4397 0 0.00641018
      vertex -10.7254 0 1.24359
      vertex -11.5 0 1.25
    endloop
  endfacet
  facet normal 0 0 -1
    outer loop
      vertex -11.5 0 -1.25
      vertex -11.5 20 -1.25
      vertex -10.7143 0 -1.25
    endloop
  endfacet
  facet normal 0 0 -1
    outer loop
      vertex -10.7143 0.5 -1.25
      vertex -11.5 20 -1.25
      vertex -8.5 20 -1.25
    endloop
  endfacet
  facet normal 0 0 -1
    outer loop
      vertex -9.28571 0 -1.25
      vertex -8.5 20 -1.25
      vertex -8.5 0 -1.25
    endloop
  endfacet
  facet normal 0 0 -1
    outer loop
      vertex -9.28571 0.5 -1.25
      vertex -8.5 20 -1.25
      vertex -9.28571 0 -1.25
    endloop
  endfacet
  facet normal 0 0 -1
    outer loop
      vertex -10.7143 0 -1.25
      vertex -11.5 20 -1.25
      vertex -10.7143 0.5 -1.25
    endloop
  endfacet
  facet normal 0 0 -1
    outer loop
      vertex -10.7143 0.5 -1.25
      vertex -8.5 20 -1.25
      vertex -9.28571 0.5 -1.25
    endloop
  endfacet
  facet normal 0 1 0
    outer loop
      vertex -11.5 20 -1.25
      vertex -11.5 20 1.25
      vertex -8.5 20 -1.25
    endloop
  endfacet
  facet normal 0 1 0
    outer loop
      vertex -8.5 20 -1.25
      vertex -11.5 20 1.25
      vertex -8.5 20 1.25
    endloop
  endfacet
  facet normal 0 0 1
    outer loop
      vertex -11.5 20 1.25
      vertex -11.5 0 1.25
      vertex -8.5 0 1.25
    endloop
  endfacet
  facet normal 0 0 1
    outer loop
      vertex -8.5 20 1.25
      vertex -11.5 20 1.25
      vertex -8.5 0 1.25
    endloop
  endfacet
  facet normal 1 0 0
    outer loop
      vertex -8.5 0 1.25
      vertex -8.5 0 -1.25
      vertex -8.5 20 -1.25
    endloop
  endfacet
  facet normal 1 0 0
    outer loop
      vertex -8.5 20 1.25
      vertex -8.5 0 1.25
      vertex -8.5 20 -1.25
    endloop
  endfacet
  facet normal 1 0 0
    outer loop
      vertex -9.28571 0 -1.25
      vertex -9.28571 -20.5 -1.25
      vertex -9.28571 0.5 -1.25
    endloop
  endfacet
  facet normal 1 0 0
    outer loop
      vertex -9.28571 0 -1.25
      vertex -9.28571 0 -1.23718
      vertex -9.28571 -20.5 -1.23718
    endloop
  endfacet
  facet normal 1 0 0
    outer loop
      vertex -9.28571 -20.5 -1.23718
      vertex -9.28571 -20.5 -1.25
      vertex -9.28571 0 -1.25
    endloop
  endfacet
  facet normal -0.5 -1.92296e-016 -0.866025
    outer loop
      vertex -9.28571 -20.5 -1.23718
      vertex -9.28571 0 -1.23718
      vertex -9.27461 -20.5 -1.24359
    endloop
  endfacet
  facet normal -0.5 -1.92296e-016 -0.866025
    outer loop
      vertex -9.27461 -20.5 -1.24359
      vertex -9.28571 0 -1.23718
      vertex -9.27461 0 -1.24359
    endloop
  endfacet
  facet normal 0.866025 -1.11022e-016 -0.5
    outer loop
      vertex -8.56033 -20.5 -0.00641018
      vertex -9.27461 -20.5 -1.24359
      vertex -9.27461 0 -1.24359
    endloop
  endfacet
  facet normal 0.866025 -1.11022e-016 -0.5
    outer loop
      vertex -8.56033 0 -0.00641018
      vertex -8.56033 -20.5 -0.00641018
      vertex -9.27461 0 -1.24359
    endloop
  endfacet
  facet normal 0.5 1.92296e-016 0.866025
    outer loop
      vertex -8.57143 0 -2.22045e-015
      vertex -8.57143 -20.5 2.33147e-015
      vertex -8.56033 -20.5 -0.00641018
    endloop
  endfacet
  facet normal 0.5 1.92296e-016 0.866025
    outer loop
      vertex -8.56033 0 -0.00641018
      vertex -8.57143 0 -2.22045e-015
      vertex -8.56033 -20.5 -0.00641018
    endloop
  endfacet
  facet normal 0.5 -1.92296e-016 -0.866025
    outer loop
      vertex -8.57143 -20.5 2.33147e-015
      vertex -8.57143 0 -2.22045e-015
      vertex -8.56033 -20.5 0.00641018
    endloop
  endfacet
  facet normal 0.5 -1.92296e-016 -0.866025
    outer loop
      vertex -8.56033 -20.5 0.00641018
      vertex -8.57143 0 -2.22045e-015
      vertex -8.56033 0 0.00641018
    endloop
  endfacet
  facet normal 0.866025 1.11022e-016 0.5
    outer loop
      vertex -9.27461 0 1.24359
      vertex -9.27461 -20.5 1.24359
      vertex -8.56033 -20.5 0.00641018
    endloop
  endfacet
  facet normal 0.866025 1.11022e-016 0.5
    outer loop
      vertex -8.56033 0 0.00641018
      vertex -9.27461 0 1.24359
      vertex -8.56033 -20.5 0.00641018
    endloop
  endfacet
  facet normal -0.5 1.92296e-016 0.866025
    outer loop
      vertex -9.28571 0 1.23718
      vertex -9.28571 -20.5 1.23718
      vertex -9.27461 -20.5 1.24359
    endloop
  endfacet
  facet normal -0.5 1.92296e-016 0.866025
    outer loop
      vertex -9.27461 0 1.24359
      vertex -9.28571 0 1.23718
      vertex -9.27461 -20.5 1.24359
    endloop
  endfacet
  facet normal 1 0 0
    outer loop
      vertex -9.28571 -20.5 1.25
      vertex -9.28571 -20.5 1.23718
      vertex -9.28571 0 1.23718
    endloop
  endfacet
  facet normal 1 0 0
    outer loop
      vertex -9.28571 0 1.25
      vertex -9.28571 -20.5 1.25
      vertex -9.28571 0 1.23718
    endloop
  endfacet
  facet normal 0 2.22045e-016 1
    outer loop
      vertex -10.7143 0 1.25
      vertex -10.7143 -20.5 1.25
      vertex -9.28571 -20.5 1.25
    endloop
  endfacet
  facet normal 0 2.22045e-016 1
    outer loop
      vertex -9.28571 0 1.25
      vertex -10.7143 0 1.25
      vertex -9.28571 -20.5 1.25
    endloop
  endfacet
  facet normal -1 0 0
    outer loop
      vertex -10.7143 -20.5 1.23718
      vertex -10.7143 -20.5 1.25
      vertex -10.7143 0 1.23718
    endloop
  endfacet
  facet normal -1 0 0
    outer loop
      vertex -10.7143 0 1.23718
      vertex -10.7143 -20.5 1.25
      vertex -10.7143 0 1.25
    endloop
  endfacet
  facet normal 0.5 1.92296e-016 0.866025
    outer loop
      vertex -10.7254 0 1.24359
      vertex -10.7254 -20.5 1.24359
      vertex -10.7143 -20.5 1.23718
    endloop
  endfacet
  facet normal 0.5 1.92296e-016 0.866025
    outer loop
      vertex -10.7143 0 1.23718
      vertex -10.7254 0 1.24359
      vertex -10.7143 -20.5 1.23718
    endloop
  endfacet
  facet normal -0.866025 1.11022e-016 0.5
    outer loop
      vertex -11.4397 -20.5 0.00641018
      vertex -10.7254 -20.5 1.24359
      vertex -11.4397 0 0.00641018
    endloop
  endfacet
  facet normal -0.866025 1.11022e-016 0.5
    outer loop
      vertex -11.4397 0 0.00641018
      vertex -10.7254 -20.5 1.24359
      vertex -10.7254 0 1.24359
    endloop
  endfacet
  facet normal -0.5 -1.92296e-016 -0.866025
    outer loop
      vertex -11.4397 -20.5 0.00641018
      vertex -11.4397 0 0.00641018
      vertex -11.4286 -20.5 2.33147e-015
    endloop
  endfacet
  facet normal -0.5 -1.92296e-016 -0.866025
    outer loop
      vertex -11.4286 -20.5 2.33147e-015
      vertex -11.4397 0 0.00641018
      vertex -11.4286 0 -2.22045e-015
    endloop
  endfacet
  facet normal -0.5 1.92296e-016 0.866025
    outer loop
      vertex -11.4397 0 -0.00641018
      vertex -11.4397 -20.5 -0.00641018
      vertex -11.4286 -20.5 2.33147e-015
    endloop
  endfacet
  facet normal -0.5 1.92296e-016 0.866025
    outer loop
      vertex -11.4286 0 -2.22045e-015
      vertex -11.4397 0 -0.00641018
      vertex -11.4286 -20.5 2.33147e-015
    endloop
  endfacet
  facet normal -0.866025 -1.11022e-016 -0.5
    outer loop
      vertex -11.4397 -20.5 -0.00641018
      vertex -11.4397 0 -0.00641018
      vertex -10.7254 -20.5 -1.24359
    endloop
  endfacet
  facet normal -0.866025 -1.11022e-016 -0.5
    outer loop
      vertex -10.7254 -20.5 -1.24359
      vertex -11.4397 0 -0.00641018
      vertex -10.7254 0 -1.24359
    endloop
  endfacet
  facet normal 0.5 -1.92296e-016 -0.866025
    outer loop
      vertex -10.7254 -20.5 -1.24359
      vertex -10.7254 0 -1.24359
      vertex -10.7143 -20.5 -1.23718
    endloop
  endfacet
  facet normal 0.5 -1.92296e-016 -0.866025
    outer loop
      vertex -10.7143 -20.5 -1.23718
      vertex -10.7254 0 -1.24359
      vertex -10.7143 0 -1.23718
    endloop
  endfacet
  facet normal -1 0 0
    outer loop
      vertex -10.7143 -20.5 -1.25
      vertex -10.7143 -20.5 -1.23718
      vertex -10.7143 0 -1.25
    endloop
  endfacet
  facet normal -1 0 0
    outer loop
      vertex -10.7143 -20.5 -1.25
      vertex -10.7143 0 -1.25
      vertex -10.7143 0.5 -1.25
    endloop
  endfacet
  facet normal -1 0 0
    outer loop
      vertex -10.7143 0 -1.25
      vertex -10.7143 -20.5 -1.23718
      vertex -10.7143 0 -1.23718
    endloop
  endfacet
  facet normal 0 -1 2.22045e-016
    outer loop
      vertex -11.4286 -20.5 2.33147e-015
      vertex -11.4397 -20.5 -0.00641018
      vertex -10.7254 -20.5 -1.24359
    endloop
  endfacet
  facet normal 0 -1 2.22045e-016
    outer loop
      vertex -9.28571 -20.5 -1.25
      vertex -11.4286 -20.5 2.33147e-015
      vertex -10.7143 -20.5 -1.23718
    endloop
  endfacet
  facet normal 0 -1 2.22045e-016
    outer loop
      vertex -10.7143 -20.5 -1.23718
      vertex -11.4286 -20.5 2.33147e-015
      vertex -10.7254 -20.5 -1.24359
    endloop
  endfacet
  facet normal 0 -1 2.22045e-016
    outer loop
      vertex -9.28571 -20.5 -1.25
      vertex -10.7143 -20.5 -1.23718
      vertex -10.7143 -20.5 -1.25
    endloop
  endfacet
  facet normal 0 -1 2.22045e-016
    outer loop
      vertex -9.28571 -20.5 -1.23718
      vertex -11.4286 -20.5 2.33147e-015
      vertex -9.28571 -20.5 -1.25
    endloop
  endfacet
  facet normal 0 -1 2.22045e-016
    outer loop
      vertex -8.56033 -20.5 -0.00641018
      vertex -11.4286 -20.5 2.33147e-015
      vertex -9.28571 -20.5 -1.23718
    endloop
  endfacet
  facet normal 0 -1 2.22045e-016
    outer loop
      vertex -8.56033 -20.5 -0.00641018
      vertex -9.28571 -20.5 -1.23718
      vertex -9.27461 -20.5 -1.24359
    endloop
  endfacet
  facet normal 0 -1 2.22045e-016
    outer loop
      vertex -8.57143 -20.5 2.33147e-015
      vertex -11.4286 -20.5 2.33147e-015
      vertex -8.56033 -20.5 -0.00641018
    endloop
  endfacet
  facet normal 0 -1 2.22045e-016
    outer loop
      vertex -8.56033 -20.5 0.00641018
      vertex -11.4286 -20.5 2.33147e-015
      vertex -8.57143 -20.5 2.33147e-015
    endloop
  endfacet
  facet normal 0 -1 2.22045e-016
    outer loop
      vertex -9.28571 -20.5 1.23718
      vertex -11.4286 -20.5 2.33147e-015
      vertex -8.56033 -20.5 0.00641018
    endloop
  endfacet
  facet normal 0 -1 2.22045e-016
    outer loop
      vertex -9.28571 -20.5 1.25
      vertex -11.4286 -20.5 2.33147e-015
      vertex -9.28571 -20.5 1.23718
    endloop
  endfacet
  facet normal 0 -1 2.22045e-016
    outer loop
      vertex -9.27461 -20.5 1.24359
      vertex -9.28571 -20.5 1.23718
      vertex -8.56033 -20.5 0.00641018
    endloop
  endfacet
  facet normal 0 -1 2.22045e-016
    outer loop
      vertex -10.7143 -20.5 1.23718
      vertex -10.7254 -20.5 1.24359
      vertex -11.4397 -20.5 0.00641018
    endloop
  endfacet
  facet normal 0 -1 2.22045e-016
    outer loop
      vertex -9.28571 -20.5 1.25
      vertex -10.7143 -20.5 1.25
      vertex -10.7143 -20.5 1.23718
    endloop
  endfacet
  facet normal 0 -1 2.22045e-016
    outer loop
      vertex -11.4397 -20.5 0.00641018
      vertex -9.28571 -20.5 1.25
      vertex -10.7143 -20.5 1.23718
    endloop
  endfacet
  facet normal 0 -1 2.22045e-016
    outer loop
      vertex -11.4397 -20.5 0.00641018
      vertex -11.4286 -20.5 2.33147e-015
      vertex -9.28571 -20.5 1.25
    endloop
  endfacet
  facet normal 0 -2.22045e-016 -1
    outer loop
      vertex -10.7143 -20.5 -1.25
      vertex -10.7143 0.5 -1.25
      vertex -9.28571 -20.5 -1.25
    endloop
  endfacet
  facet normal 0 -2.22045e-016 -1
    outer loop
      vertex -9.28571 -20.5 -1.25
      vertex -10.7143 0.5 -1.25
      vertex -9.28571 0.5 -1.25
    endloop
  endfacet
  facet normal -1 0 0
    outer loop
      vertex 8.5 0 -1.25
      vertex 8.5 0 1.25
      vertex 8.5 20 -1.25
    endloop
  endfacet
  facet normal -1 0 0
    outer loop
      vertex 8.5 20 -1.25
      vertex 8.5 0 1.25
      vertex 8.5 20 1.25
    endloop
  endfacet
  facet normal 0 -1 0
    outer loop
      vertex 9.27461 0 -1.24359
      vertex 8.5 0 -1.25
      vertex 9.28571 0 -1.25
    endloop
  endfacet
  facet normal 0 -1 0
    outer loop
      vertex 8.56033 0 -0.00641018
      vertex 8.5 0 -1.25
      vertex 9.27461 0 -1.24359
    endloop
  endfacet
  facet normal 0 -1 0
    outer loop
      vertex 8.5 0 1.25
      vertex 8.5 0 -1.25
      vertex 8.56033 0 -0.00641018
    endloop
  endfacet
  facet normal 0 -1 0
    outer loop
      vertex 8.56033 0 0.00641018
      vertex 8.56033 0 -0.00641018
      vertex 8.57143 0 -2.22045e-015
    endloop
  endfacet
  facet normal 0 -1 0
    outer loop
      vertex 8.5 0 1.25
      vertex 8.56033 0 -0.00641018
      vertex 8.56033 0 0.00641018
    endloop
  endfacet
  facet normal 0 -1 0
    outer loop
      vertex 9.28571 0 1.25
      vertex 8.5 0 1.25
      vertex 9.27461 0 1.24359
    endloop
  endfacet
  facet normal 0 -1 0
    outer loop
      vertex 9.28571 0 1.25
      vertex 9.27461 0 1.24359
      vertex 9.28571 0 1.23718
    endloop
  endfacet
  facet normal 0 -1 0
    outer loop
      vertex 10.7143 0 1.25
      vertex 8.5 0 1.25
      vertex 9.28571 0 1.25
    endloop
  endfacet
  facet normal 0 -1 0
    outer loop
      vertex 11.5 0 1.25
      vertex 8.5 0 1.25
      vertex 10.7143 0 1.25
    endloop
  endfacet
  facet normal 0 -1 0
    outer loop
      vertex 10.7254 0 1.24359
      vertex 10.7143 0 1.25
      vertex 10.7143 0 1.23718
    endloop
  endfacet
  facet normal 0 -1 0
    outer loop
      vertex 11.5 0 1.25
      vertex 10.7143 0 1.25
      vertex 10.7254 0 1.24359
    endloop
  endfacet
  facet normal 0 -1 0
    outer loop
      vertex 11.5 0 1.25
      vertex 10.7254 0 1.24359
      vertex 11.4397 0 0.00641018
    endloop
  endfacet
  facet normal 0 -1 0
    outer loop
      vertex 10.7143 0 -1.23718
      vertex 10.7143 0 -1.25
      vertex 10.7254 0 -1.24359
    endloop
  endfacet
  facet normal 0 -1 0
    outer loop
      vertex 11.5 0 -1.25
      vertex 11.4397 0 0.00641018
      vertex 11.4397 0 -0.00641018
    endloop
  endfacet
  facet normal 0 -1 0
    outer loop
      vertex 11.5 0 -1.25
      vertex 11.4397 0 -0.00641018
      vertex 10.7254 0 -1.24359
    endloop
  endfacet
  facet normal 0 -1 0
    outer loop
      vertex 11.5 0 -1.25
      vertex 10.7254 0 -1.24359
      vertex 10.7143 0 -1.25
    endloop
  endfacet
  facet normal 0 -1 0
    outer loop
      vertex 11.5 0 -1.25
      vertex 11.5 0 1.25
      vertex 11.4397 0 0.00641018
    endloop
  endfacet
  facet normal 0 -1 0
    outer loop
      vertex 11.4286 0 -2.22045e-015
      vertex 11.4397 0 -0.00641018
      vertex 11.4397 0 0.00641018
    endloop
  endfacet
  facet normal 0 -1 0
    outer loop
      vertex 9.28571 0 -1.23718
      vertex 9.27461 0 -1.24359
      vertex 9.28571 0 -1.25
    endloop
  endfacet
  facet normal 0 -1 0
    outer loop
      vertex 8.56033 0 0.00641018
      vertex 9.27461 0 1.24359
      vertex 8.5 0 1.25
    endloop
  endfacet
  facet normal 0 0 -1
    outer loop
      vertex 8.5 0 -1.25
      vertex 8.5 20 -1.25
      vertex 9.28571 0 -1.25
    endloop
  endfacet
  facet normal 0 0 -1
    outer loop
      vertex 9.28571 0.5 -1.25
      vertex 8.5 20 -1.25
      vertex 11.5 20 -1.25
    endloop
  endfacet
  facet normal 0 0 -1
    outer loop
      vertex 10.7143 0 -1.25
      vertex 11.5 20 -1.25
      vertex 11.5 0 -1.25
    endloop
  endfacet
  facet normal 0 0 -1
    outer loop
      vertex 10.7143 0.5 -1.25
      vertex 11.5 20 -1.25
      vertex 10.7143 0 -1.25
    endloop
  endfacet
  facet normal 0 0 -1
    outer loop
      vertex 9.28571 0 -1.25
      vertex 8.5 20 -1.25
      vertex 9.28571 0.5 -1.25
    endloop
  endfacet
  facet normal 0 0 -1
    outer loop
      vertex 9.28571 0.5 -1.25
      vertex 11.5 20 -1.25
      vertex 10.7143 0.5 -1.25
    endloop
  endfacet
  facet normal 0 1 0
    outer loop
      vertex 8.5 20 -1.25
      vertex 8.5 20 1.25
      vertex 11.5 20 -1.25
    endloop
  endfacet
  facet normal 0 1 0
    outer loop
      vertex 11.5 20 -1.25
      vertex 8.5 20 1.25
      vertex 11.5 20 1.25
    endloop
  endfacet
  facet normal 0 0 1
    outer loop
      vertex 8.5 20 1.25
      vertex 8.5 0 1.25
      vertex 11.5 0 1.25
    endloop
  endfacet
  facet normal 0 0 1
    outer loop
      vertex 11.5 20 1.25
      vertex 8.5 20 1.25
      vertex 11.5 0 1.25
    endloop
  endfacet
  facet normal 1 0 0
    outer loop
      vertex 11.5 0 1.25
      vertex 11.5 0 -1.25
      vertex 11.5 20 -1.25
    endloop
  endfacet
  facet normal 1 0 0
    outer loop
      vertex 11.5 20 1.25
      vertex 11.5 0 1.25
      vertex 11.5 20 -1.25
    endloop
  endfacet
  facet normal 1 0 0
    outer loop
      vertex 10.7143 0 -1.25
      vertex 10.7143 -20.5 -1.25
      vertex 10.7143 0.5 -1.25
    endloop
  endfacet
  facet normal 1 0 0
    outer loop
      vertex 10.7143 0 -1.25
      vertex 10.7143 0 -1.23718
      vertex 10.7143 -20.5 -1.23718
    endloop
  endfacet
  facet normal 1 0 0
    outer loop
      vertex 10.7143 -20.5 -1.23718
      vertex 10.7143 -20.5 -1.25
      vertex 10.7143 0 -1.25
    endloop
  endfacet
  facet normal -0.5 -1.92296e-016 -0.866025
    outer loop
      vertex 10.7143 -20.5 -1.23718
      vertex 10.7143 0 -1.23718
      vertex 10.7254 -20.5 -1.24359
    endloop
  endfacet
  facet normal -0.5 -1.92296e-016 -0.866025
    outer loop
      vertex 10.7254 -20.5 -1.24359
      vertex 10.7143 0 -1.23718
      vertex 10.7254 0 -1.24359
    endloop
  endfacet
  facet normal 0.866025 -1.11022e-016 -0.5
    outer loop
      vertex 11.4397 -20.5 -0.00641018
      vertex 10.7254 -20.5 -1.24359
      vertex 10.7254 0 -1.24359
    endloop
  endfacet
  facet normal 0.866025 -1.11022e-016 -0.5
    outer loop
      vertex 11.4397 0 -0.00641018
      vertex 11.4397 -20.5 -0.00641018
      vertex 10.7254 0 -1.24359
    endloop
  endfacet
  facet normal 0.5 1.92296e-016 0.866025
    outer loop
      vertex 11.4286 0 -2.22045e-015
      vertex 11.4286 -20.5 2.33147e-015
      vertex 11.4397 -20.5 -0.00641018
    endloop
  endfacet
  facet normal 0.5 1.92296e-016 0.866025
    outer loop
      vertex 11.4397 0 -0.00641018
      vertex 11.4286 0 -2.22045e-015
      vertex 11.4397 -20.5 -0.00641018
    endloop
  endfacet
  facet normal 0.5 -1.92296e-016 -0.866025
    outer loop
      vertex 11.4286 -20.5 2.33147e-015
      vertex 11.4286 0 -2.22045e-015
      vertex 11.4397 -20.5 0.00641018
    endloop
  endfacet
  facet normal 0.5 -1.92296e-016 -0.866025
    outer loop
      vertex 11.4397 -20.5 0.00641018
      vertex 11.4286 0 -2.22045e-015
      vertex 11.4397 0 0.00641018
    endloop
  endfacet
  facet normal 0.866025 1.11022e-016 0.5
    outer loop
      vertex 10.7254 0 1.24359
      vertex 10.7254 -20.5 1.24359
      vertex 11.4397 -20.5 0.00641018
    endloop
  endfacet
  facet normal 0.866025 1.11022e-016 0.5
    outer loop
      vertex 11.4397 0 0.00641018
      vertex 10.7254 0 1.24359
      vertex 11.4397 -20.5 0.00641018
    endloop
  endfacet
  facet normal -0.5 1.92296e-016 0.866025
    outer loop
      vertex 10.7143 0 1.23718
      vertex 10.7143 -20.5 1.23718
      vertex 10.7254 -20.5 1.24359
    endloop
  endfacet
  facet normal -0.5 1.92296e-016 0.866025
    outer loop
      vertex 10.7254 0 1.24359
      vertex 10.7143 0 1.23718
      vertex 10.7254 -20.5 1.24359
    endloop
  endfacet
  facet normal 1 0 0
    outer loop
      vertex 10.7143 -20.5 1.25
      vertex 10.7143 -20.5 1.23718
      vertex 10.7143 0 1.23718
    endloop
  endfacet
  facet normal 1 0 0
    outer loop
      vertex 10.7143 0 1.25
      vertex 10.7143 -20.5 1.25
      vertex 10.7143 0 1.23718
    endloop
  endfacet
  facet normal 0 2.22045e-016 1
    outer loop
      vertex 9.28571 0 1.25
      vertex 9.28571 -20.5 1.25
      vertex 10.7143 -20.5 1.25
    endloop
  endfacet
  facet normal 0 2.22045e-016 1
    outer loop
      vertex 10.7143 0 1.25
      vertex 9.28571 0 1.25
      vertex 10.7143 -20.5 1.25
    endloop
  endfacet
  facet normal -1 0 0
    outer loop
      vertex 9.28571 -20.5 1.23718
      vertex 9.28571 -20.5 1.25
      vertex 9.28571 0 1.23718
    endloop
  endfacet
  facet normal -1 0 0
    outer loop
      vertex 9.28571 0 1.23718
      vertex 9.28571 -20.5 1.25
      vertex 9.28571 0 1.25
    endloop
  endfacet
  facet normal 0.5 1.92296e-016 0.866025
    outer loop
      vertex 9.27461 0 1.24359
      vertex 9.27461 -20.5 1.24359
      vertex 9.28571 -20.5 1.23718
    endloop
  endfacet
  facet normal 0.5 1.92296e-016 0.866025
    outer loop
      vertex 9.28571 0 1.23718
      vertex 9.27461 0 1.24359
      vertex 9.28571 -20.5 1.23718
    endloop
  endfacet
  facet normal -0.866025 1.11022e-016 0.5
    outer loop
      vertex 8.56033 -20.5 0.00641018
      vertex 9.27461 -20.5 1.24359
      vertex 8.56033 0 0.00641018
    endloop
  endfacet
  facet normal -0.866025 1.11022e-016 0.5
    outer loop
      vertex 8.56033 0 0.00641018
      vertex 9.27461 -20.5 1.24359
      vertex 9.27461 0 1.24359
    endloop
  endfacet
  facet normal -0.5 -1.92296e-016 -0.866025
    outer loop
      vertex 8.56033 -20.5 0.00641018
      vertex 8.56033 0 0.00641018
      vertex 8.57143 -20.5 2.33147e-015
    endloop
  endfacet
  facet normal -0.5 -1.92296e-016 -0.866025
    outer loop
      vertex 8.57143 -20.5 2.33147e-015
      vertex 8.56033 0 0.00641018
      vertex 8.57143 0 -2.22045e-015
    endloop
  endfacet
  facet normal -0.5 1.92296e-016 0.866025
    outer loop
      vertex 8.56033 0 -0.00641018
      vertex 8.56033 -20.5 -0.00641018
      vertex 8.57143 -20.5 2.33147e-015
    endloop
  endfacet
  facet normal -0.5 1.92296e-016 0.866025
    outer loop
      vertex 8.57143 0 -2.22045e-015
      vertex 8.56033 0 -0.00641018
      vertex 8.57143 -20.5 2.33147e-015
    endloop
  endfacet
  facet normal -0.866025 -1.11022e-016 -0.5
    outer loop
      vertex 8.56033 -20.5 -0.00641018
      vertex 8.56033 0 -0.00641018
      vertex 9.27461 -20.5 -1.24359
    endloop
  endfacet
  facet normal -0.866025 -1.11022e-016 -0.5
    outer loop
      vertex 9.27461 -20.5 -1.24359
      vertex 8.56033 0 -0.00641018
      vertex 9.27461 0 -1.24359
    endloop
  endfacet
  facet normal 0.5 -1.92296e-016 -0.866025
    outer loop
      vertex 9.27461 -20.5 -1.24359
      vertex 9.27461 0 -1.24359
      vertex 9.28571 -20.5 -1.23718
    endloop
  endfacet
  facet normal 0.5 -1.92296e-016 -0.866025
    outer loop
      vertex 9.28571 -20.5 -1.23718
      vertex 9.27461 0 -1.24359
      vertex 9.28571 0 -1.23718
    endloop
  endfacet
  facet normal -1 0 0
    outer loop
      vertex 9.28571 -20.5 -1.25
      vertex 9.28571 -20.5 -1.23718
      vertex 9.28571 0 -1.25
    endloop
  endfacet
  facet normal -1 0 0
    outer loop
      vertex 9.28571 -20.5 -1.25
      vertex 9.28571 0 -1.25
      vertex 9.28571 0.5 -1.25
    endloop
  endfacet
  facet normal -1 0 0
    outer loop
      vertex 9.28571 0 -1.25
      vertex 9.28571 -20.5 -1.23718
      vertex 9.28571 0 -1.23718
    endloop
  endfacet
  facet normal 0 -1 2.22045e-016
    outer loop
      vertex 8.57143 -20.5 2.33147e-015
      vertex 8.56033 -20.5 -0.00641018
      vertex 9.27461 -20.5 -1.24359
    endloop
  endfacet
  facet normal 0 -1 2.22045e-016
    outer loop
      vertex 10.7143 -20.5 -1.25
      vertex 8.57143 -20.5 2.33147e-015
      vertex 9.28571 -20.5 -1.23718
    endloop
  endfacet
  facet normal 0 -1 2.22045e-016
    outer loop
      vertex 9.28571 -20.5 -1.23718
      vertex 8.57143 -20.5 2.33147e-015
      vertex 9.27461 -20.5 -1.24359
    endloop
  endfacet
  facet normal 0 -1 2.22045e-016
    outer loop
      vertex 10.7143 -20.5 -1.25
      vertex 9.28571 -20.5 -1.23718
      vertex 9.28571 -20.5 -1.25
    endloop
  endfacet
  facet normal 0 -1 2.22045e-016
    outer loop
      vertex 10.7143 -20.5 -1.23718
      vertex 8.57143 -20.5 2.33147e-015
      vertex 10.7143 -20.5 -1.25
    endloop
  endfacet
  facet normal 0 -1 2.22045e-016
    outer loop
      vertex 11.4397 -20.5 -0.00641018
      vertex 8.57143 -20.5 2.33147e-015
      vertex 10.7143 -20.5 -1.23718
    endloop
  endfacet
  facet normal 0 -1 2.22045e-016
    outer loop
      vertex 11.4397 -20.5 -0.00641018
      vertex 10.7143 -20.5 -1.23718
      vertex 10.7254 -20.5 -1.24359
    endloop
  endfacet
  facet normal 0 -1 2.22045e-016
    outer loop
      vertex 11.4286 -20.5 2.33147e-015
      vertex 8.57143 -20.5 2.33147e-015
      vertex 11.4397 -20.5 -0.00641018
    endloop
  endfacet
  facet normal 0 -1 2.22045e-016
    outer loop
      vertex 11.4397 -20.5 0.00641018
      vertex 8.57143 -20.5 2.33147e-015
      vertex 11.4286 -20.5 2.33147e-015
    endloop
  endfacet
  facet normal 0 -1 2.22045e-016
    outer loop
      vertex 10.7143 -20.5 1.23718
      vertex 8.57143 -20.5 2.33147e-015
      vertex 11.4397 -20.5 0.00641018
    endloop
  endfacet
  facet normal 0 -1 2.22045e-016
    outer loop
      vertex 10.7143 -20.5 1.25
      vertex 8.57143 -20.5 2.33147e-015
      vertex 10.7143 -20.5 1.23718
    endloop
  endfacet
  facet normal 0 -1 2.22045e-016
    outer loop
      vertex 10.7254 -20.5 1.24359
      vertex 10.7143 -20.5 1.23718
      vertex 11.4397 -20.5 0.00641018
    endloop
  endfacet
  facet normal 0 -1 2.22045e-016
    outer loop
      vertex 9.28571 -20.5 1.23718
      vertex 9.27461 -20.5 1.24359
      vertex 8.56033 -20.5 0.00641018
    endloop
  endfacet
  facet normal 0 -1 2.22045e-016
    outer loop
      vertex 10.7143 -20.5 1.25
      vertex 9.28571 -20.5 1.25
      vertex 9.28571 -20.5 1.23718
    endloop
  endfacet
  facet normal 0 -1 2.22045e-016
    outer loop
      vertex 8.56033 -20.5 0.00641018
      vertex 10.7143 -20.5 1.25
      vertex 9.28571 -20.5 1.23718
    endloop
  endfacet
  facet normal 0 -1 2.22045e-016
    outer loop
      vertex 8.56033 -20.5 0.00641018
      vertex 8.57143 -20.5 2.33147e-015
      vertex 10.7143 -20.5 1.25
    endloop
  endfacet
  facet normal 0 -2.22045e-016 -1
    outer loop
      vertex 9.28571 -20.5 -1.25
      vertex 9.28571 0.5 -1.25
      vertex 10.7143 -20.5 -1.25
    endloop
  endfacet
  facet normal 0 -2.22045e-016 -1
    outer loop
      vertex 10.7143 -20.5 -1.25
      vertex 9.28571 0.5 -1.25
      vertex 10.7143 0.5 -1.25
    endloop
  endfacet
endsolid OpenSCAD_Model
