solid OpenSCAD_Model
  facet normal -1 0 0
    outer loop
      vertex -1.5 -10 -1.25
      vertex -1.5 -10 1.25
      vertex -1.5 10 -1.25
    endloop
  endfacet
  facet normal -1 0 0
    outer loop
      vertex -1.5 10 -1.25
      vertex -1.5 -10 1.25
      vertex -1.5 10 1.25
    endloop
  endfacet
  facet normal 0 -1 0
    outer loop
      vertex -0.725389 -10 -1.24359
      vertex -1.5 -10 -1.25
      vertex -0.714286 -10 -1.25
    endloop
  endfacet
  facet normal 0 -1 0
    outer loop
      vertex -1.43967 -10 -0.00641018
      vertex -1.5 -10 -1.25
      vertex -0.725389 -10 -1.24359
    endloop
  endfacet
  facet normal 0 -1 0
    outer loop
      vertex -1.5 -10 1.25
      vertex -1.5 -10 -1.25
      vertex -1.43967 -10 -0.00641018
    endloop
  endfacet
  facet normal 0 -1 0
    outer loop
      vertex -1.43967 -10 0.00641018
      vertex -1.43967 -10 -0.00641018
      vertex -1.42857 -10 0
    endloop
  endfacet
  facet normal 0 -1 0
    outer loop
      vertex -1.5 -10 1.25
      vertex -1.43967 -10 -0.00641018
      vertex -1.43967 -10 0.00641018
    endloop
  endfacet
  facet normal 0 -1 0
    outer loop
      vertex -0.714286 -10 1.25
      vertex -1.5 -10 1.25
      vertex -0.725389 -10 1.24359
    endloop
  endfacet
  facet normal 0 -1 0
    outer loop
      vertex -0.714286 -10 1.25
      vertex -0.725389 -10 1.24359
      vertex -0.714286 -10 1.23718
    endloop
  endfacet
  facet normal 0 -1 0
    outer loop
      vertex -0.714286 -10 -1.23718
      vertex -0.725389 -10 -1.24359
      vertex -0.714286 -10 -1.25
    endloop
  endfacet
  facet normal 0 -1 0
    outer loop
      vertex -1.43967 -10 0.00641018
      vertex -0.725389 -10 1.24359
      vertex -1.5 -10 1.25
    endloop
  endfacet
  facet normal 0 0 -1
    outer loop
      vertex -1.5 -10 -1.25
      vertex -1.5 10 -1.25
      vertex -0.714286 -10 -1.25
    endloop
  endfacet
  facet normal 0 0 -1
    outer loop
      vertex 0.714286 7.5 -1.25
      vertex -1.5 10 -1.25
      vertex 1.5 10 -1.25
    endloop
  endfacet
  facet normal 0 0 -1
    outer loop
      vertex 0.714286 -10 -1.25
      vertex 1.5 10 -1.25
      vertex 1.5 -10 -1.25
    endloop
  endfacet
  facet normal 0 0 -1
    outer loop
      vertex -0.714286 7.5 -1.25
      vertex -1.5 10 -1.25
      vertex 0.714286 7.5 -1.25
    endloop
  endfacet
  facet normal 0 0 -1
    outer loop
      vertex -0.714286 -10 -1.25
      vertex -1.5 10 -1.25
      vertex -0.714286 7.5 -1.25
    endloop
  endfacet
  facet normal 0 0 -1
    outer loop
      vertex 0.714286 7.5 -1.25
      vertex 1.5 10 -1.25
      vertex 0.714286 -10 -1.25
    endloop
  endfacet
  facet normal 0 1 0
    outer loop
      vertex -1.5 10 -1.25
      vertex -1.5 10 1.25
      vertex 1.5 10 -1.25
    endloop
  endfacet
  facet normal 0 1 0
    outer loop
      vertex 1.5 10 -1.25
      vertex -1.5 10 1.25
      vertex 1.5 10 1.25
    endloop
  endfacet
  facet normal 0 0 1
    outer loop
      vertex -1.5 10 1.25
      vertex -1.5 -10 1.25
      vertex -0.714286 -10 1.25
    endloop
  endfacet
  facet normal 0 0 1
    outer loop
      vertex 0.714286 -10 1.25
      vertex -1.5 10 1.25
      vertex -0.714286 -10 1.25
    endloop
  endfacet
  facet normal 0 0 1
    outer loop
      vertex 1.5 -10 1.25
      vertex -1.5 10 1.25
      vertex 0.714286 -10 1.25
    endloop
  endfacet
  facet normal 0 0 1
    outer loop
      vertex 1.5 10 1.25
      vertex -1.5 10 1.25
      vertex 1.5 -10 1.25
    endloop
  endfacet
  facet normal -1 0 0
    outer loop
      vertex -0.714286 -27.5 1.23718
      vertex -0.714286 -27.5 1.25
      vertex -0.714286 -10 1.23718
    endloop
  endfacet
  facet normal -1 0 0
    outer loop
      vertex -0.714286 -10 1.23718
      vertex -0.714286 -27.5 1.25
      vertex -0.714286 -10 1.25
    endloop
  endfacet
  facet normal 0.5 1.92296e-016 0.866025
    outer loop
      vertex -0.725389 -10 1.24359
      vertex -0.725389 -27.5 1.24359
      vertex -0.714286 -27.5 1.23718
    endloop
  endfacet
  facet normal 0.5 1.92296e-016 0.866025
    outer loop
      vertex -0.714286 -10 1.23718
      vertex -0.725389 -10 1.24359
      vertex -0.714286 -27.5 1.23718
    endloop
  endfacet
  facet normal -0.866025 1.11022e-016 0.5
    outer loop
      vertex -1.43967 -27.5 0.00641018
      vertex -0.725389 -27.5 1.24359
      vertex -1.43967 -10 0.00641018
    endloop
  endfacet
  facet normal -0.866025 1.11022e-016 0.5
    outer loop
      vertex -1.43967 -10 0.00641018
      vertex -0.725389 -27.5 1.24359
      vertex -0.725389 -10 1.24359
    endloop
  endfacet
  facet normal -0.5 -1.92296e-016 -0.866025
    outer loop
      vertex -1.43967 -27.5 0.00641018
      vertex -1.43967 -10 0.00641018
      vertex -1.42857 -27.5 3.88578e-015
    endloop
  endfacet
  facet normal -0.5 -1.92296e-016 -0.866025
    outer loop
      vertex -1.42857 -27.5 3.88578e-015
      vertex -1.43967 -10 0.00641018
      vertex -1.42857 -10 0
    endloop
  endfacet
  facet normal -0.5 1.92296e-016 0.866025
    outer loop
      vertex -1.43967 -10 -0.00641018
      vertex -1.43967 -27.5 -0.00641018
      vertex -1.42857 -27.5 3.88578e-015
    endloop
  endfacet
  facet normal -0.5 1.92296e-016 0.866025
    outer loop
      vertex -1.42857 -10 0
      vertex -1.43967 -10 -0.00641018
      vertex -1.42857 -27.5 3.88578e-015
    endloop
  endfacet
  facet normal -0.866025 -1.11022e-016 -0.5
    outer loop
      vertex -1.43967 -27.5 -0.00641018
      vertex -1.43967 -10 -0.00641018
      vertex -0.725389 -27.5 -1.24359
    endloop
  endfacet
  facet normal -0.866025 -1.11022e-016 -0.5
    outer loop
      vertex -0.725389 -27.5 -1.24359
      vertex -1.43967 -10 -0.00641018
      vertex -0.725389 -10 -1.24359
    endloop
  endfacet
  facet normal 0.5 -1.92296e-016 -0.866025
    outer loop
      vertex -0.725389 -27.5 -1.24359
      vertex -0.725389 -10 -1.24359
      vertex -0.714286 -27.5 -1.23718
    endloop
  endfacet
  facet normal 0.5 -1.92296e-016 -0.866025
    outer loop
      vertex -0.714286 -27.5 -1.23718
      vertex -0.725389 -10 -1.24359
      vertex -0.714286 -10 -1.23718
    endloop
  endfacet
  facet normal -1 0 0
    outer loop
      vertex -0.714286 -27.5 -1.25
      vertex -0.714286 -27.5 -1.23718
      vertex -0.714286 -10 -1.25
    endloop
  endfacet
  facet normal -1 0 0
    outer loop
      vertex -0.714286 -27.5 -1.25
      vertex -0.714286 -10 -1.25
      vertex -0.714286 7.5 -1.25
    endloop
  endfacet
  facet normal -1 0 0
    outer loop
      vertex -0.714286 -10 -1.25
      vertex -0.714286 -27.5 -1.23718
      vertex -0.714286 -10 -1.23718
    endloop
  endfacet
  facet normal 1 0 0
    outer loop
      vertex 0.714286 -10 -1.25
      vertex 0.714286 -27.5 -1.25
      vertex 0.714286 7.5 -1.25
    endloop
  endfacet
  facet normal 1 0 0
    outer loop
      vertex 0.714286 -10 -1.25
      vertex 0.714286 -10 -1.23718
      vertex 0.714286 -27.5 -1.23718
    endloop
  endfacet
  facet normal 1 0 0
    outer loop
      vertex 0.714286 -27.5 -1.23718
      vertex 0.714286 -27.5 -1.25
      vertex 0.714286 -10 -1.25
    endloop
  endfacet
  facet normal 0 -1 0
    outer loop
      vertex 0.725389 -10 -1.24359
      vertex 0.714286 -10 -1.25
      vertex 1.5 -10 -1.25
    endloop
  endfacet
  facet normal 0 -1 0
    outer loop
      vertex 0.714286 -10 1.25
      vertex 0.725389 -10 1.24359
      vertex 1.5 -10 1.25
    endloop
  endfacet
  facet normal 0 -1 0
    outer loop
      vertex 0.714286 -10 1.25
      vertex 0.714286 -10 1.23718
      vertex 0.725389 -10 1.24359
    endloop
  endfacet
  facet normal 0 -1 0
    outer loop
      vertex 1.5 -10 1.25
      vertex 1.43967 -10 0.00641018
      vertex 1.5 -10 -1.25
    endloop
  endfacet
  facet normal 0 -1 0
    outer loop
      vertex 1.43967 -10 -0.00641018
      vertex 0.725389 -10 -1.24359
      vertex 1.5 -10 -1.25
    endloop
  endfacet
  facet normal 0 -1 0
    outer loop
      vertex 1.42857 -10 0
      vertex 1.43967 -10 -0.00641018
      vertex 1.43967 -10 0.00641018
    endloop
  endfacet
  facet normal 0 -1 0
    outer loop
      vertex 1.43967 -10 0.00641018
      vertex 1.43967 -10 -0.00641018
      vertex 1.5 -10 -1.25
    endloop
  endfacet
  facet normal 0 -1 0
    outer loop
      vertex 0.714286 -10 -1.23718
      vertex 0.714286 -10 -1.25
      vertex 0.725389 -10 -1.24359
    endloop
  endfacet
  facet normal 0 -1 0
    outer loop
      vertex 0.725389 -10 1.24359
      vertex 1.43967 -10 0.00641018
      vertex 1.5 -10 1.25
    endloop
  endfacet
  facet normal 1 0 0
    outer loop
      vertex 1.5 -10 1.25
      vertex 1.5 -10 -1.25
      vertex 1.5 10 -1.25
    endloop
  endfacet
  facet normal 1 0 0
    outer loop
      vertex 1.5 10 1.25
      vertex 1.5 -10 1.25
      vertex 1.5 10 -1.25
    endloop
  endfacet
  facet normal 1 0 0
    outer loop
      vertex 0.714286 -27.5 1.25
      vertex 0.714286 -27.5 1.23718
      vertex 0.714286 -10 1.23718
    endloop
  endfacet
  facet normal 1 0 0
    outer loop
      vertex 0.714286 -10 1.25
      vertex 0.714286 -27.5 1.25
      vertex 0.714286 -10 1.23718
    endloop
  endfacet
  facet normal 0 2.22045e-016 1
    outer loop
      vertex -0.714286 -10 1.25
      vertex -0.714286 -27.5 1.25
      vertex 0.714286 -27.5 1.25
    endloop
  endfacet
  facet normal 0 2.22045e-016 1
    outer loop
      vertex 0.714286 -10 1.25
      vertex -0.714286 -10 1.25
      vertex 0.714286 -27.5 1.25
    endloop
  endfacet
  facet normal 0 -1 2.22045e-016
    outer loop
      vertex -1.42857 -27.5 3.88578e-015
      vertex -1.43967 -27.5 -0.00641018
      vertex -0.725389 -27.5 -1.24359
    endloop
  endfacet
  facet normal 0 -1 2.22045e-016
    outer loop
      vertex 0.714286 -27.5 -1.25
      vertex -1.42857 -27.5 3.88578e-015
      vertex -0.714286 -27.5 -1.23718
    endloop
  endfacet
  facet normal 0 -1 2.22045e-016
    outer loop
      vertex -0.714286 -27.5 -1.23718
      vertex -1.42857 -27.5 3.88578e-015
      vertex -0.725389 -27.5 -1.24359
    endloop
  endfacet
  facet normal 0 -1 2.22045e-016
    outer loop
      vertex 0.714286 -27.5 -1.25
      vertex -0.714286 -27.5 -1.23718
      vertex -0.714286 -27.5 -1.25
    endloop
  endfacet
  facet normal 0 -1 2.22045e-016
    outer loop
      vertex 0.714286 -27.5 -1.23718
      vertex -1.42857 -27.5 3.88578e-015
      vertex 0.714286 -27.5 -1.25
    endloop
  endfacet
  facet normal 0 -1 2.22045e-016
    outer loop
      vertex 1.43967 -27.5 -0.00641018
      vertex -1.42857 -27.5 3.88578e-015
      vertex 0.714286 -27.5 -1.23718
    endloop
  endfacet
  facet normal 0 -1 2.22045e-016
    outer loop
      vertex 1.43967 -27.5 -0.00641018
      vertex 0.714286 -27.5 -1.23718
      vertex 0.725389 -27.5 -1.24359
    endloop
  endfacet
  facet normal 0 -1 2.22045e-016
    outer loop
      vertex 1.42857 -27.5 3.88578e-015
      vertex -1.42857 -27.5 3.88578e-015
      vertex 1.43967 -27.5 -0.00641018
    endloop
  endfacet
  facet normal 0 -1 2.22045e-016
    outer loop
      vertex 1.43967 -27.5 0.00641018
      vertex -1.42857 -27.5 3.88578e-015
      vertex 1.42857 -27.5 3.88578e-015
    endloop
  endfacet
  facet normal 0 -1 2.22045e-016
    outer loop
      vertex 0.714286 -27.5 1.23718
      vertex -1.42857 -27.5 3.88578e-015
      vertex 1.43967 -27.5 0.00641018
    endloop
  endfacet
  facet normal 0 -1 2.22045e-016
    outer loop
      vertex 0.714286 -27.5 1.25
      vertex -1.42857 -27.5 3.88578e-015
      vertex 0.714286 -27.5 1.23718
    endloop
  endfacet
  facet normal 0 -1 2.22045e-016
    outer loop
      vertex 0.725389 -27.5 1.24359
      vertex 0.714286 -27.5 1.23718
      vertex 1.43967 -27.5 0.00641018
    endloop
  endfacet
  facet normal 0 -1 2.22045e-016
    outer loop
      vertex -0.714286 -27.5 1.23718
      vertex -0.725389 -27.5 1.24359
      vertex -1.43967 -27.5 0.00641018
    endloop
  endfacet
  facet normal 0 -1 2.22045e-016
    outer loop
      vertex 0.714286 -27.5 1.25
      vertex -0.714286 -27.5 1.25
      vertex -0.714286 -27.5 1.23718
    endloop
  endfacet
  facet normal 0 -1 2.22045e-016
    outer loop
      vertex -1.43967 -27.5 0.00641018
      vertex 0.714286 -27.5 1.25
      vertex -0.714286 -27.5 1.23718
    endloop
  endfacet
  facet normal 0 -1 2.22045e-016
    outer loop
      vertex -1.43967 -27.5 0.00641018
      vertex -1.42857 -27.5 3.88578e-015
      vertex 0.714286 -27.5 1.25
    endloop
  endfacet
  facet normal 0 -2.22045e-016 -1
    outer loop
      vertex -0.714286 -27.5 -1.25
      vertex -0.714286 7.5 -1.25
      vertex 0.714286 -27.5 -1.25
    endloop
  endfacet
  facet normal 0 -2.22045e-016 -1
    outer loop
      vertex 0.714286 -27.5 -1.25
      vertex -0.714286 7.5 -1.25
      vertex 0.714286 7.5 -1.25
    endloop
  endfacet
  facet normal -0.5 -1.92296e-016 -0.866025
    outer loop
      vertex 0.714286 -27.5 -1.23718
      vertex 0.714286 -10 -1.23718
      vertex 0.725389 -27.5 -1.24359
    endloop
  endfacet
  facet normal -0.5 -1.92296e-016 -0.866025
    outer loop
      vertex 0.725389 -27.5 -1.24359
      vertex 0.714286 -10 -1.23718
      vertex 0.725389 -10 -1.24359
    endloop
  endfacet
  facet normal 0.866025 -1.11022e-016 -0.5
    outer loop
      vertex 1.43967 -27.5 -0.00641018
      vertex 0.725389 -27.5 -1.24359
      vertex 0.725389 -10 -1.24359
    endloop
  endfacet
  facet normal 0.866025 -1.11022e-016 -0.5
    outer loop
      vertex 1.43967 -10 -0.00641018
      vertex 1.43967 -27.5 -0.00641018
      vertex 0.725389 -10 -1.24359
    endloop
  endfacet
  facet normal 0.5 1.92296e-016 0.866025
    outer loop
      vertex 1.42857 -10 0
      vertex 1.42857 -27.5 3.88578e-015
      vertex 1.43967 -27.5 -0.00641018
    endloop
  endfacet
  facet normal 0.5 1.92296e-016 0.866025
    outer loop
      vertex 1.43967 -10 -0.00641018
      vertex 1.42857 -10 0
      vertex 1.43967 -27.5 -0.00641018
    endloop
  endfacet
  facet normal 0.5 -1.92296e-016 -0.866025
    outer loop
      vertex 1.42857 -27.5 3.88578e-015
      vertex 1.42857 -10 0
      vertex 1.43967 -27.5 0.00641018
    endloop
  endfacet
  facet normal 0.5 -1.92296e-016 -0.866025
    outer loop
      vertex 1.43967 -27.5 0.00641018
      vertex 1.42857 -10 0
      vertex 1.43967 -10 0.00641018
    endloop
  endfacet
  facet normal 0.866025 1.11022e-016 0.5
    outer loop
      vertex 0.725389 -10 1.24359
      vertex 0.725389 -27.5 1.24359
      vertex 1.43967 -27.5 0.00641018
    endloop
  endfacet
  facet normal 0.866025 1.11022e-016 0.5
    outer loop
      vertex 1.43967 -10 0.00641018
      vertex 0.725389 -10 1.24359
      vertex 1.43967 -27.5 0.00641018
    endloop
  endfacet
  facet normal -0.5 1.92296e-016 0.866025
    outer loop
      vertex 0.714286 -10 1.23718
      vertex 0.714286 -27.5 1.23718
      vertex 0.725389 -27.5 1.24359
    endloop
  endfacet
  facet normal -0.5 1.92296e-016 0.866025
    outer loop
      vertex 0.725389 -10 1.24359
      vertex 0.714286 -10 1.23718
      vertex 0.725389 -27.5 1.24359
    endloop
  endfacet
endsolid OpenSCAD_Model
